G04 #@! TF.GenerationSoftware,KiCad,Pcbnew,7.0.10-unknown-202401271548~13fcb571f7~ubuntu23.10.1*
G04 #@! TF.CreationDate,2024-01-28T11:57:11+00:00*
G04 #@! TF.ProjectId,Dragon 32 Soak Test Cartridge,44726167-6f6e-4203-9332-20536f616b20,1.0*
G04 #@! TF.SameCoordinates,Original*
G04 #@! TF.FileFunction,Legend,Top*
G04 #@! TF.FilePolarity,Positive*
%FSLAX46Y46*%
G04 Gerber Fmt 4.6, Leading zero omitted, Abs format (unit mm)*
G04 Created by KiCad (PCBNEW 7.0.10-unknown-202401271548~13fcb571f7~ubuntu23.10.1) date 2024-01-28 11:57:11*
%MOMM*%
%LPD*%
G01*
G04 APERTURE LIST*
%ADD10C,0.187500*%
%ADD11C,0.125000*%
%ADD12C,0.225000*%
%ADD13C,0.150000*%
%ADD14C,0.120000*%
G04 APERTURE END LIST*
D10*
X94951926Y-59775964D02*
X94951926Y-57975964D01*
X94951926Y-57975964D02*
X95380497Y-57975964D01*
X95380497Y-57975964D02*
X95637640Y-58061678D01*
X95637640Y-58061678D02*
X95809069Y-58233107D01*
X95809069Y-58233107D02*
X95894783Y-58404535D01*
X95894783Y-58404535D02*
X95980497Y-58747392D01*
X95980497Y-58747392D02*
X95980497Y-59004535D01*
X95980497Y-59004535D02*
X95894783Y-59347392D01*
X95894783Y-59347392D02*
X95809069Y-59518821D01*
X95809069Y-59518821D02*
X95637640Y-59690250D01*
X95637640Y-59690250D02*
X95380497Y-59775964D01*
X95380497Y-59775964D02*
X94951926Y-59775964D01*
X97780497Y-59775964D02*
X97180497Y-58918821D01*
X96751926Y-59775964D02*
X96751926Y-57975964D01*
X96751926Y-57975964D02*
X97437640Y-57975964D01*
X97437640Y-57975964D02*
X97609069Y-58061678D01*
X97609069Y-58061678D02*
X97694783Y-58147392D01*
X97694783Y-58147392D02*
X97780497Y-58318821D01*
X97780497Y-58318821D02*
X97780497Y-58575964D01*
X97780497Y-58575964D02*
X97694783Y-58747392D01*
X97694783Y-58747392D02*
X97609069Y-58833107D01*
X97609069Y-58833107D02*
X97437640Y-58918821D01*
X97437640Y-58918821D02*
X96751926Y-58918821D01*
X98466212Y-59261678D02*
X99323355Y-59261678D01*
X98294783Y-59775964D02*
X98894783Y-57975964D01*
X98894783Y-57975964D02*
X99494783Y-59775964D01*
X101037640Y-58061678D02*
X100866212Y-57975964D01*
X100866212Y-57975964D02*
X100609069Y-57975964D01*
X100609069Y-57975964D02*
X100351926Y-58061678D01*
X100351926Y-58061678D02*
X100180497Y-58233107D01*
X100180497Y-58233107D02*
X100094783Y-58404535D01*
X100094783Y-58404535D02*
X100009069Y-58747392D01*
X100009069Y-58747392D02*
X100009069Y-59004535D01*
X100009069Y-59004535D02*
X100094783Y-59347392D01*
X100094783Y-59347392D02*
X100180497Y-59518821D01*
X100180497Y-59518821D02*
X100351926Y-59690250D01*
X100351926Y-59690250D02*
X100609069Y-59775964D01*
X100609069Y-59775964D02*
X100780497Y-59775964D01*
X100780497Y-59775964D02*
X101037640Y-59690250D01*
X101037640Y-59690250D02*
X101123354Y-59604535D01*
X101123354Y-59604535D02*
X101123354Y-59004535D01*
X101123354Y-59004535D02*
X100780497Y-59004535D01*
X102237640Y-57975964D02*
X102580497Y-57975964D01*
X102580497Y-57975964D02*
X102751926Y-58061678D01*
X102751926Y-58061678D02*
X102923354Y-58233107D01*
X102923354Y-58233107D02*
X103009069Y-58575964D01*
X103009069Y-58575964D02*
X103009069Y-59175964D01*
X103009069Y-59175964D02*
X102923354Y-59518821D01*
X102923354Y-59518821D02*
X102751926Y-59690250D01*
X102751926Y-59690250D02*
X102580497Y-59775964D01*
X102580497Y-59775964D02*
X102237640Y-59775964D01*
X102237640Y-59775964D02*
X102066212Y-59690250D01*
X102066212Y-59690250D02*
X101894783Y-59518821D01*
X101894783Y-59518821D02*
X101809069Y-59175964D01*
X101809069Y-59175964D02*
X101809069Y-58575964D01*
X101809069Y-58575964D02*
X101894783Y-58233107D01*
X101894783Y-58233107D02*
X102066212Y-58061678D01*
X102066212Y-58061678D02*
X102237640Y-57975964D01*
X103780497Y-59775964D02*
X103780497Y-57975964D01*
X103780497Y-57975964D02*
X104809068Y-59775964D01*
X104809068Y-59775964D02*
X104809068Y-57975964D01*
X106866211Y-57975964D02*
X107980497Y-57975964D01*
X107980497Y-57975964D02*
X107380497Y-58661678D01*
X107380497Y-58661678D02*
X107637640Y-58661678D01*
X107637640Y-58661678D02*
X107809069Y-58747392D01*
X107809069Y-58747392D02*
X107894783Y-58833107D01*
X107894783Y-58833107D02*
X107980497Y-59004535D01*
X107980497Y-59004535D02*
X107980497Y-59433107D01*
X107980497Y-59433107D02*
X107894783Y-59604535D01*
X107894783Y-59604535D02*
X107809069Y-59690250D01*
X107809069Y-59690250D02*
X107637640Y-59775964D01*
X107637640Y-59775964D02*
X107123354Y-59775964D01*
X107123354Y-59775964D02*
X106951926Y-59690250D01*
X106951926Y-59690250D02*
X106866211Y-59604535D01*
X108666212Y-58147392D02*
X108751926Y-58061678D01*
X108751926Y-58061678D02*
X108923355Y-57975964D01*
X108923355Y-57975964D02*
X109351926Y-57975964D01*
X109351926Y-57975964D02*
X109523355Y-58061678D01*
X109523355Y-58061678D02*
X109609069Y-58147392D01*
X109609069Y-58147392D02*
X109694783Y-58318821D01*
X109694783Y-58318821D02*
X109694783Y-58490250D01*
X109694783Y-58490250D02*
X109609069Y-58747392D01*
X109609069Y-58747392D02*
X108580497Y-59775964D01*
X108580497Y-59775964D02*
X109694783Y-59775964D01*
X94866212Y-62588250D02*
X95123355Y-62673964D01*
X95123355Y-62673964D02*
X95551926Y-62673964D01*
X95551926Y-62673964D02*
X95723355Y-62588250D01*
X95723355Y-62588250D02*
X95809069Y-62502535D01*
X95809069Y-62502535D02*
X95894783Y-62331107D01*
X95894783Y-62331107D02*
X95894783Y-62159678D01*
X95894783Y-62159678D02*
X95809069Y-61988250D01*
X95809069Y-61988250D02*
X95723355Y-61902535D01*
X95723355Y-61902535D02*
X95551926Y-61816821D01*
X95551926Y-61816821D02*
X95209069Y-61731107D01*
X95209069Y-61731107D02*
X95037640Y-61645392D01*
X95037640Y-61645392D02*
X94951926Y-61559678D01*
X94951926Y-61559678D02*
X94866212Y-61388250D01*
X94866212Y-61388250D02*
X94866212Y-61216821D01*
X94866212Y-61216821D02*
X94951926Y-61045392D01*
X94951926Y-61045392D02*
X95037640Y-60959678D01*
X95037640Y-60959678D02*
X95209069Y-60873964D01*
X95209069Y-60873964D02*
X95637640Y-60873964D01*
X95637640Y-60873964D02*
X95894783Y-60959678D01*
X97009069Y-60873964D02*
X97351926Y-60873964D01*
X97351926Y-60873964D02*
X97523355Y-60959678D01*
X97523355Y-60959678D02*
X97694783Y-61131107D01*
X97694783Y-61131107D02*
X97780498Y-61473964D01*
X97780498Y-61473964D02*
X97780498Y-62073964D01*
X97780498Y-62073964D02*
X97694783Y-62416821D01*
X97694783Y-62416821D02*
X97523355Y-62588250D01*
X97523355Y-62588250D02*
X97351926Y-62673964D01*
X97351926Y-62673964D02*
X97009069Y-62673964D01*
X97009069Y-62673964D02*
X96837641Y-62588250D01*
X96837641Y-62588250D02*
X96666212Y-62416821D01*
X96666212Y-62416821D02*
X96580498Y-62073964D01*
X96580498Y-62073964D02*
X96580498Y-61473964D01*
X96580498Y-61473964D02*
X96666212Y-61131107D01*
X96666212Y-61131107D02*
X96837641Y-60959678D01*
X96837641Y-60959678D02*
X97009069Y-60873964D01*
X98466212Y-62159678D02*
X99323355Y-62159678D01*
X98294783Y-62673964D02*
X98894783Y-60873964D01*
X98894783Y-60873964D02*
X99494783Y-62673964D01*
X100094783Y-62673964D02*
X100094783Y-60873964D01*
X101123354Y-62673964D02*
X100351926Y-61645392D01*
X101123354Y-60873964D02*
X100094783Y-61902535D01*
X103009069Y-60873964D02*
X104037641Y-60873964D01*
X103523355Y-62673964D02*
X103523355Y-60873964D01*
X104637641Y-61731107D02*
X105237641Y-61731107D01*
X105494784Y-62673964D02*
X104637641Y-62673964D01*
X104637641Y-62673964D02*
X104637641Y-60873964D01*
X104637641Y-60873964D02*
X105494784Y-60873964D01*
X106180498Y-62588250D02*
X106437641Y-62673964D01*
X106437641Y-62673964D02*
X106866212Y-62673964D01*
X106866212Y-62673964D02*
X107037641Y-62588250D01*
X107037641Y-62588250D02*
X107123355Y-62502535D01*
X107123355Y-62502535D02*
X107209069Y-62331107D01*
X107209069Y-62331107D02*
X107209069Y-62159678D01*
X107209069Y-62159678D02*
X107123355Y-61988250D01*
X107123355Y-61988250D02*
X107037641Y-61902535D01*
X107037641Y-61902535D02*
X106866212Y-61816821D01*
X106866212Y-61816821D02*
X106523355Y-61731107D01*
X106523355Y-61731107D02*
X106351926Y-61645392D01*
X106351926Y-61645392D02*
X106266212Y-61559678D01*
X106266212Y-61559678D02*
X106180498Y-61388250D01*
X106180498Y-61388250D02*
X106180498Y-61216821D01*
X106180498Y-61216821D02*
X106266212Y-61045392D01*
X106266212Y-61045392D02*
X106351926Y-60959678D01*
X106351926Y-60959678D02*
X106523355Y-60873964D01*
X106523355Y-60873964D02*
X106951926Y-60873964D01*
X106951926Y-60873964D02*
X107209069Y-60959678D01*
X107723355Y-60873964D02*
X108751927Y-60873964D01*
X108237641Y-62673964D02*
X108237641Y-60873964D01*
X94951926Y-65571964D02*
X94951926Y-63771964D01*
X95809069Y-65571964D02*
X95809069Y-63771964D01*
X95809069Y-63771964D02*
X96837640Y-65571964D01*
X96837640Y-65571964D02*
X96837640Y-63771964D01*
X97694783Y-65571964D02*
X97694783Y-63771964D01*
X97694783Y-63771964D02*
X98123354Y-63771964D01*
X98123354Y-63771964D02*
X98380497Y-63857678D01*
X98380497Y-63857678D02*
X98551926Y-64029107D01*
X98551926Y-64029107D02*
X98637640Y-64200535D01*
X98637640Y-64200535D02*
X98723354Y-64543392D01*
X98723354Y-64543392D02*
X98723354Y-64800535D01*
X98723354Y-64800535D02*
X98637640Y-65143392D01*
X98637640Y-65143392D02*
X98551926Y-65314821D01*
X98551926Y-65314821D02*
X98380497Y-65486250D01*
X98380497Y-65486250D02*
X98123354Y-65571964D01*
X98123354Y-65571964D02*
X97694783Y-65571964D01*
X99494783Y-65571964D02*
X99494783Y-63771964D01*
X101380497Y-65400535D02*
X101294783Y-65486250D01*
X101294783Y-65486250D02*
X101037640Y-65571964D01*
X101037640Y-65571964D02*
X100866212Y-65571964D01*
X100866212Y-65571964D02*
X100609069Y-65486250D01*
X100609069Y-65486250D02*
X100437640Y-65314821D01*
X100437640Y-65314821D02*
X100351926Y-65143392D01*
X100351926Y-65143392D02*
X100266212Y-64800535D01*
X100266212Y-64800535D02*
X100266212Y-64543392D01*
X100266212Y-64543392D02*
X100351926Y-64200535D01*
X100351926Y-64200535D02*
X100437640Y-64029107D01*
X100437640Y-64029107D02*
X100609069Y-63857678D01*
X100609069Y-63857678D02*
X100866212Y-63771964D01*
X100866212Y-63771964D02*
X101037640Y-63771964D01*
X101037640Y-63771964D02*
X101294783Y-63857678D01*
X101294783Y-63857678D02*
X101380497Y-63943392D01*
X102066212Y-65057678D02*
X102923355Y-65057678D01*
X101894783Y-65571964D02*
X102494783Y-63771964D01*
X102494783Y-63771964D02*
X103094783Y-65571964D01*
X103437640Y-63771964D02*
X104466212Y-63771964D01*
X103951926Y-65571964D02*
X103951926Y-63771964D01*
X105409069Y-63771964D02*
X105751926Y-63771964D01*
X105751926Y-63771964D02*
X105923355Y-63857678D01*
X105923355Y-63857678D02*
X106094783Y-64029107D01*
X106094783Y-64029107D02*
X106180498Y-64371964D01*
X106180498Y-64371964D02*
X106180498Y-64971964D01*
X106180498Y-64971964D02*
X106094783Y-65314821D01*
X106094783Y-65314821D02*
X105923355Y-65486250D01*
X105923355Y-65486250D02*
X105751926Y-65571964D01*
X105751926Y-65571964D02*
X105409069Y-65571964D01*
X105409069Y-65571964D02*
X105237641Y-65486250D01*
X105237641Y-65486250D02*
X105066212Y-65314821D01*
X105066212Y-65314821D02*
X104980498Y-64971964D01*
X104980498Y-64971964D02*
X104980498Y-64371964D01*
X104980498Y-64371964D02*
X105066212Y-64029107D01*
X105066212Y-64029107D02*
X105237641Y-63857678D01*
X105237641Y-63857678D02*
X105409069Y-63771964D01*
X107980497Y-65571964D02*
X107380497Y-64714821D01*
X106951926Y-65571964D02*
X106951926Y-63771964D01*
X106951926Y-63771964D02*
X107637640Y-63771964D01*
X107637640Y-63771964D02*
X107809069Y-63857678D01*
X107809069Y-63857678D02*
X107894783Y-63943392D01*
X107894783Y-63943392D02*
X107980497Y-64114821D01*
X107980497Y-64114821D02*
X107980497Y-64371964D01*
X107980497Y-64371964D02*
X107894783Y-64543392D01*
X107894783Y-64543392D02*
X107809069Y-64629107D01*
X107809069Y-64629107D02*
X107637640Y-64714821D01*
X107637640Y-64714821D02*
X106951926Y-64714821D01*
X95980497Y-68469964D02*
X95380497Y-67612821D01*
X94951926Y-68469964D02*
X94951926Y-66669964D01*
X94951926Y-66669964D02*
X95637640Y-66669964D01*
X95637640Y-66669964D02*
X95809069Y-66755678D01*
X95809069Y-66755678D02*
X95894783Y-66841392D01*
X95894783Y-66841392D02*
X95980497Y-67012821D01*
X95980497Y-67012821D02*
X95980497Y-67269964D01*
X95980497Y-67269964D02*
X95894783Y-67441392D01*
X95894783Y-67441392D02*
X95809069Y-67527107D01*
X95809069Y-67527107D02*
X95637640Y-67612821D01*
X95637640Y-67612821D02*
X94951926Y-67612821D01*
X96751926Y-67527107D02*
X97351926Y-67527107D01*
X97609069Y-68469964D02*
X96751926Y-68469964D01*
X96751926Y-68469964D02*
X96751926Y-66669964D01*
X96751926Y-66669964D02*
X97609069Y-66669964D01*
X98380497Y-68469964D02*
X98380497Y-66669964D01*
X98380497Y-66669964D02*
X99066211Y-66669964D01*
X99066211Y-66669964D02*
X99237640Y-66755678D01*
X99237640Y-66755678D02*
X99323354Y-66841392D01*
X99323354Y-66841392D02*
X99409068Y-67012821D01*
X99409068Y-67012821D02*
X99409068Y-67269964D01*
X99409068Y-67269964D02*
X99323354Y-67441392D01*
X99323354Y-67441392D02*
X99237640Y-67527107D01*
X99237640Y-67527107D02*
X99066211Y-67612821D01*
X99066211Y-67612821D02*
X98380497Y-67612821D01*
X101037640Y-68469964D02*
X100180497Y-68469964D01*
X100180497Y-68469964D02*
X100180497Y-66669964D01*
X101637640Y-68469964D02*
X101637640Y-66669964D01*
X103523354Y-68298535D02*
X103437640Y-68384250D01*
X103437640Y-68384250D02*
X103180497Y-68469964D01*
X103180497Y-68469964D02*
X103009069Y-68469964D01*
X103009069Y-68469964D02*
X102751926Y-68384250D01*
X102751926Y-68384250D02*
X102580497Y-68212821D01*
X102580497Y-68212821D02*
X102494783Y-68041392D01*
X102494783Y-68041392D02*
X102409069Y-67698535D01*
X102409069Y-67698535D02*
X102409069Y-67441392D01*
X102409069Y-67441392D02*
X102494783Y-67098535D01*
X102494783Y-67098535D02*
X102580497Y-66927107D01*
X102580497Y-66927107D02*
X102751926Y-66755678D01*
X102751926Y-66755678D02*
X103009069Y-66669964D01*
X103009069Y-66669964D02*
X103180497Y-66669964D01*
X103180497Y-66669964D02*
X103437640Y-66755678D01*
X103437640Y-66755678D02*
X103523354Y-66841392D01*
X104209069Y-67955678D02*
X105066212Y-67955678D01*
X104037640Y-68469964D02*
X104637640Y-66669964D01*
X104637640Y-66669964D02*
X105237640Y-68469964D01*
D11*
X65128880Y-48525093D02*
X65128880Y-49191759D01*
X65128880Y-49191759D02*
X64128880Y-48763188D01*
X64795547Y-50001283D02*
X64128880Y-50001283D01*
X65176500Y-49763188D02*
X64462214Y-49525093D01*
X64462214Y-49525093D02*
X64462214Y-50144140D01*
X64128880Y-51001283D02*
X64128880Y-50525093D01*
X64128880Y-50525093D02*
X65128880Y-50525093D01*
X64176500Y-51286998D02*
X64128880Y-51429855D01*
X64128880Y-51429855D02*
X64128880Y-51667950D01*
X64128880Y-51667950D02*
X64176500Y-51763188D01*
X64176500Y-51763188D02*
X64224119Y-51810807D01*
X64224119Y-51810807D02*
X64319357Y-51858426D01*
X64319357Y-51858426D02*
X64414595Y-51858426D01*
X64414595Y-51858426D02*
X64509833Y-51810807D01*
X64509833Y-51810807D02*
X64557452Y-51763188D01*
X64557452Y-51763188D02*
X64605071Y-51667950D01*
X64605071Y-51667950D02*
X64652690Y-51477474D01*
X64652690Y-51477474D02*
X64700309Y-51382236D01*
X64700309Y-51382236D02*
X64747928Y-51334617D01*
X64747928Y-51334617D02*
X64843166Y-51286998D01*
X64843166Y-51286998D02*
X64938404Y-51286998D01*
X64938404Y-51286998D02*
X65033642Y-51334617D01*
X65033642Y-51334617D02*
X65081261Y-51382236D01*
X65081261Y-51382236D02*
X65128880Y-51477474D01*
X65128880Y-51477474D02*
X65128880Y-51715569D01*
X65128880Y-51715569D02*
X65081261Y-51858426D01*
X65128880Y-52477474D02*
X65128880Y-52572712D01*
X65128880Y-52572712D02*
X65081261Y-52667950D01*
X65081261Y-52667950D02*
X65033642Y-52715569D01*
X65033642Y-52715569D02*
X64938404Y-52763188D01*
X64938404Y-52763188D02*
X64747928Y-52810807D01*
X64747928Y-52810807D02*
X64509833Y-52810807D01*
X64509833Y-52810807D02*
X64319357Y-52763188D01*
X64319357Y-52763188D02*
X64224119Y-52715569D01*
X64224119Y-52715569D02*
X64176500Y-52667950D01*
X64176500Y-52667950D02*
X64128880Y-52572712D01*
X64128880Y-52572712D02*
X64128880Y-52477474D01*
X64128880Y-52477474D02*
X64176500Y-52382236D01*
X64176500Y-52382236D02*
X64224119Y-52334617D01*
X64224119Y-52334617D02*
X64319357Y-52286998D01*
X64319357Y-52286998D02*
X64509833Y-52239379D01*
X64509833Y-52239379D02*
X64747928Y-52239379D01*
X64747928Y-52239379D02*
X64938404Y-52286998D01*
X64938404Y-52286998D02*
X65033642Y-52334617D01*
X65033642Y-52334617D02*
X65081261Y-52382236D01*
X65081261Y-52382236D02*
X65128880Y-52477474D01*
X64795547Y-53667950D02*
X64128880Y-53667950D01*
X65176500Y-53429855D02*
X64462214Y-53191760D01*
X64462214Y-53191760D02*
X64462214Y-53810807D01*
X64728880Y-71425093D02*
X64728880Y-72091759D01*
X64728880Y-72091759D02*
X63728880Y-71663188D01*
X64395547Y-72901283D02*
X63728880Y-72901283D01*
X64776500Y-72663188D02*
X64062214Y-72425093D01*
X64062214Y-72425093D02*
X64062214Y-73044140D01*
X63728880Y-73901283D02*
X63728880Y-73425093D01*
X63728880Y-73425093D02*
X64728880Y-73425093D01*
X63776500Y-74186998D02*
X63728880Y-74329855D01*
X63728880Y-74329855D02*
X63728880Y-74567950D01*
X63728880Y-74567950D02*
X63776500Y-74663188D01*
X63776500Y-74663188D02*
X63824119Y-74710807D01*
X63824119Y-74710807D02*
X63919357Y-74758426D01*
X63919357Y-74758426D02*
X64014595Y-74758426D01*
X64014595Y-74758426D02*
X64109833Y-74710807D01*
X64109833Y-74710807D02*
X64157452Y-74663188D01*
X64157452Y-74663188D02*
X64205071Y-74567950D01*
X64205071Y-74567950D02*
X64252690Y-74377474D01*
X64252690Y-74377474D02*
X64300309Y-74282236D01*
X64300309Y-74282236D02*
X64347928Y-74234617D01*
X64347928Y-74234617D02*
X64443166Y-74186998D01*
X64443166Y-74186998D02*
X64538404Y-74186998D01*
X64538404Y-74186998D02*
X64633642Y-74234617D01*
X64633642Y-74234617D02*
X64681261Y-74282236D01*
X64681261Y-74282236D02*
X64728880Y-74377474D01*
X64728880Y-74377474D02*
X64728880Y-74615569D01*
X64728880Y-74615569D02*
X64681261Y-74758426D01*
X63728880Y-75710807D02*
X63728880Y-75139379D01*
X63728880Y-75425093D02*
X64728880Y-75425093D01*
X64728880Y-75425093D02*
X64586023Y-75329855D01*
X64586023Y-75329855D02*
X64490785Y-75234617D01*
X64490785Y-75234617D02*
X64443166Y-75139379D01*
X64728880Y-76329855D02*
X64728880Y-76425093D01*
X64728880Y-76425093D02*
X64681261Y-76520331D01*
X64681261Y-76520331D02*
X64633642Y-76567950D01*
X64633642Y-76567950D02*
X64538404Y-76615569D01*
X64538404Y-76615569D02*
X64347928Y-76663188D01*
X64347928Y-76663188D02*
X64109833Y-76663188D01*
X64109833Y-76663188D02*
X63919357Y-76615569D01*
X63919357Y-76615569D02*
X63824119Y-76567950D01*
X63824119Y-76567950D02*
X63776500Y-76520331D01*
X63776500Y-76520331D02*
X63728880Y-76425093D01*
X63728880Y-76425093D02*
X63728880Y-76329855D01*
X63728880Y-76329855D02*
X63776500Y-76234617D01*
X63776500Y-76234617D02*
X63824119Y-76186998D01*
X63824119Y-76186998D02*
X63919357Y-76139379D01*
X63919357Y-76139379D02*
X64109833Y-76091760D01*
X64109833Y-76091760D02*
X64347928Y-76091760D01*
X64347928Y-76091760D02*
X64538404Y-76139379D01*
X64538404Y-76139379D02*
X64633642Y-76186998D01*
X64633642Y-76186998D02*
X64681261Y-76234617D01*
X64681261Y-76234617D02*
X64728880Y-76329855D01*
X121933642Y-59172712D02*
X121981261Y-59220331D01*
X121981261Y-59220331D02*
X122028880Y-59315569D01*
X122028880Y-59315569D02*
X122028880Y-59553664D01*
X122028880Y-59553664D02*
X121981261Y-59648902D01*
X121981261Y-59648902D02*
X121933642Y-59696521D01*
X121933642Y-59696521D02*
X121838404Y-59744140D01*
X121838404Y-59744140D02*
X121743166Y-59744140D01*
X121743166Y-59744140D02*
X121600309Y-59696521D01*
X121600309Y-59696521D02*
X121028880Y-59125093D01*
X121028880Y-59125093D02*
X121028880Y-59744140D01*
X122028880Y-60077474D02*
X122028880Y-60744140D01*
X122028880Y-60744140D02*
X121028880Y-60315569D01*
X121124119Y-61696521D02*
X121076500Y-61648902D01*
X121076500Y-61648902D02*
X121028880Y-61506045D01*
X121028880Y-61506045D02*
X121028880Y-61410807D01*
X121028880Y-61410807D02*
X121076500Y-61267950D01*
X121076500Y-61267950D02*
X121171738Y-61172712D01*
X121171738Y-61172712D02*
X121266976Y-61125093D01*
X121266976Y-61125093D02*
X121457452Y-61077474D01*
X121457452Y-61077474D02*
X121600309Y-61077474D01*
X121600309Y-61077474D02*
X121790785Y-61125093D01*
X121790785Y-61125093D02*
X121886023Y-61172712D01*
X121886023Y-61172712D02*
X121981261Y-61267950D01*
X121981261Y-61267950D02*
X122028880Y-61410807D01*
X122028880Y-61410807D02*
X122028880Y-61506045D01*
X122028880Y-61506045D02*
X121981261Y-61648902D01*
X121981261Y-61648902D02*
X121933642Y-61696521D01*
X122028880Y-62553664D02*
X122028880Y-62363188D01*
X122028880Y-62363188D02*
X121981261Y-62267950D01*
X121981261Y-62267950D02*
X121933642Y-62220331D01*
X121933642Y-62220331D02*
X121790785Y-62125093D01*
X121790785Y-62125093D02*
X121600309Y-62077474D01*
X121600309Y-62077474D02*
X121219357Y-62077474D01*
X121219357Y-62077474D02*
X121124119Y-62125093D01*
X121124119Y-62125093D02*
X121076500Y-62172712D01*
X121076500Y-62172712D02*
X121028880Y-62267950D01*
X121028880Y-62267950D02*
X121028880Y-62458426D01*
X121028880Y-62458426D02*
X121076500Y-62553664D01*
X121076500Y-62553664D02*
X121124119Y-62601283D01*
X121124119Y-62601283D02*
X121219357Y-62648902D01*
X121219357Y-62648902D02*
X121457452Y-62648902D01*
X121457452Y-62648902D02*
X121552690Y-62601283D01*
X121552690Y-62601283D02*
X121600309Y-62553664D01*
X121600309Y-62553664D02*
X121647928Y-62458426D01*
X121647928Y-62458426D02*
X121647928Y-62267950D01*
X121647928Y-62267950D02*
X121600309Y-62172712D01*
X121600309Y-62172712D02*
X121552690Y-62125093D01*
X121552690Y-62125093D02*
X121457452Y-62077474D01*
X121695547Y-63506045D02*
X121028880Y-63506045D01*
X122076500Y-63267950D02*
X121362214Y-63029855D01*
X121362214Y-63029855D02*
X121362214Y-63648902D01*
D12*
X95190883Y-72782300D02*
X95448026Y-72868014D01*
X95448026Y-72868014D02*
X95876597Y-72868014D01*
X95876597Y-72868014D02*
X96048026Y-72782300D01*
X96048026Y-72782300D02*
X96133740Y-72696585D01*
X96133740Y-72696585D02*
X96219454Y-72525157D01*
X96219454Y-72525157D02*
X96219454Y-72353728D01*
X96219454Y-72353728D02*
X96133740Y-72182300D01*
X96133740Y-72182300D02*
X96048026Y-72096585D01*
X96048026Y-72096585D02*
X95876597Y-72010871D01*
X95876597Y-72010871D02*
X95533740Y-71925157D01*
X95533740Y-71925157D02*
X95362311Y-71839442D01*
X95362311Y-71839442D02*
X95276597Y-71753728D01*
X95276597Y-71753728D02*
X95190883Y-71582300D01*
X95190883Y-71582300D02*
X95190883Y-71410871D01*
X95190883Y-71410871D02*
X95276597Y-71239442D01*
X95276597Y-71239442D02*
X95362311Y-71153728D01*
X95362311Y-71153728D02*
X95533740Y-71068014D01*
X95533740Y-71068014D02*
X95962311Y-71068014D01*
X95962311Y-71068014D02*
X96219454Y-71153728D01*
X96733740Y-71068014D02*
X97762312Y-71068014D01*
X97248026Y-72868014D02*
X97248026Y-71068014D01*
X98362312Y-72868014D02*
X98362312Y-71068014D01*
X100505170Y-71239442D02*
X100590884Y-71153728D01*
X100590884Y-71153728D02*
X100762313Y-71068014D01*
X100762313Y-71068014D02*
X101190884Y-71068014D01*
X101190884Y-71068014D02*
X101362313Y-71153728D01*
X101362313Y-71153728D02*
X101448027Y-71239442D01*
X101448027Y-71239442D02*
X101533741Y-71410871D01*
X101533741Y-71410871D02*
X101533741Y-71582300D01*
X101533741Y-71582300D02*
X101448027Y-71839442D01*
X101448027Y-71839442D02*
X100419455Y-72868014D01*
X100419455Y-72868014D02*
X101533741Y-72868014D01*
D11*
X89828880Y-46596521D02*
X89828880Y-46120331D01*
X89828880Y-46120331D02*
X90828880Y-46120331D01*
X89828880Y-46929855D02*
X90828880Y-46929855D01*
X90828880Y-46929855D02*
X90114595Y-47263188D01*
X90114595Y-47263188D02*
X90828880Y-47596521D01*
X90828880Y-47596521D02*
X89828880Y-47596521D01*
X90828880Y-48548902D02*
X90828880Y-48072712D01*
X90828880Y-48072712D02*
X90352690Y-48025093D01*
X90352690Y-48025093D02*
X90400309Y-48072712D01*
X90400309Y-48072712D02*
X90447928Y-48167950D01*
X90447928Y-48167950D02*
X90447928Y-48406045D01*
X90447928Y-48406045D02*
X90400309Y-48501283D01*
X90400309Y-48501283D02*
X90352690Y-48548902D01*
X90352690Y-48548902D02*
X90257452Y-48596521D01*
X90257452Y-48596521D02*
X90019357Y-48596521D01*
X90019357Y-48596521D02*
X89924119Y-48548902D01*
X89924119Y-48548902D02*
X89876500Y-48501283D01*
X89876500Y-48501283D02*
X89828880Y-48406045D01*
X89828880Y-48406045D02*
X89828880Y-48167950D01*
X89828880Y-48167950D02*
X89876500Y-48072712D01*
X89876500Y-48072712D02*
X89924119Y-48025093D01*
X90828880Y-49501283D02*
X90828880Y-49025093D01*
X90828880Y-49025093D02*
X90352690Y-48977474D01*
X90352690Y-48977474D02*
X90400309Y-49025093D01*
X90400309Y-49025093D02*
X90447928Y-49120331D01*
X90447928Y-49120331D02*
X90447928Y-49358426D01*
X90447928Y-49358426D02*
X90400309Y-49453664D01*
X90400309Y-49453664D02*
X90352690Y-49501283D01*
X90352690Y-49501283D02*
X90257452Y-49548902D01*
X90257452Y-49548902D02*
X90019357Y-49548902D01*
X90019357Y-49548902D02*
X89924119Y-49501283D01*
X89924119Y-49501283D02*
X89876500Y-49453664D01*
X89876500Y-49453664D02*
X89828880Y-49358426D01*
X89828880Y-49358426D02*
X89828880Y-49120331D01*
X89828880Y-49120331D02*
X89876500Y-49025093D01*
X89876500Y-49025093D02*
X89924119Y-48977474D01*
X90828880Y-50453664D02*
X90828880Y-49977474D01*
X90828880Y-49977474D02*
X90352690Y-49929855D01*
X90352690Y-49929855D02*
X90400309Y-49977474D01*
X90400309Y-49977474D02*
X90447928Y-50072712D01*
X90447928Y-50072712D02*
X90447928Y-50310807D01*
X90447928Y-50310807D02*
X90400309Y-50406045D01*
X90400309Y-50406045D02*
X90352690Y-50453664D01*
X90352690Y-50453664D02*
X90257452Y-50501283D01*
X90257452Y-50501283D02*
X90019357Y-50501283D01*
X90019357Y-50501283D02*
X89924119Y-50453664D01*
X89924119Y-50453664D02*
X89876500Y-50406045D01*
X89876500Y-50406045D02*
X89828880Y-50310807D01*
X89828880Y-50310807D02*
X89828880Y-50072712D01*
X89828880Y-50072712D02*
X89876500Y-49977474D01*
X89876500Y-49977474D02*
X89924119Y-49929855D01*
D13*
X63383810Y-64244819D02*
X63383810Y-63244819D01*
X64431428Y-64149580D02*
X64383809Y-64197200D01*
X64383809Y-64197200D02*
X64240952Y-64244819D01*
X64240952Y-64244819D02*
X64145714Y-64244819D01*
X64145714Y-64244819D02*
X64002857Y-64197200D01*
X64002857Y-64197200D02*
X63907619Y-64101961D01*
X63907619Y-64101961D02*
X63860000Y-64006723D01*
X63860000Y-64006723D02*
X63812381Y-63816247D01*
X63812381Y-63816247D02*
X63812381Y-63673390D01*
X63812381Y-63673390D02*
X63860000Y-63482914D01*
X63860000Y-63482914D02*
X63907619Y-63387676D01*
X63907619Y-63387676D02*
X64002857Y-63292438D01*
X64002857Y-63292438D02*
X64145714Y-63244819D01*
X64145714Y-63244819D02*
X64240952Y-63244819D01*
X64240952Y-63244819D02*
X64383809Y-63292438D01*
X64383809Y-63292438D02*
X64431428Y-63340057D01*
X65288571Y-63578152D02*
X65288571Y-64244819D01*
X65050476Y-63197200D02*
X64812381Y-63911485D01*
X64812381Y-63911485D02*
X65431428Y-63911485D01*
X65238095Y-110404819D02*
X65238095Y-111214342D01*
X65238095Y-111214342D02*
X65285714Y-111309580D01*
X65285714Y-111309580D02*
X65333333Y-111357200D01*
X65333333Y-111357200D02*
X65428571Y-111404819D01*
X65428571Y-111404819D02*
X65619047Y-111404819D01*
X65619047Y-111404819D02*
X65714285Y-111357200D01*
X65714285Y-111357200D02*
X65761904Y-111309580D01*
X65761904Y-111309580D02*
X65809523Y-111214342D01*
X65809523Y-111214342D02*
X65809523Y-110404819D01*
X66238095Y-110500057D02*
X66285714Y-110452438D01*
X66285714Y-110452438D02*
X66380952Y-110404819D01*
X66380952Y-110404819D02*
X66619047Y-110404819D01*
X66619047Y-110404819D02*
X66714285Y-110452438D01*
X66714285Y-110452438D02*
X66761904Y-110500057D01*
X66761904Y-110500057D02*
X66809523Y-110595295D01*
X66809523Y-110595295D02*
X66809523Y-110690533D01*
X66809523Y-110690533D02*
X66761904Y-110833390D01*
X66761904Y-110833390D02*
X66190476Y-111404819D01*
X66190476Y-111404819D02*
X66809523Y-111404819D01*
X49761905Y-83554819D02*
X49761905Y-82554819D01*
X49761905Y-82554819D02*
X50000000Y-82554819D01*
X50000000Y-82554819D02*
X50142857Y-82602438D01*
X50142857Y-82602438D02*
X50238095Y-82697676D01*
X50238095Y-82697676D02*
X50285714Y-82792914D01*
X50285714Y-82792914D02*
X50333333Y-82983390D01*
X50333333Y-82983390D02*
X50333333Y-83126247D01*
X50333333Y-83126247D02*
X50285714Y-83316723D01*
X50285714Y-83316723D02*
X50238095Y-83411961D01*
X50238095Y-83411961D02*
X50142857Y-83507200D01*
X50142857Y-83507200D02*
X50000000Y-83554819D01*
X50000000Y-83554819D02*
X49761905Y-83554819D01*
X51285714Y-83554819D02*
X50714286Y-83554819D01*
X51000000Y-83554819D02*
X51000000Y-82554819D01*
X51000000Y-82554819D02*
X50904762Y-82697676D01*
X50904762Y-82697676D02*
X50809524Y-82792914D01*
X50809524Y-82792914D02*
X50714286Y-82840533D01*
X120181810Y-42955819D02*
X120181810Y-41955819D01*
X121229428Y-42860580D02*
X121181809Y-42908200D01*
X121181809Y-42908200D02*
X121038952Y-42955819D01*
X121038952Y-42955819D02*
X120943714Y-42955819D01*
X120943714Y-42955819D02*
X120800857Y-42908200D01*
X120800857Y-42908200D02*
X120705619Y-42812961D01*
X120705619Y-42812961D02*
X120658000Y-42717723D01*
X120658000Y-42717723D02*
X120610381Y-42527247D01*
X120610381Y-42527247D02*
X120610381Y-42384390D01*
X120610381Y-42384390D02*
X120658000Y-42193914D01*
X120658000Y-42193914D02*
X120705619Y-42098676D01*
X120705619Y-42098676D02*
X120800857Y-42003438D01*
X120800857Y-42003438D02*
X120943714Y-41955819D01*
X120943714Y-41955819D02*
X121038952Y-41955819D01*
X121038952Y-41955819D02*
X121181809Y-42003438D01*
X121181809Y-42003438D02*
X121229428Y-42051057D01*
X121562762Y-41955819D02*
X122181809Y-41955819D01*
X122181809Y-41955819D02*
X121848476Y-42336771D01*
X121848476Y-42336771D02*
X121991333Y-42336771D01*
X121991333Y-42336771D02*
X122086571Y-42384390D01*
X122086571Y-42384390D02*
X122134190Y-42432009D01*
X122134190Y-42432009D02*
X122181809Y-42527247D01*
X122181809Y-42527247D02*
X122181809Y-42765342D01*
X122181809Y-42765342D02*
X122134190Y-42860580D01*
X122134190Y-42860580D02*
X122086571Y-42908200D01*
X122086571Y-42908200D02*
X121991333Y-42955819D01*
X121991333Y-42955819D02*
X121705619Y-42955819D01*
X121705619Y-42955819D02*
X121610381Y-42908200D01*
X121610381Y-42908200D02*
X121562762Y-42860580D01*
X72054819Y-69638094D02*
X71054819Y-69638094D01*
X71054819Y-69638094D02*
X71054819Y-69399999D01*
X71054819Y-69399999D02*
X71102438Y-69257142D01*
X71102438Y-69257142D02*
X71197676Y-69161904D01*
X71197676Y-69161904D02*
X71292914Y-69114285D01*
X71292914Y-69114285D02*
X71483390Y-69066666D01*
X71483390Y-69066666D02*
X71626247Y-69066666D01*
X71626247Y-69066666D02*
X71816723Y-69114285D01*
X71816723Y-69114285D02*
X71911961Y-69161904D01*
X71911961Y-69161904D02*
X72007200Y-69257142D01*
X72007200Y-69257142D02*
X72054819Y-69399999D01*
X72054819Y-69399999D02*
X72054819Y-69638094D01*
X71959580Y-68066666D02*
X72007200Y-68114285D01*
X72007200Y-68114285D02*
X72054819Y-68257142D01*
X72054819Y-68257142D02*
X72054819Y-68352380D01*
X72054819Y-68352380D02*
X72007200Y-68495237D01*
X72007200Y-68495237D02*
X71911961Y-68590475D01*
X71911961Y-68590475D02*
X71816723Y-68638094D01*
X71816723Y-68638094D02*
X71626247Y-68685713D01*
X71626247Y-68685713D02*
X71483390Y-68685713D01*
X71483390Y-68685713D02*
X71292914Y-68638094D01*
X71292914Y-68638094D02*
X71197676Y-68590475D01*
X71197676Y-68590475D02*
X71102438Y-68495237D01*
X71102438Y-68495237D02*
X71054819Y-68352380D01*
X71054819Y-68352380D02*
X71054819Y-68257142D01*
X71054819Y-68257142D02*
X71102438Y-68114285D01*
X71102438Y-68114285D02*
X71150057Y-68066666D01*
X72054819Y-67114285D02*
X72054819Y-67685713D01*
X72054819Y-67399999D02*
X71054819Y-67399999D01*
X71054819Y-67399999D02*
X71197676Y-67495237D01*
X71197676Y-67495237D02*
X71292914Y-67590475D01*
X71292914Y-67590475D02*
X71340533Y-67685713D01*
X72054819Y-48638094D02*
X71054819Y-48638094D01*
X71054819Y-48638094D02*
X71054819Y-48399999D01*
X71054819Y-48399999D02*
X71102438Y-48257142D01*
X71102438Y-48257142D02*
X71197676Y-48161904D01*
X71197676Y-48161904D02*
X71292914Y-48114285D01*
X71292914Y-48114285D02*
X71483390Y-48066666D01*
X71483390Y-48066666D02*
X71626247Y-48066666D01*
X71626247Y-48066666D02*
X71816723Y-48114285D01*
X71816723Y-48114285D02*
X71911961Y-48161904D01*
X71911961Y-48161904D02*
X72007200Y-48257142D01*
X72007200Y-48257142D02*
X72054819Y-48399999D01*
X72054819Y-48399999D02*
X72054819Y-48638094D01*
X71959580Y-47066666D02*
X72007200Y-47114285D01*
X72007200Y-47114285D02*
X72054819Y-47257142D01*
X72054819Y-47257142D02*
X72054819Y-47352380D01*
X72054819Y-47352380D02*
X72007200Y-47495237D01*
X72007200Y-47495237D02*
X71911961Y-47590475D01*
X71911961Y-47590475D02*
X71816723Y-47638094D01*
X71816723Y-47638094D02*
X71626247Y-47685713D01*
X71626247Y-47685713D02*
X71483390Y-47685713D01*
X71483390Y-47685713D02*
X71292914Y-47638094D01*
X71292914Y-47638094D02*
X71197676Y-47590475D01*
X71197676Y-47590475D02*
X71102438Y-47495237D01*
X71102438Y-47495237D02*
X71054819Y-47352380D01*
X71054819Y-47352380D02*
X71054819Y-47257142D01*
X71054819Y-47257142D02*
X71102438Y-47114285D01*
X71102438Y-47114285D02*
X71150057Y-47066666D01*
X71150057Y-46685713D02*
X71102438Y-46638094D01*
X71102438Y-46638094D02*
X71054819Y-46542856D01*
X71054819Y-46542856D02*
X71054819Y-46304761D01*
X71054819Y-46304761D02*
X71102438Y-46209523D01*
X71102438Y-46209523D02*
X71150057Y-46161904D01*
X71150057Y-46161904D02*
X71245295Y-46114285D01*
X71245295Y-46114285D02*
X71340533Y-46114285D01*
X71340533Y-46114285D02*
X71483390Y-46161904D01*
X71483390Y-46161904D02*
X72054819Y-46733332D01*
X72054819Y-46733332D02*
X72054819Y-46114285D01*
X54833333Y-45254819D02*
X54500000Y-44778628D01*
X54261905Y-45254819D02*
X54261905Y-44254819D01*
X54261905Y-44254819D02*
X54642857Y-44254819D01*
X54642857Y-44254819D02*
X54738095Y-44302438D01*
X54738095Y-44302438D02*
X54785714Y-44350057D01*
X54785714Y-44350057D02*
X54833333Y-44445295D01*
X54833333Y-44445295D02*
X54833333Y-44588152D01*
X54833333Y-44588152D02*
X54785714Y-44683390D01*
X54785714Y-44683390D02*
X54738095Y-44731009D01*
X54738095Y-44731009D02*
X54642857Y-44778628D01*
X54642857Y-44778628D02*
X54261905Y-44778628D01*
X55214286Y-44350057D02*
X55261905Y-44302438D01*
X55261905Y-44302438D02*
X55357143Y-44254819D01*
X55357143Y-44254819D02*
X55595238Y-44254819D01*
X55595238Y-44254819D02*
X55690476Y-44302438D01*
X55690476Y-44302438D02*
X55738095Y-44350057D01*
X55738095Y-44350057D02*
X55785714Y-44445295D01*
X55785714Y-44445295D02*
X55785714Y-44540533D01*
X55785714Y-44540533D02*
X55738095Y-44683390D01*
X55738095Y-44683390D02*
X55166667Y-45254819D01*
X55166667Y-45254819D02*
X55785714Y-45254819D01*
X78033333Y-65054819D02*
X77700000Y-64578628D01*
X77461905Y-65054819D02*
X77461905Y-64054819D01*
X77461905Y-64054819D02*
X77842857Y-64054819D01*
X77842857Y-64054819D02*
X77938095Y-64102438D01*
X77938095Y-64102438D02*
X77985714Y-64150057D01*
X77985714Y-64150057D02*
X78033333Y-64245295D01*
X78033333Y-64245295D02*
X78033333Y-64388152D01*
X78033333Y-64388152D02*
X77985714Y-64483390D01*
X77985714Y-64483390D02*
X77938095Y-64531009D01*
X77938095Y-64531009D02*
X77842857Y-64578628D01*
X77842857Y-64578628D02*
X77461905Y-64578628D01*
X78938095Y-64054819D02*
X78461905Y-64054819D01*
X78461905Y-64054819D02*
X78414286Y-64531009D01*
X78414286Y-64531009D02*
X78461905Y-64483390D01*
X78461905Y-64483390D02*
X78557143Y-64435771D01*
X78557143Y-64435771D02*
X78795238Y-64435771D01*
X78795238Y-64435771D02*
X78890476Y-64483390D01*
X78890476Y-64483390D02*
X78938095Y-64531009D01*
X78938095Y-64531009D02*
X78985714Y-64626247D01*
X78985714Y-64626247D02*
X78985714Y-64864342D01*
X78985714Y-64864342D02*
X78938095Y-64959580D01*
X78938095Y-64959580D02*
X78890476Y-65007200D01*
X78890476Y-65007200D02*
X78795238Y-65054819D01*
X78795238Y-65054819D02*
X78557143Y-65054819D01*
X78557143Y-65054819D02*
X78461905Y-65007200D01*
X78461905Y-65007200D02*
X78414286Y-64959580D01*
X45601095Y-59017819D02*
X46172523Y-59017819D01*
X45886809Y-60017819D02*
X45886809Y-59017819D01*
X47077285Y-60017819D02*
X46743952Y-59541628D01*
X46505857Y-60017819D02*
X46505857Y-59017819D01*
X46505857Y-59017819D02*
X46886809Y-59017819D01*
X46886809Y-59017819D02*
X46982047Y-59065438D01*
X46982047Y-59065438D02*
X47029666Y-59113057D01*
X47029666Y-59113057D02*
X47077285Y-59208295D01*
X47077285Y-59208295D02*
X47077285Y-59351152D01*
X47077285Y-59351152D02*
X47029666Y-59446390D01*
X47029666Y-59446390D02*
X46982047Y-59494009D01*
X46982047Y-59494009D02*
X46886809Y-59541628D01*
X46886809Y-59541628D02*
X46505857Y-59541628D01*
X48029666Y-60017819D02*
X47458238Y-60017819D01*
X47743952Y-60017819D02*
X47743952Y-59017819D01*
X47743952Y-59017819D02*
X47648714Y-59160676D01*
X47648714Y-59160676D02*
X47553476Y-59255914D01*
X47553476Y-59255914D02*
X47458238Y-59303533D01*
X106833333Y-42159580D02*
X106785714Y-42207200D01*
X106785714Y-42207200D02*
X106642857Y-42254819D01*
X106642857Y-42254819D02*
X106547619Y-42254819D01*
X106547619Y-42254819D02*
X106404762Y-42207200D01*
X106404762Y-42207200D02*
X106309524Y-42111961D01*
X106309524Y-42111961D02*
X106261905Y-42016723D01*
X106261905Y-42016723D02*
X106214286Y-41826247D01*
X106214286Y-41826247D02*
X106214286Y-41683390D01*
X106214286Y-41683390D02*
X106261905Y-41492914D01*
X106261905Y-41492914D02*
X106309524Y-41397676D01*
X106309524Y-41397676D02*
X106404762Y-41302438D01*
X106404762Y-41302438D02*
X106547619Y-41254819D01*
X106547619Y-41254819D02*
X106642857Y-41254819D01*
X106642857Y-41254819D02*
X106785714Y-41302438D01*
X106785714Y-41302438D02*
X106833333Y-41350057D01*
X107214286Y-41350057D02*
X107261905Y-41302438D01*
X107261905Y-41302438D02*
X107357143Y-41254819D01*
X107357143Y-41254819D02*
X107595238Y-41254819D01*
X107595238Y-41254819D02*
X107690476Y-41302438D01*
X107690476Y-41302438D02*
X107738095Y-41350057D01*
X107738095Y-41350057D02*
X107785714Y-41445295D01*
X107785714Y-41445295D02*
X107785714Y-41540533D01*
X107785714Y-41540533D02*
X107738095Y-41683390D01*
X107738095Y-41683390D02*
X107166667Y-42254819D01*
X107166667Y-42254819D02*
X107785714Y-42254819D01*
X53833333Y-69654819D02*
X53500000Y-69178628D01*
X53261905Y-69654819D02*
X53261905Y-68654819D01*
X53261905Y-68654819D02*
X53642857Y-68654819D01*
X53642857Y-68654819D02*
X53738095Y-68702438D01*
X53738095Y-68702438D02*
X53785714Y-68750057D01*
X53785714Y-68750057D02*
X53833333Y-68845295D01*
X53833333Y-68845295D02*
X53833333Y-68988152D01*
X53833333Y-68988152D02*
X53785714Y-69083390D01*
X53785714Y-69083390D02*
X53738095Y-69131009D01*
X53738095Y-69131009D02*
X53642857Y-69178628D01*
X53642857Y-69178628D02*
X53261905Y-69178628D01*
X54166667Y-68654819D02*
X54833333Y-68654819D01*
X54833333Y-68654819D02*
X54404762Y-69654819D01*
X89283810Y-42524819D02*
X89283810Y-41524819D01*
X90331428Y-42429580D02*
X90283809Y-42477200D01*
X90283809Y-42477200D02*
X90140952Y-42524819D01*
X90140952Y-42524819D02*
X90045714Y-42524819D01*
X90045714Y-42524819D02*
X89902857Y-42477200D01*
X89902857Y-42477200D02*
X89807619Y-42381961D01*
X89807619Y-42381961D02*
X89760000Y-42286723D01*
X89760000Y-42286723D02*
X89712381Y-42096247D01*
X89712381Y-42096247D02*
X89712381Y-41953390D01*
X89712381Y-41953390D02*
X89760000Y-41762914D01*
X89760000Y-41762914D02*
X89807619Y-41667676D01*
X89807619Y-41667676D02*
X89902857Y-41572438D01*
X89902857Y-41572438D02*
X90045714Y-41524819D01*
X90045714Y-41524819D02*
X90140952Y-41524819D01*
X90140952Y-41524819D02*
X90283809Y-41572438D01*
X90283809Y-41572438D02*
X90331428Y-41620057D01*
X90712381Y-41620057D02*
X90760000Y-41572438D01*
X90760000Y-41572438D02*
X90855238Y-41524819D01*
X90855238Y-41524819D02*
X91093333Y-41524819D01*
X91093333Y-41524819D02*
X91188571Y-41572438D01*
X91188571Y-41572438D02*
X91236190Y-41620057D01*
X91236190Y-41620057D02*
X91283809Y-41715295D01*
X91283809Y-41715295D02*
X91283809Y-41810533D01*
X91283809Y-41810533D02*
X91236190Y-41953390D01*
X91236190Y-41953390D02*
X90664762Y-42524819D01*
X90664762Y-42524819D02*
X91283809Y-42524819D01*
X47433333Y-69654819D02*
X47100000Y-69178628D01*
X46861905Y-69654819D02*
X46861905Y-68654819D01*
X46861905Y-68654819D02*
X47242857Y-68654819D01*
X47242857Y-68654819D02*
X47338095Y-68702438D01*
X47338095Y-68702438D02*
X47385714Y-68750057D01*
X47385714Y-68750057D02*
X47433333Y-68845295D01*
X47433333Y-68845295D02*
X47433333Y-68988152D01*
X47433333Y-68988152D02*
X47385714Y-69083390D01*
X47385714Y-69083390D02*
X47338095Y-69131009D01*
X47338095Y-69131009D02*
X47242857Y-69178628D01*
X47242857Y-69178628D02*
X46861905Y-69178628D01*
X48290476Y-68654819D02*
X48100000Y-68654819D01*
X48100000Y-68654819D02*
X48004762Y-68702438D01*
X48004762Y-68702438D02*
X47957143Y-68750057D01*
X47957143Y-68750057D02*
X47861905Y-68892914D01*
X47861905Y-68892914D02*
X47814286Y-69083390D01*
X47814286Y-69083390D02*
X47814286Y-69464342D01*
X47814286Y-69464342D02*
X47861905Y-69559580D01*
X47861905Y-69559580D02*
X47909524Y-69607200D01*
X47909524Y-69607200D02*
X48004762Y-69654819D01*
X48004762Y-69654819D02*
X48195238Y-69654819D01*
X48195238Y-69654819D02*
X48290476Y-69607200D01*
X48290476Y-69607200D02*
X48338095Y-69559580D01*
X48338095Y-69559580D02*
X48385714Y-69464342D01*
X48385714Y-69464342D02*
X48385714Y-69226247D01*
X48385714Y-69226247D02*
X48338095Y-69131009D01*
X48338095Y-69131009D02*
X48290476Y-69083390D01*
X48290476Y-69083390D02*
X48195238Y-69035771D01*
X48195238Y-69035771D02*
X48004762Y-69035771D01*
X48004762Y-69035771D02*
X47909524Y-69083390D01*
X47909524Y-69083390D02*
X47861905Y-69131009D01*
X47861905Y-69131009D02*
X47814286Y-69226247D01*
X102233333Y-43159568D02*
X102185714Y-43207188D01*
X102185714Y-43207188D02*
X102042857Y-43254807D01*
X102042857Y-43254807D02*
X101947619Y-43254807D01*
X101947619Y-43254807D02*
X101804762Y-43207188D01*
X101804762Y-43207188D02*
X101709524Y-43111949D01*
X101709524Y-43111949D02*
X101661905Y-43016711D01*
X101661905Y-43016711D02*
X101614286Y-42826235D01*
X101614286Y-42826235D02*
X101614286Y-42683378D01*
X101614286Y-42683378D02*
X101661905Y-42492902D01*
X101661905Y-42492902D02*
X101709524Y-42397664D01*
X101709524Y-42397664D02*
X101804762Y-42302426D01*
X101804762Y-42302426D02*
X101947619Y-42254807D01*
X101947619Y-42254807D02*
X102042857Y-42254807D01*
X102042857Y-42254807D02*
X102185714Y-42302426D01*
X102185714Y-42302426D02*
X102233333Y-42350045D01*
X103185714Y-43254807D02*
X102614286Y-43254807D01*
X102900000Y-43254807D02*
X102900000Y-42254807D01*
X102900000Y-42254807D02*
X102804762Y-42397664D01*
X102804762Y-42397664D02*
X102709524Y-42492902D01*
X102709524Y-42492902D02*
X102614286Y-42540521D01*
X74533333Y-65054819D02*
X74200000Y-64578628D01*
X73961905Y-65054819D02*
X73961905Y-64054819D01*
X73961905Y-64054819D02*
X74342857Y-64054819D01*
X74342857Y-64054819D02*
X74438095Y-64102438D01*
X74438095Y-64102438D02*
X74485714Y-64150057D01*
X74485714Y-64150057D02*
X74533333Y-64245295D01*
X74533333Y-64245295D02*
X74533333Y-64388152D01*
X74533333Y-64388152D02*
X74485714Y-64483390D01*
X74485714Y-64483390D02*
X74438095Y-64531009D01*
X74438095Y-64531009D02*
X74342857Y-64578628D01*
X74342857Y-64578628D02*
X73961905Y-64578628D01*
X75104762Y-64483390D02*
X75009524Y-64435771D01*
X75009524Y-64435771D02*
X74961905Y-64388152D01*
X74961905Y-64388152D02*
X74914286Y-64292914D01*
X74914286Y-64292914D02*
X74914286Y-64245295D01*
X74914286Y-64245295D02*
X74961905Y-64150057D01*
X74961905Y-64150057D02*
X75009524Y-64102438D01*
X75009524Y-64102438D02*
X75104762Y-64054819D01*
X75104762Y-64054819D02*
X75295238Y-64054819D01*
X75295238Y-64054819D02*
X75390476Y-64102438D01*
X75390476Y-64102438D02*
X75438095Y-64150057D01*
X75438095Y-64150057D02*
X75485714Y-64245295D01*
X75485714Y-64245295D02*
X75485714Y-64292914D01*
X75485714Y-64292914D02*
X75438095Y-64388152D01*
X75438095Y-64388152D02*
X75390476Y-64435771D01*
X75390476Y-64435771D02*
X75295238Y-64483390D01*
X75295238Y-64483390D02*
X75104762Y-64483390D01*
X75104762Y-64483390D02*
X75009524Y-64531009D01*
X75009524Y-64531009D02*
X74961905Y-64578628D01*
X74961905Y-64578628D02*
X74914286Y-64673866D01*
X74914286Y-64673866D02*
X74914286Y-64864342D01*
X74914286Y-64864342D02*
X74961905Y-64959580D01*
X74961905Y-64959580D02*
X75009524Y-65007200D01*
X75009524Y-65007200D02*
X75104762Y-65054819D01*
X75104762Y-65054819D02*
X75295238Y-65054819D01*
X75295238Y-65054819D02*
X75390476Y-65007200D01*
X75390476Y-65007200D02*
X75438095Y-64959580D01*
X75438095Y-64959580D02*
X75485714Y-64864342D01*
X75485714Y-64864342D02*
X75485714Y-64673866D01*
X75485714Y-64673866D02*
X75438095Y-64578628D01*
X75438095Y-64578628D02*
X75390476Y-64531009D01*
X75390476Y-64531009D02*
X75295238Y-64483390D01*
X63713810Y-42584819D02*
X63713810Y-41584819D01*
X64761428Y-42489580D02*
X64713809Y-42537200D01*
X64713809Y-42537200D02*
X64570952Y-42584819D01*
X64570952Y-42584819D02*
X64475714Y-42584819D01*
X64475714Y-42584819D02*
X64332857Y-42537200D01*
X64332857Y-42537200D02*
X64237619Y-42441961D01*
X64237619Y-42441961D02*
X64190000Y-42346723D01*
X64190000Y-42346723D02*
X64142381Y-42156247D01*
X64142381Y-42156247D02*
X64142381Y-42013390D01*
X64142381Y-42013390D02*
X64190000Y-41822914D01*
X64190000Y-41822914D02*
X64237619Y-41727676D01*
X64237619Y-41727676D02*
X64332857Y-41632438D01*
X64332857Y-41632438D02*
X64475714Y-41584819D01*
X64475714Y-41584819D02*
X64570952Y-41584819D01*
X64570952Y-41584819D02*
X64713809Y-41632438D01*
X64713809Y-41632438D02*
X64761428Y-41680057D01*
X65713809Y-42584819D02*
X65142381Y-42584819D01*
X65428095Y-42584819D02*
X65428095Y-41584819D01*
X65428095Y-41584819D02*
X65332857Y-41727676D01*
X65332857Y-41727676D02*
X65237619Y-41822914D01*
X65237619Y-41822914D02*
X65142381Y-41870533D01*
X52967095Y-59017819D02*
X53538523Y-59017819D01*
X53252809Y-60017819D02*
X53252809Y-59017819D01*
X54443285Y-60017819D02*
X54109952Y-59541628D01*
X53871857Y-60017819D02*
X53871857Y-59017819D01*
X53871857Y-59017819D02*
X54252809Y-59017819D01*
X54252809Y-59017819D02*
X54348047Y-59065438D01*
X54348047Y-59065438D02*
X54395666Y-59113057D01*
X54395666Y-59113057D02*
X54443285Y-59208295D01*
X54443285Y-59208295D02*
X54443285Y-59351152D01*
X54443285Y-59351152D02*
X54395666Y-59446390D01*
X54395666Y-59446390D02*
X54348047Y-59494009D01*
X54348047Y-59494009D02*
X54252809Y-59541628D01*
X54252809Y-59541628D02*
X53871857Y-59541628D01*
X54824238Y-59113057D02*
X54871857Y-59065438D01*
X54871857Y-59065438D02*
X54967095Y-59017819D01*
X54967095Y-59017819D02*
X55205190Y-59017819D01*
X55205190Y-59017819D02*
X55300428Y-59065438D01*
X55300428Y-59065438D02*
X55348047Y-59113057D01*
X55348047Y-59113057D02*
X55395666Y-59208295D01*
X55395666Y-59208295D02*
X55395666Y-59303533D01*
X55395666Y-59303533D02*
X55348047Y-59446390D01*
X55348047Y-59446390D02*
X54776619Y-60017819D01*
X54776619Y-60017819D02*
X55395666Y-60017819D01*
X57633333Y-69559580D02*
X57585714Y-69607200D01*
X57585714Y-69607200D02*
X57442857Y-69654819D01*
X57442857Y-69654819D02*
X57347619Y-69654819D01*
X57347619Y-69654819D02*
X57204762Y-69607200D01*
X57204762Y-69607200D02*
X57109524Y-69511961D01*
X57109524Y-69511961D02*
X57061905Y-69416723D01*
X57061905Y-69416723D02*
X57014286Y-69226247D01*
X57014286Y-69226247D02*
X57014286Y-69083390D01*
X57014286Y-69083390D02*
X57061905Y-68892914D01*
X57061905Y-68892914D02*
X57109524Y-68797676D01*
X57109524Y-68797676D02*
X57204762Y-68702438D01*
X57204762Y-68702438D02*
X57347619Y-68654819D01*
X57347619Y-68654819D02*
X57442857Y-68654819D01*
X57442857Y-68654819D02*
X57585714Y-68702438D01*
X57585714Y-68702438D02*
X57633333Y-68750057D01*
X57966667Y-68654819D02*
X58585714Y-68654819D01*
X58585714Y-68654819D02*
X58252381Y-69035771D01*
X58252381Y-69035771D02*
X58395238Y-69035771D01*
X58395238Y-69035771D02*
X58490476Y-69083390D01*
X58490476Y-69083390D02*
X58538095Y-69131009D01*
X58538095Y-69131009D02*
X58585714Y-69226247D01*
X58585714Y-69226247D02*
X58585714Y-69464342D01*
X58585714Y-69464342D02*
X58538095Y-69559580D01*
X58538095Y-69559580D02*
X58490476Y-69607200D01*
X58490476Y-69607200D02*
X58395238Y-69654819D01*
X58395238Y-69654819D02*
X58109524Y-69654819D01*
X58109524Y-69654819D02*
X58014286Y-69607200D01*
X58014286Y-69607200D02*
X57966667Y-69559580D01*
X80233333Y-45254819D02*
X79900000Y-44778628D01*
X79661905Y-45254819D02*
X79661905Y-44254819D01*
X79661905Y-44254819D02*
X80042857Y-44254819D01*
X80042857Y-44254819D02*
X80138095Y-44302438D01*
X80138095Y-44302438D02*
X80185714Y-44350057D01*
X80185714Y-44350057D02*
X80233333Y-44445295D01*
X80233333Y-44445295D02*
X80233333Y-44588152D01*
X80233333Y-44588152D02*
X80185714Y-44683390D01*
X80185714Y-44683390D02*
X80138095Y-44731009D01*
X80138095Y-44731009D02*
X80042857Y-44778628D01*
X80042857Y-44778628D02*
X79661905Y-44778628D01*
X81090476Y-44588152D02*
X81090476Y-45254819D01*
X80852381Y-44207200D02*
X80614286Y-44921485D01*
X80614286Y-44921485D02*
X81233333Y-44921485D01*
X97654819Y-48688094D02*
X96654819Y-48688094D01*
X96654819Y-48688094D02*
X96654819Y-48449999D01*
X96654819Y-48449999D02*
X96702438Y-48307142D01*
X96702438Y-48307142D02*
X96797676Y-48211904D01*
X96797676Y-48211904D02*
X96892914Y-48164285D01*
X96892914Y-48164285D02*
X97083390Y-48116666D01*
X97083390Y-48116666D02*
X97226247Y-48116666D01*
X97226247Y-48116666D02*
X97416723Y-48164285D01*
X97416723Y-48164285D02*
X97511961Y-48211904D01*
X97511961Y-48211904D02*
X97607200Y-48307142D01*
X97607200Y-48307142D02*
X97654819Y-48449999D01*
X97654819Y-48449999D02*
X97654819Y-48688094D01*
X97559580Y-47116666D02*
X97607200Y-47164285D01*
X97607200Y-47164285D02*
X97654819Y-47307142D01*
X97654819Y-47307142D02*
X97654819Y-47402380D01*
X97654819Y-47402380D02*
X97607200Y-47545237D01*
X97607200Y-47545237D02*
X97511961Y-47640475D01*
X97511961Y-47640475D02*
X97416723Y-47688094D01*
X97416723Y-47688094D02*
X97226247Y-47735713D01*
X97226247Y-47735713D02*
X97083390Y-47735713D01*
X97083390Y-47735713D02*
X96892914Y-47688094D01*
X96892914Y-47688094D02*
X96797676Y-47640475D01*
X96797676Y-47640475D02*
X96702438Y-47545237D01*
X96702438Y-47545237D02*
X96654819Y-47402380D01*
X96654819Y-47402380D02*
X96654819Y-47307142D01*
X96654819Y-47307142D02*
X96702438Y-47164285D01*
X96702438Y-47164285D02*
X96750057Y-47116666D01*
X96988152Y-46259523D02*
X97654819Y-46259523D01*
X96607200Y-46497618D02*
X97321485Y-46735713D01*
X97321485Y-46735713D02*
X97321485Y-46116666D01*
X56161905Y-83654819D02*
X56161905Y-82654819D01*
X56161905Y-82654819D02*
X56400000Y-82654819D01*
X56400000Y-82654819D02*
X56542857Y-82702438D01*
X56542857Y-82702438D02*
X56638095Y-82797676D01*
X56638095Y-82797676D02*
X56685714Y-82892914D01*
X56685714Y-82892914D02*
X56733333Y-83083390D01*
X56733333Y-83083390D02*
X56733333Y-83226247D01*
X56733333Y-83226247D02*
X56685714Y-83416723D01*
X56685714Y-83416723D02*
X56638095Y-83511961D01*
X56638095Y-83511961D02*
X56542857Y-83607200D01*
X56542857Y-83607200D02*
X56400000Y-83654819D01*
X56400000Y-83654819D02*
X56161905Y-83654819D01*
X57114286Y-82750057D02*
X57161905Y-82702438D01*
X57161905Y-82702438D02*
X57257143Y-82654819D01*
X57257143Y-82654819D02*
X57495238Y-82654819D01*
X57495238Y-82654819D02*
X57590476Y-82702438D01*
X57590476Y-82702438D02*
X57638095Y-82750057D01*
X57638095Y-82750057D02*
X57685714Y-82845295D01*
X57685714Y-82845295D02*
X57685714Y-82940533D01*
X57685714Y-82940533D02*
X57638095Y-83083390D01*
X57638095Y-83083390D02*
X57066667Y-83654819D01*
X57066667Y-83654819D02*
X57685714Y-83654819D01*
X134454819Y-48138094D02*
X133454819Y-48138094D01*
X133454819Y-48138094D02*
X133454819Y-47899999D01*
X133454819Y-47899999D02*
X133502438Y-47757142D01*
X133502438Y-47757142D02*
X133597676Y-47661904D01*
X133597676Y-47661904D02*
X133692914Y-47614285D01*
X133692914Y-47614285D02*
X133883390Y-47566666D01*
X133883390Y-47566666D02*
X134026247Y-47566666D01*
X134026247Y-47566666D02*
X134216723Y-47614285D01*
X134216723Y-47614285D02*
X134311961Y-47661904D01*
X134311961Y-47661904D02*
X134407200Y-47757142D01*
X134407200Y-47757142D02*
X134454819Y-47899999D01*
X134454819Y-47899999D02*
X134454819Y-48138094D01*
X134359580Y-46566666D02*
X134407200Y-46614285D01*
X134407200Y-46614285D02*
X134454819Y-46757142D01*
X134454819Y-46757142D02*
X134454819Y-46852380D01*
X134454819Y-46852380D02*
X134407200Y-46995237D01*
X134407200Y-46995237D02*
X134311961Y-47090475D01*
X134311961Y-47090475D02*
X134216723Y-47138094D01*
X134216723Y-47138094D02*
X134026247Y-47185713D01*
X134026247Y-47185713D02*
X133883390Y-47185713D01*
X133883390Y-47185713D02*
X133692914Y-47138094D01*
X133692914Y-47138094D02*
X133597676Y-47090475D01*
X133597676Y-47090475D02*
X133502438Y-46995237D01*
X133502438Y-46995237D02*
X133454819Y-46852380D01*
X133454819Y-46852380D02*
X133454819Y-46757142D01*
X133454819Y-46757142D02*
X133502438Y-46614285D01*
X133502438Y-46614285D02*
X133550057Y-46566666D01*
X133454819Y-46233332D02*
X133454819Y-45614285D01*
X133454819Y-45614285D02*
X133835771Y-45947618D01*
X133835771Y-45947618D02*
X133835771Y-45804761D01*
X133835771Y-45804761D02*
X133883390Y-45709523D01*
X133883390Y-45709523D02*
X133931009Y-45661904D01*
X133931009Y-45661904D02*
X134026247Y-45614285D01*
X134026247Y-45614285D02*
X134264342Y-45614285D01*
X134264342Y-45614285D02*
X134359580Y-45661904D01*
X134359580Y-45661904D02*
X134407200Y-45709523D01*
X134407200Y-45709523D02*
X134454819Y-45804761D01*
X134454819Y-45804761D02*
X134454819Y-46090475D01*
X134454819Y-46090475D02*
X134407200Y-46185713D01*
X134407200Y-46185713D02*
X134359580Y-46233332D01*
X76633333Y-45254819D02*
X76300000Y-44778628D01*
X76061905Y-45254819D02*
X76061905Y-44254819D01*
X76061905Y-44254819D02*
X76442857Y-44254819D01*
X76442857Y-44254819D02*
X76538095Y-44302438D01*
X76538095Y-44302438D02*
X76585714Y-44350057D01*
X76585714Y-44350057D02*
X76633333Y-44445295D01*
X76633333Y-44445295D02*
X76633333Y-44588152D01*
X76633333Y-44588152D02*
X76585714Y-44683390D01*
X76585714Y-44683390D02*
X76538095Y-44731009D01*
X76538095Y-44731009D02*
X76442857Y-44778628D01*
X76442857Y-44778628D02*
X76061905Y-44778628D01*
X76966667Y-44254819D02*
X77585714Y-44254819D01*
X77585714Y-44254819D02*
X77252381Y-44635771D01*
X77252381Y-44635771D02*
X77395238Y-44635771D01*
X77395238Y-44635771D02*
X77490476Y-44683390D01*
X77490476Y-44683390D02*
X77538095Y-44731009D01*
X77538095Y-44731009D02*
X77585714Y-44826247D01*
X77585714Y-44826247D02*
X77585714Y-45064342D01*
X77585714Y-45064342D02*
X77538095Y-45159580D01*
X77538095Y-45159580D02*
X77490476Y-45207200D01*
X77490476Y-45207200D02*
X77395238Y-45254819D01*
X77395238Y-45254819D02*
X77109524Y-45254819D01*
X77109524Y-45254819D02*
X77014286Y-45207200D01*
X77014286Y-45207200D02*
X76966667Y-45159580D01*
X51033333Y-45254819D02*
X50700000Y-44778628D01*
X50461905Y-45254819D02*
X50461905Y-44254819D01*
X50461905Y-44254819D02*
X50842857Y-44254819D01*
X50842857Y-44254819D02*
X50938095Y-44302438D01*
X50938095Y-44302438D02*
X50985714Y-44350057D01*
X50985714Y-44350057D02*
X51033333Y-44445295D01*
X51033333Y-44445295D02*
X51033333Y-44588152D01*
X51033333Y-44588152D02*
X50985714Y-44683390D01*
X50985714Y-44683390D02*
X50938095Y-44731009D01*
X50938095Y-44731009D02*
X50842857Y-44778628D01*
X50842857Y-44778628D02*
X50461905Y-44778628D01*
X51985714Y-45254819D02*
X51414286Y-45254819D01*
X51700000Y-45254819D02*
X51700000Y-44254819D01*
X51700000Y-44254819D02*
X51604762Y-44397676D01*
X51604762Y-44397676D02*
X51509524Y-44492914D01*
X51509524Y-44492914D02*
X51414286Y-44540533D01*
D14*
G04 #@! TO.C,IC4*
X61710000Y-64790000D02*
X61710000Y-82690000D01*
X61710000Y-82690000D02*
X67010000Y-82690000D01*
X63360000Y-64790000D02*
X61710000Y-64790000D01*
X67010000Y-64790000D02*
X65360000Y-64790000D01*
X67010000Y-82690000D02*
X67010000Y-64790000D01*
X63360000Y-64790000D02*
G75*
G03*
X65360000Y-64790000I1000000J0D01*
G01*
G04 #@! TO.C,D1*
X49445000Y-83735000D02*
X46355000Y-83735000D01*
X47899538Y-89284999D02*
G75*
G03*
X49444830Y-83735001I462J2989999D01*
G01*
X46355170Y-83735000D02*
G75*
G03*
X47900462Y-89285000I1544830J-2560000D01*
G01*
X50400000Y-86295000D02*
G75*
G03*
X45400000Y-86295000I-2500000J0D01*
G01*
X45400000Y-86295000D02*
G75*
G03*
X50400000Y-86295000I2500000J0D01*
G01*
G04 #@! TO.C,IC3*
X114698000Y-43501000D02*
X114698000Y-79181000D01*
X114698000Y-79181000D02*
X127618000Y-79181000D01*
X120158000Y-43501000D02*
X114698000Y-43501000D01*
X127618000Y-43501000D02*
X122158000Y-43501000D01*
X127618000Y-79181000D02*
X127618000Y-43501000D01*
X120158000Y-43501000D02*
G75*
G03*
X122158000Y-43501000I1000000J0D01*
G01*
G04 #@! TO.C,DC1*
X72970000Y-65880000D02*
X72655000Y-65880000D01*
X72970000Y-65880000D02*
X72970000Y-71120000D01*
X70545000Y-65880000D02*
X70230000Y-65880000D01*
X70230000Y-65880000D02*
X70230000Y-71120000D01*
X72970000Y-71120000D02*
X72655000Y-71120000D01*
X70545000Y-71120000D02*
X70230000Y-71120000D01*
G04 #@! TO.C,DC2*
X72970000Y-44680000D02*
X72655000Y-44680000D01*
X72970000Y-44680000D02*
X72970000Y-49920000D01*
X70545000Y-44680000D02*
X70230000Y-44680000D01*
X70230000Y-44680000D02*
X70230000Y-49920000D01*
X72970000Y-49920000D02*
X72655000Y-49920000D01*
X70545000Y-49920000D02*
X70230000Y-49920000D01*
G04 #@! TO.C,R2*
X55000000Y-56310000D02*
X55000000Y-55540000D01*
X53630000Y-55540000D02*
X56370000Y-55540000D01*
X56370000Y-55540000D02*
X56370000Y-49000000D01*
X53630000Y-49000000D02*
X53630000Y-55540000D01*
X56370000Y-49000000D02*
X53630000Y-49000000D01*
X55000000Y-48230000D02*
X55000000Y-49000000D01*
G04 #@! TO.C,R5*
X78400000Y-68440000D02*
X78400000Y-69210000D01*
X79770000Y-69210000D02*
X77030000Y-69210000D01*
X77030000Y-69210000D02*
X77030000Y-75750000D01*
X79770000Y-75750000D02*
X79770000Y-69210000D01*
X77030000Y-75750000D02*
X79770000Y-75750000D01*
X78400000Y-76520000D02*
X78400000Y-75750000D01*
G04 #@! TO.C,TR1*
X48620000Y-65200000D02*
X48620000Y-61600000D01*
X44170000Y-63400000D02*
G75*
G03*
X48608478Y-65238478I2600000J0D01*
G01*
X48608478Y-61561522D02*
G75*
G03*
X44170000Y-63400000I-1838478J-1838478D01*
G01*
G04 #@! TO.C,C2*
X105630000Y-49120000D02*
X105945000Y-49120000D01*
X105630000Y-49120000D02*
X105630000Y-43880000D01*
X108055000Y-49120000D02*
X108370000Y-49120000D01*
X108370000Y-49120000D02*
X108370000Y-43880000D01*
X105630000Y-43880000D02*
X105945000Y-43880000D01*
X108055000Y-43880000D02*
X108370000Y-43880000D01*
G04 #@! TO.C,R7*
X54000000Y-80220000D02*
X54000000Y-79450000D01*
X52630000Y-79450000D02*
X55370000Y-79450000D01*
X55370000Y-79450000D02*
X55370000Y-72910000D01*
X52630000Y-72910000D02*
X52630000Y-79450000D01*
X55370000Y-72910000D02*
X52630000Y-72910000D01*
X54000000Y-72140000D02*
X54000000Y-72910000D01*
G04 #@! TO.C,IC2*
X87610000Y-43070000D02*
X87610000Y-53350000D01*
X87610000Y-53350000D02*
X92910000Y-53350000D01*
X89260000Y-43070000D02*
X87610000Y-43070000D01*
X92910000Y-43070000D02*
X91260000Y-43070000D01*
X92910000Y-53350000D02*
X92910000Y-43070000D01*
X89260000Y-43070000D02*
G75*
G03*
X91260000Y-43070000I1000000J0D01*
G01*
G04 #@! TO.C,R6*
X47550000Y-80210000D02*
X47550000Y-79440000D01*
X46180000Y-79440000D02*
X48920000Y-79440000D01*
X48920000Y-79440000D02*
X48920000Y-72900000D01*
X46180000Y-72900000D02*
X46180000Y-79440000D01*
X48920000Y-72900000D02*
X46180000Y-72900000D01*
X47550000Y-72130000D02*
X47550000Y-72900000D01*
G04 #@! TO.C,C1*
X100925000Y-49359875D02*
X100925000Y-48859875D01*
X100675000Y-49109875D02*
X101175000Y-49109875D01*
X99820000Y-46555100D02*
X104980000Y-46555100D01*
X99820000Y-46515100D02*
X104980000Y-46515100D01*
X99821000Y-46475100D02*
X104979000Y-46475100D01*
X99822000Y-46435100D02*
X104978000Y-46435100D01*
X99824000Y-46395100D02*
X104976000Y-46395100D01*
X99827000Y-46355100D02*
X104973000Y-46355100D01*
X99831000Y-46315100D02*
X101360000Y-46315100D01*
X103440000Y-46315100D02*
X104969000Y-46315100D01*
X99835000Y-46275100D02*
X101360000Y-46275100D01*
X103440000Y-46275100D02*
X104965000Y-46275100D01*
X99839000Y-46235100D02*
X101360000Y-46235100D01*
X103440000Y-46235100D02*
X104961000Y-46235100D01*
X99844000Y-46195100D02*
X101360000Y-46195100D01*
X103440000Y-46195100D02*
X104956000Y-46195100D01*
X99850000Y-46155100D02*
X101360000Y-46155100D01*
X103440000Y-46155100D02*
X104950000Y-46155100D01*
X99857000Y-46115100D02*
X101360000Y-46115100D01*
X103440000Y-46115100D02*
X104943000Y-46115100D01*
X99864000Y-46075100D02*
X101360000Y-46075100D01*
X103440000Y-46075100D02*
X104936000Y-46075100D01*
X99872000Y-46035100D02*
X101360000Y-46035100D01*
X103440000Y-46035100D02*
X104928000Y-46035100D01*
X99880000Y-45995100D02*
X101360000Y-45995100D01*
X103440000Y-45995100D02*
X104920000Y-45995100D01*
X99889000Y-45955100D02*
X101360000Y-45955100D01*
X103440000Y-45955100D02*
X104911000Y-45955100D01*
X99899000Y-45915100D02*
X101360000Y-45915100D01*
X103440000Y-45915100D02*
X104901000Y-45915100D01*
X99909000Y-45875100D02*
X101360000Y-45875100D01*
X103440000Y-45875100D02*
X104891000Y-45875100D01*
X99920000Y-45834100D02*
X101360000Y-45834100D01*
X103440000Y-45834100D02*
X104880000Y-45834100D01*
X99932000Y-45794100D02*
X101360000Y-45794100D01*
X103440000Y-45794100D02*
X104868000Y-45794100D01*
X99945000Y-45754100D02*
X101360000Y-45754100D01*
X103440000Y-45754100D02*
X104855000Y-45754100D01*
X99958000Y-45714100D02*
X101360000Y-45714100D01*
X103440000Y-45714100D02*
X104842000Y-45714100D01*
X99972000Y-45674100D02*
X101360000Y-45674100D01*
X103440000Y-45674100D02*
X104828000Y-45674100D01*
X99986000Y-45634100D02*
X101360000Y-45634100D01*
X103440000Y-45634100D02*
X104814000Y-45634100D01*
X100002000Y-45594100D02*
X101360000Y-45594100D01*
X103440000Y-45594100D02*
X104798000Y-45594100D01*
X100018000Y-45554100D02*
X101360000Y-45554100D01*
X103440000Y-45554100D02*
X104782000Y-45554100D01*
X100035000Y-45514100D02*
X101360000Y-45514100D01*
X103440000Y-45514100D02*
X104765000Y-45514100D01*
X100052000Y-45474100D02*
X101360000Y-45474100D01*
X103440000Y-45474100D02*
X104748000Y-45474100D01*
X100071000Y-45434100D02*
X101360000Y-45434100D01*
X103440000Y-45434100D02*
X104729000Y-45434100D01*
X100090000Y-45394100D02*
X101360000Y-45394100D01*
X103440000Y-45394100D02*
X104710000Y-45394100D01*
X100110000Y-45354100D02*
X101360000Y-45354100D01*
X103440000Y-45354100D02*
X104690000Y-45354100D01*
X100132000Y-45314100D02*
X101360000Y-45314100D01*
X103440000Y-45314100D02*
X104668000Y-45314100D01*
X100153000Y-45274100D02*
X101360000Y-45274100D01*
X103440000Y-45274100D02*
X104647000Y-45274100D01*
X100176000Y-45234100D02*
X101360000Y-45234100D01*
X103440000Y-45234100D02*
X104624000Y-45234100D01*
X100200000Y-45194100D02*
X101360000Y-45194100D01*
X103440000Y-45194100D02*
X104600000Y-45194100D01*
X100225000Y-45154100D02*
X101360000Y-45154100D01*
X103440000Y-45154100D02*
X104575000Y-45154100D01*
X100251000Y-45114100D02*
X101360000Y-45114100D01*
X103440000Y-45114100D02*
X104549000Y-45114100D01*
X100278000Y-45074100D02*
X101360000Y-45074100D01*
X103440000Y-45074100D02*
X104522000Y-45074100D01*
X100305000Y-45034100D02*
X101360000Y-45034100D01*
X103440000Y-45034100D02*
X104495000Y-45034100D01*
X100335000Y-44994100D02*
X101360000Y-44994100D01*
X103440000Y-44994100D02*
X104465000Y-44994100D01*
X100365000Y-44954100D02*
X101360000Y-44954100D01*
X103440000Y-44954100D02*
X104435000Y-44954100D01*
X100396000Y-44914100D02*
X101360000Y-44914100D01*
X103440000Y-44914100D02*
X104404000Y-44914100D01*
X100429000Y-44874100D02*
X101360000Y-44874100D01*
X103440000Y-44874100D02*
X104371000Y-44874100D01*
X100463000Y-44834100D02*
X101360000Y-44834100D01*
X103440000Y-44834100D02*
X104337000Y-44834100D01*
X100499000Y-44794100D02*
X101360000Y-44794100D01*
X103440000Y-44794100D02*
X104301000Y-44794100D01*
X100536000Y-44754100D02*
X101360000Y-44754100D01*
X103440000Y-44754100D02*
X104264000Y-44754100D01*
X100574000Y-44714100D02*
X101360000Y-44714100D01*
X103440000Y-44714100D02*
X104226000Y-44714100D01*
X100615000Y-44674100D02*
X101360000Y-44674100D01*
X103440000Y-44674100D02*
X104185000Y-44674100D01*
X100657000Y-44634100D02*
X101360000Y-44634100D01*
X103440000Y-44634100D02*
X104143000Y-44634100D01*
X100701000Y-44594100D02*
X101360000Y-44594100D01*
X103440000Y-44594100D02*
X104099000Y-44594100D01*
X100747000Y-44554100D02*
X101360000Y-44554100D01*
X103440000Y-44554100D02*
X104053000Y-44554100D01*
X100795000Y-44514100D02*
X101360000Y-44514100D01*
X103440000Y-44514100D02*
X104005000Y-44514100D01*
X100846000Y-44474100D02*
X101360000Y-44474100D01*
X103440000Y-44474100D02*
X103954000Y-44474100D01*
X100900000Y-44434100D02*
X101360000Y-44434100D01*
X103440000Y-44434100D02*
X103900000Y-44434100D01*
X100957000Y-44394100D02*
X101360000Y-44394100D01*
X103440000Y-44394100D02*
X103843000Y-44394100D01*
X101017000Y-44354100D02*
X101360000Y-44354100D01*
X103440000Y-44354100D02*
X103783000Y-44354100D01*
X101081000Y-44314100D02*
X101360000Y-44314100D01*
X103440000Y-44314100D02*
X103719000Y-44314100D01*
X101149000Y-44274100D02*
X101360000Y-44274100D01*
X103440000Y-44274100D02*
X103651000Y-44274100D01*
X101222000Y-44234100D02*
X103578000Y-44234100D01*
X101302000Y-44194100D02*
X103498000Y-44194100D01*
X101389000Y-44154100D02*
X103411000Y-44154100D01*
X101485000Y-44114100D02*
X103315000Y-44114100D01*
X101595000Y-44074100D02*
X103205000Y-44074100D01*
X101723000Y-44034100D02*
X103077000Y-44034100D01*
X101882000Y-43994100D02*
X102918000Y-43994100D01*
X102116000Y-43954100D02*
X102684000Y-43954100D01*
X105020000Y-46555100D02*
G75*
G03*
X99780000Y-46555100I-2620000J0D01*
G01*
X99780000Y-46555100D02*
G75*
G03*
X105020000Y-46555100I2620000J0D01*
G01*
G04 #@! TO.C,R8*
X74700000Y-76520000D02*
X74700000Y-75750000D01*
X73330000Y-75750000D02*
X76070000Y-75750000D01*
X76070000Y-75750000D02*
X76070000Y-69210000D01*
X73330000Y-69210000D02*
X73330000Y-75750000D01*
X76070000Y-69210000D02*
X73330000Y-69210000D01*
X74700000Y-68440000D02*
X74700000Y-69210000D01*
G04 #@! TO.C,IC1*
X62040000Y-43130000D02*
X62040000Y-61030000D01*
X62040000Y-61030000D02*
X67340000Y-61030000D01*
X63690000Y-43130000D02*
X62040000Y-43130000D01*
X67340000Y-43130000D02*
X65690000Y-43130000D01*
X67340000Y-61030000D02*
X67340000Y-43130000D01*
X63690000Y-43130000D02*
G75*
G03*
X65690000Y-43130000I1000000J0D01*
G01*
G04 #@! TO.C,TR2*
X56150000Y-64970000D02*
X56150000Y-61370000D01*
X51700000Y-63170000D02*
G75*
G03*
X56138478Y-65008478I2600000J0D01*
G01*
X56138478Y-61331522D02*
G75*
G03*
X51700000Y-63170000I-1838478J-1838478D01*
G01*
G04 #@! TO.C,C3*
X59170000Y-70980000D02*
X58855000Y-70980000D01*
X59170000Y-70980000D02*
X59170000Y-76220000D01*
X56745000Y-70980000D02*
X56430000Y-70980000D01*
X56430000Y-70980000D02*
X56430000Y-76220000D01*
X59170000Y-76220000D02*
X58855000Y-76220000D01*
X56745000Y-76220000D02*
X56430000Y-76220000D01*
G04 #@! TO.C,R4*
X80400000Y-56160000D02*
X80400000Y-55390000D01*
X79030000Y-55390000D02*
X81770000Y-55390000D01*
X81770000Y-55390000D02*
X81770000Y-48850000D01*
X79030000Y-48850000D02*
X79030000Y-55390000D01*
X81770000Y-48850000D02*
X79030000Y-48850000D01*
X80400000Y-48080000D02*
X80400000Y-48850000D01*
G04 #@! TO.C,DC4*
X98570000Y-44780000D02*
X98255000Y-44780000D01*
X98570000Y-44780000D02*
X98570000Y-50020000D01*
X96145000Y-44780000D02*
X95830000Y-44780000D01*
X95830000Y-44780000D02*
X95830000Y-50020000D01*
X98570000Y-50020000D02*
X98255000Y-50020000D01*
X96145000Y-50020000D02*
X95830000Y-50020000D01*
G04 #@! TO.C,D2*
X56245000Y-83935000D02*
X53155000Y-83935000D01*
X54699538Y-89484999D02*
G75*
G03*
X56244830Y-83935001I462J2989999D01*
G01*
X53155170Y-83935000D02*
G75*
G03*
X54700462Y-89485000I1544830J-2560000D01*
G01*
X57200000Y-86495000D02*
G75*
G03*
X52200000Y-86495000I-2500000J0D01*
G01*
X52200000Y-86495000D02*
G75*
G03*
X57200000Y-86495000I2500000J0D01*
G01*
G04 #@! TO.C,DC3*
X135370000Y-44280000D02*
X135055000Y-44280000D01*
X135370000Y-44280000D02*
X135370000Y-49520000D01*
X132945000Y-44280000D02*
X132630000Y-44280000D01*
X132630000Y-44280000D02*
X132630000Y-49520000D01*
X135370000Y-49520000D02*
X135055000Y-49520000D01*
X132945000Y-49520000D02*
X132630000Y-49520000D01*
G04 #@! TO.C,R3*
X76750000Y-56210000D02*
X76750000Y-55440000D01*
X75380000Y-55440000D02*
X78120000Y-55440000D01*
X78120000Y-55440000D02*
X78120000Y-48900000D01*
X75380000Y-48900000D02*
X75380000Y-55440000D01*
X78120000Y-48900000D02*
X75380000Y-48900000D01*
X76750000Y-48130000D02*
X76750000Y-48900000D01*
G04 #@! TO.C,R1*
X51250000Y-56210000D02*
X51250000Y-55440000D01*
X49880000Y-55440000D02*
X52620000Y-55440000D01*
X52620000Y-55440000D02*
X52620000Y-48900000D01*
X49880000Y-48900000D02*
X49880000Y-55440000D01*
X52620000Y-48900000D02*
X49880000Y-48900000D01*
X51250000Y-48130000D02*
X51250000Y-48900000D01*
G04 #@! TD*
M02*
