M48
; DRILL file {KiCad 7.0.10-unknown-202401271548~13fcb571f7~ubuntu23.10.1} date Sun 28 Jan 2024 11:57:13 GMT
; FORMAT={-:-/ absolute / inch / decimal}
; #@! TF.CreationDate,2024-01-28T11:57:13+00:00
; #@! TF.GenerationSoftware,Kicad,Pcbnew,7.0.10-unknown-202401271548~13fcb571f7~ubuntu23.10.1
; #@! TF.FileFunction,Plated,1,2,PTH
FMAT,2
INCH
; #@! TA.AperFunction,Plated,PTH,ViaDrill
T1C0.0157
; #@! TA.AperFunction,Plated,PTH,ComponentDrill
T2C0.0295
; #@! TA.AperFunction,Plated,PTH,ComponentDrill
T3C0.0315
; #@! TA.AperFunction,Plated,PTH,ComponentDrill
T4C0.0354
%
G90
G05
T1
X2.9055Y-3.6417
X2.9583Y-3.6192
X3.2087Y-3.4764
X3.2939Y-2.765
X3.3779Y-2.6967
X3.4495Y-3.2802
X3.5059Y-2.8182
X3.5827Y-2.6378
X3.5939Y-3.4264
X3.7461Y-3.6109
X3.8506Y-3.3423
X3.8716Y-3.2751
X3.9639Y-3.2227
X4.145Y-3.57
X4.6416Y-2.7528
T2
X1.7913Y-2.4961
X1.8413Y-2.4461
X1.8413Y-2.5461
X2.0878Y-2.487
X2.1378Y-2.437
X2.1378Y-2.537
T3
X1.872Y-2.7988
X1.872Y-3.1988
X2.0177Y-1.8539
X2.0177Y-2.2539
X2.126Y-2.7992
X2.126Y-3.1992
X2.1654Y-1.8579
X2.1654Y-2.2579
X2.2756Y-2.7992
X2.2756Y-2.9961
X2.3839Y-2.6031
X2.3839Y-2.7031
X2.3839Y-2.8031
X2.3839Y-2.9031
X2.3839Y-3.0031
X2.3839Y-3.1031
X2.3839Y-3.2031
X2.3969Y-1.7504
X2.3969Y-1.8504
X2.3969Y-1.9504
X2.3969Y-2.0504
X2.3969Y-2.1504
X2.3969Y-2.2504
X2.3969Y-2.3504
X2.6839Y-2.6031
X2.6839Y-2.7031
X2.6839Y-2.8031
X2.6839Y-2.9031
X2.6839Y-3.0031
X2.6839Y-3.1031
X2.6839Y-3.2031
X2.6969Y-1.7504
X2.6969Y-1.8504
X2.6969Y-1.9504
X2.6969Y-2.0504
X2.6969Y-2.1504
X2.6969Y-2.2504
X2.6969Y-2.3504
X2.8189Y-1.7638
X2.8189Y-1.9606
X2.8189Y-2.5984
X2.8189Y-2.7953
X2.9409Y-2.6535
X2.9409Y-3.0535
X3.0217Y-1.8539
X3.0217Y-2.2539
X3.0866Y-2.6535
X3.0866Y-3.0535
X3.1654Y-1.852
X3.1654Y-2.252
X3.4035Y-1.748
X3.4035Y-1.848
X3.4035Y-1.948
X3.4035Y-2.048
X3.7035Y-1.748
X3.7035Y-1.848
X3.7035Y-1.948
X3.7035Y-2.048
X3.8268Y-1.7677
X3.8268Y-1.9646
X4.0315Y-1.7837
X4.0315Y-1.8821
X4.2126Y-1.7323
X4.2126Y-1.9291
X4.47Y-1.765
X4.47Y-1.865
X4.47Y-1.965
X4.47Y-2.065
X4.47Y-2.165
X4.47Y-2.265
X4.47Y-2.365
X4.47Y-2.465
X4.47Y-2.565
X4.47Y-2.665
X4.47Y-2.765
X4.47Y-2.865
X4.47Y-2.965
X4.47Y-3.065
X5.07Y-1.765
X5.07Y-1.865
X5.07Y-1.965
X5.07Y-2.065
X5.07Y-2.165
X5.07Y-2.265
X5.07Y-2.365
X5.07Y-2.465
X5.07Y-2.565
X5.07Y-2.665
X5.07Y-2.765
X5.07Y-2.865
X5.07Y-2.965
X5.07Y-3.065
X5.2756Y-1.748
X5.2756Y-1.9449
T4
X1.8858Y-3.3474
X1.8858Y-3.4474
X2.1535Y-3.3553
X2.1535Y-3.4553
M30
