G04 #@! TF.GenerationSoftware,KiCad,Pcbnew,7.0.10-unknown-202401271548~13fcb571f7~ubuntu23.10.1*
G04 #@! TF.CreationDate,2024-01-28T11:57:11+00:00*
G04 #@! TF.ProjectId,Dragon 32 Soak Test Cartridge,44726167-6f6e-4203-9332-20536f616b20,1.0*
G04 #@! TF.SameCoordinates,Original*
G04 #@! TF.FileFunction,Soldermask,Top*
G04 #@! TF.FilePolarity,Negative*
%FSLAX46Y46*%
G04 Gerber Fmt 4.6, Leading zero omitted, Abs format (unit mm)*
G04 Created by KiCad (PCBNEW 7.0.10-unknown-202401271548~13fcb571f7~ubuntu23.10.1) date 2024-01-28 11:57:11*
%MOMM*%
%LPD*%
G01*
G04 APERTURE LIST*
%ADD10R,1.600000X1.600000*%
%ADD11O,1.600000X1.600000*%
%ADD12R,1.800000X13.200000*%
%ADD13R,1.800000X1.800000*%
%ADD14C,1.800000*%
%ADD15C,1.600000*%
%ADD16R,1.300000X1.300000*%
%ADD17C,1.300000*%
%ADD18C,5.300000*%
G04 APERTURE END LIST*
D10*
G04 #@! TO.C,IC4*
X60550000Y-66120000D03*
D11*
X60550000Y-68660000D03*
X60550000Y-71200000D03*
X60550000Y-73740000D03*
X60550000Y-76280000D03*
X60550000Y-78820000D03*
X60550000Y-81360000D03*
X68170000Y-81360000D03*
X68170000Y-78820000D03*
X68170000Y-76280000D03*
X68170000Y-73740000D03*
X68170000Y-71200000D03*
X68170000Y-68660000D03*
X68170000Y-66120000D03*
G04 #@! TD*
D12*
G04 #@! TO.C,U2*
X66200000Y-99850000D03*
X68750000Y-99850000D03*
X71300000Y-99850000D03*
X73850000Y-99850000D03*
X76400000Y-99850000D03*
X78950000Y-99850000D03*
X81500000Y-99850000D03*
X84050000Y-99850000D03*
X86600000Y-99850000D03*
X89150000Y-99850000D03*
X91700000Y-99850000D03*
X94250000Y-99850000D03*
X96800000Y-99850000D03*
X99350000Y-99850000D03*
X101900000Y-99850000D03*
X104450000Y-99850000D03*
X107000000Y-99850000D03*
X109550000Y-99850000D03*
X112100000Y-99850000D03*
X114650000Y-99850000D03*
G04 #@! TD*
D13*
G04 #@! TO.C,D1*
X47900000Y-85025000D03*
D14*
X47900000Y-87565000D03*
G04 #@! TD*
D10*
G04 #@! TO.C,IC3*
X113538000Y-44831000D03*
D11*
X113538000Y-47371000D03*
X113538000Y-49911000D03*
X113538000Y-52451000D03*
X113538000Y-54991000D03*
X113538000Y-57531000D03*
X113538000Y-60071000D03*
X113538000Y-62611000D03*
X113538000Y-65151000D03*
X113538000Y-67691000D03*
X113538000Y-70231000D03*
X113538000Y-72771000D03*
X113538000Y-75311000D03*
X113538000Y-77851000D03*
X128778000Y-77851000D03*
X128778000Y-75311000D03*
X128778000Y-72771000D03*
X128778000Y-70231000D03*
X128778000Y-67691000D03*
X128778000Y-65151000D03*
X128778000Y-62611000D03*
X128778000Y-60071000D03*
X128778000Y-57531000D03*
X128778000Y-54991000D03*
X128778000Y-52451000D03*
X128778000Y-49911000D03*
X128778000Y-47371000D03*
X128778000Y-44831000D03*
G04 #@! TD*
D15*
G04 #@! TO.C,DC1*
X71600000Y-66000000D03*
X71600000Y-71000000D03*
G04 #@! TD*
G04 #@! TO.C,DC2*
X71600000Y-44800000D03*
X71600000Y-49800000D03*
G04 #@! TD*
G04 #@! TO.C,R2*
X55000000Y-57350000D03*
D11*
X55000000Y-47190000D03*
G04 #@! TD*
D15*
G04 #@! TO.C,R5*
X78400000Y-67400000D03*
D11*
X78400000Y-77560000D03*
G04 #@! TD*
D16*
G04 #@! TO.C,TR1*
X46770000Y-64670000D03*
D17*
X45500000Y-63400000D03*
X46770000Y-62130000D03*
G04 #@! TD*
D18*
G04 #@! TO.C,REF\u002A\u002A*
X86850000Y-58100000D03*
G04 #@! TD*
D15*
G04 #@! TO.C,C2*
X107000000Y-49000000D03*
X107000000Y-44000000D03*
G04 #@! TD*
G04 #@! TO.C,R7*
X54000000Y-81260000D03*
D11*
X54000000Y-71100000D03*
G04 #@! TD*
D10*
G04 #@! TO.C,IC2*
X86450000Y-44400000D03*
D11*
X86450000Y-46940000D03*
X86450000Y-49480000D03*
X86450000Y-52020000D03*
X94070000Y-52020000D03*
X94070000Y-49480000D03*
X94070000Y-46940000D03*
X94070000Y-44400000D03*
G04 #@! TD*
D15*
G04 #@! TO.C,R6*
X47550000Y-81250000D03*
D11*
X47550000Y-71090000D03*
G04 #@! TD*
D10*
G04 #@! TO.C,C1*
X102400000Y-47805100D03*
D15*
X102400000Y-45305100D03*
G04 #@! TD*
G04 #@! TO.C,R8*
X74700000Y-77560000D03*
D11*
X74700000Y-67400000D03*
G04 #@! TD*
D10*
G04 #@! TO.C,IC1*
X60880000Y-44460000D03*
D11*
X60880000Y-47000000D03*
X60880000Y-49540000D03*
X60880000Y-52080000D03*
X60880000Y-54620000D03*
X60880000Y-57160000D03*
X60880000Y-59700000D03*
X68500000Y-59700000D03*
X68500000Y-57160000D03*
X68500000Y-54620000D03*
X68500000Y-52080000D03*
X68500000Y-49540000D03*
X68500000Y-47000000D03*
X68500000Y-44460000D03*
G04 #@! TD*
D16*
G04 #@! TO.C,TR2*
X54300000Y-64440000D03*
D17*
X53030000Y-63170000D03*
X54300000Y-61900000D03*
G04 #@! TD*
D15*
G04 #@! TO.C,C3*
X57800000Y-71100000D03*
X57800000Y-76100000D03*
G04 #@! TD*
G04 #@! TO.C,R4*
X80400000Y-57200000D03*
D11*
X80400000Y-47040000D03*
G04 #@! TD*
D15*
G04 #@! TO.C,DC4*
X97200000Y-44900000D03*
X97200000Y-49900000D03*
G04 #@! TD*
D13*
G04 #@! TO.C,D2*
X54700000Y-85225000D03*
D14*
X54700000Y-87765000D03*
G04 #@! TD*
D15*
G04 #@! TO.C,DC3*
X134000000Y-44400000D03*
X134000000Y-49400000D03*
G04 #@! TD*
G04 #@! TO.C,R3*
X76750000Y-57250000D03*
D11*
X76750000Y-47090000D03*
G04 #@! TD*
D15*
G04 #@! TO.C,R1*
X51250000Y-57250000D03*
D11*
X51250000Y-47090000D03*
G04 #@! TD*
M02*
