G04 #@! TF.GenerationSoftware,KiCad,Pcbnew,7.0.10-unknown-202401271548~13fcb571f7~ubuntu23.10.1*
G04 #@! TF.CreationDate,2024-01-28T11:57:11+00:00*
G04 #@! TF.ProjectId,Dragon 32 Soak Test Cartridge,44726167-6f6e-4203-9332-20536f616b20,1.0*
G04 #@! TF.SameCoordinates,Original*
G04 #@! TF.FileFunction,Copper,L2,Bot*
G04 #@! TF.FilePolarity,Positive*
%FSLAX46Y46*%
G04 Gerber Fmt 4.6, Leading zero omitted, Abs format (unit mm)*
G04 Created by KiCad (PCBNEW 7.0.10-unknown-202401271548~13fcb571f7~ubuntu23.10.1) date 2024-01-28 11:57:11*
%MOMM*%
%LPD*%
G01*
G04 APERTURE LIST*
%ADD10C,0.125000*%
G04 #@! TA.AperFunction,NonConductor*
%ADD11C,0.125000*%
G04 #@! TD*
G04 #@! TA.AperFunction,ComponentPad*
%ADD12R,1.600000X1.600000*%
G04 #@! TD*
G04 #@! TA.AperFunction,ComponentPad*
%ADD13O,1.600000X1.600000*%
G04 #@! TD*
G04 #@! TA.AperFunction,SMDPad,CuDef*
%ADD14R,1.800000X13.200000*%
G04 #@! TD*
G04 #@! TA.AperFunction,ComponentPad*
%ADD15R,1.800000X1.800000*%
G04 #@! TD*
G04 #@! TA.AperFunction,ComponentPad*
%ADD16C,1.800000*%
G04 #@! TD*
G04 #@! TA.AperFunction,ComponentPad*
%ADD17C,1.600000*%
G04 #@! TD*
G04 #@! TA.AperFunction,ComponentPad*
%ADD18R,1.300000X1.300000*%
G04 #@! TD*
G04 #@! TA.AperFunction,ComponentPad*
%ADD19C,1.300000*%
G04 #@! TD*
G04 #@! TA.AperFunction,ViaPad*
%ADD20C,0.800000*%
G04 #@! TD*
G04 #@! TA.AperFunction,Conductor*
%ADD21C,0.800000*%
G04 #@! TD*
G04 #@! TA.AperFunction,Conductor*
%ADD22C,0.350000*%
G04 #@! TD*
G04 APERTURE END LIST*
D10*
D11*
X136479668Y-91171119D02*
X136479668Y-90171119D01*
X136479668Y-90171119D02*
X136098716Y-90171119D01*
X136098716Y-90171119D02*
X136003478Y-90218738D01*
X136003478Y-90218738D02*
X135955859Y-90266357D01*
X135955859Y-90266357D02*
X135908240Y-90361595D01*
X135908240Y-90361595D02*
X135908240Y-90504452D01*
X135908240Y-90504452D02*
X135955859Y-90599690D01*
X135955859Y-90599690D02*
X136003478Y-90647309D01*
X136003478Y-90647309D02*
X136098716Y-90694928D01*
X136098716Y-90694928D02*
X136479668Y-90694928D01*
X134908240Y-91075880D02*
X134955859Y-91123500D01*
X134955859Y-91123500D02*
X135098716Y-91171119D01*
X135098716Y-91171119D02*
X135193954Y-91171119D01*
X135193954Y-91171119D02*
X135336811Y-91123500D01*
X135336811Y-91123500D02*
X135432049Y-91028261D01*
X135432049Y-91028261D02*
X135479668Y-90933023D01*
X135479668Y-90933023D02*
X135527287Y-90742547D01*
X135527287Y-90742547D02*
X135527287Y-90599690D01*
X135527287Y-90599690D02*
X135479668Y-90409214D01*
X135479668Y-90409214D02*
X135432049Y-90313976D01*
X135432049Y-90313976D02*
X135336811Y-90218738D01*
X135336811Y-90218738D02*
X135193954Y-90171119D01*
X135193954Y-90171119D02*
X135098716Y-90171119D01*
X135098716Y-90171119D02*
X134955859Y-90218738D01*
X134955859Y-90218738D02*
X134908240Y-90266357D01*
X134146335Y-90647309D02*
X134003478Y-90694928D01*
X134003478Y-90694928D02*
X133955859Y-90742547D01*
X133955859Y-90742547D02*
X133908240Y-90837785D01*
X133908240Y-90837785D02*
X133908240Y-90980642D01*
X133908240Y-90980642D02*
X133955859Y-91075880D01*
X133955859Y-91075880D02*
X134003478Y-91123500D01*
X134003478Y-91123500D02*
X134098716Y-91171119D01*
X134098716Y-91171119D02*
X134479668Y-91171119D01*
X134479668Y-91171119D02*
X134479668Y-90171119D01*
X134479668Y-90171119D02*
X134146335Y-90171119D01*
X134146335Y-90171119D02*
X134051097Y-90218738D01*
X134051097Y-90218738D02*
X134003478Y-90266357D01*
X134003478Y-90266357D02*
X133955859Y-90361595D01*
X133955859Y-90361595D02*
X133955859Y-90456833D01*
X133955859Y-90456833D02*
X134003478Y-90552071D01*
X134003478Y-90552071D02*
X134051097Y-90599690D01*
X134051097Y-90599690D02*
X134146335Y-90647309D01*
X134146335Y-90647309D02*
X134479668Y-90647309D01*
X132193954Y-91171119D02*
X132765382Y-91171119D01*
X132479668Y-91171119D02*
X132479668Y-90171119D01*
X132479668Y-90171119D02*
X132574906Y-90313976D01*
X132574906Y-90313976D02*
X132670144Y-90409214D01*
X132670144Y-90409214D02*
X132765382Y-90456833D01*
X131765382Y-91075880D02*
X131717763Y-91123500D01*
X131717763Y-91123500D02*
X131765382Y-91171119D01*
X131765382Y-91171119D02*
X131813001Y-91123500D01*
X131813001Y-91123500D02*
X131765382Y-91075880D01*
X131765382Y-91075880D02*
X131765382Y-91171119D01*
X131098716Y-90171119D02*
X131003478Y-90171119D01*
X131003478Y-90171119D02*
X130908240Y-90218738D01*
X130908240Y-90218738D02*
X130860621Y-90266357D01*
X130860621Y-90266357D02*
X130813002Y-90361595D01*
X130813002Y-90361595D02*
X130765383Y-90552071D01*
X130765383Y-90552071D02*
X130765383Y-90790166D01*
X130765383Y-90790166D02*
X130813002Y-90980642D01*
X130813002Y-90980642D02*
X130860621Y-91075880D01*
X130860621Y-91075880D02*
X130908240Y-91123500D01*
X130908240Y-91123500D02*
X131003478Y-91171119D01*
X131003478Y-91171119D02*
X131098716Y-91171119D01*
X131098716Y-91171119D02*
X131193954Y-91123500D01*
X131193954Y-91123500D02*
X131241573Y-91075880D01*
X131241573Y-91075880D02*
X131289192Y-90980642D01*
X131289192Y-90980642D02*
X131336811Y-90790166D01*
X131336811Y-90790166D02*
X131336811Y-90552071D01*
X131336811Y-90552071D02*
X131289192Y-90361595D01*
X131289192Y-90361595D02*
X131241573Y-90266357D01*
X131241573Y-90266357D02*
X131193954Y-90218738D01*
X131193954Y-90218738D02*
X131098716Y-90171119D01*
D12*
G04 #@! TO.P,IC4,1*
G04 #@! TO.N,Net-(IC1-Pad5)*
X60550000Y-66120000D03*
D13*
G04 #@! TO.P,IC4,2*
G04 #@! TO.N,/RESET*
X60550000Y-68660000D03*
G04 #@! TO.P,IC4,3*
G04 #@! TO.N,Net-(IC4-Pad12)*
X60550000Y-71200000D03*
G04 #@! TO.P,IC4,4*
G04 #@! TO.N,Net-(IC4-Pad4)*
X60550000Y-73740000D03*
G04 #@! TO.P,IC4,5*
G04 #@! TO.N,Net-(C3-Pad2)*
X60550000Y-76280000D03*
G04 #@! TO.P,IC4,6*
G04 #@! TO.N,Net-(IC1-Pad5)*
X60550000Y-78820000D03*
G04 #@! TO.P,IC4,7,GND*
G04 #@! TO.N,GND*
X60550000Y-81360000D03*
G04 #@! TO.P,IC4,8*
G04 #@! TO.N,unconnected-(IC4-Pad8)*
X68170000Y-81360000D03*
G04 #@! TO.P,IC4,9*
G04 #@! TO.N,unconnected-(IC4-Pad9)*
X68170000Y-78820000D03*
G04 #@! TO.P,IC4,10*
G04 #@! TO.N,unconnected-(IC4-Pad10)*
X68170000Y-76280000D03*
G04 #@! TO.P,IC4,11*
G04 #@! TO.N,unconnected-(IC4-Pad11)*
X68170000Y-73740000D03*
G04 #@! TO.P,IC4,12*
G04 #@! TO.N,Net-(IC4-Pad12)*
X68170000Y-71200000D03*
G04 #@! TO.P,IC4,13*
G04 #@! TO.N,/P2*
X68170000Y-68660000D03*
G04 #@! TO.P,IC4,14,VCC*
G04 #@! TO.N,VCC*
X68170000Y-66120000D03*
G04 #@! TD*
D14*
G04 #@! TO.P,U2,2,12V*
G04 #@! TO.N,+12V*
X66200000Y-99850000D03*
G04 #@! TO.P,U2,4,~{NMI}*
G04 #@! TO.N,unconnected-(U2-~{NMI}-Pad4)*
X68750000Y-99850000D03*
G04 #@! TO.P,U2,6,E*
G04 #@! TO.N,unconnected-(U2-E-Pad6)*
X71300000Y-99850000D03*
G04 #@! TO.P,U2,8,CART*
G04 #@! TO.N,Net-(U2-CART)*
X73850000Y-99850000D03*
G04 #@! TO.P,U2,10,D0*
G04 #@! TO.N,/D0*
X76400000Y-99850000D03*
G04 #@! TO.P,U2,12,D2*
G04 #@! TO.N,/D2*
X78950000Y-99850000D03*
G04 #@! TO.P,U2,14,D4*
G04 #@! TO.N,/D4*
X81500000Y-99850000D03*
G04 #@! TO.P,U2,16,D6*
G04 #@! TO.N,/D6*
X84050000Y-99850000D03*
G04 #@! TO.P,U2,18,RW*
G04 #@! TO.N,unconnected-(U2-RW-Pad18)*
X86600000Y-99850000D03*
G04 #@! TO.P,U2,20,A1*
G04 #@! TO.N,/A1*
X89150000Y-99850000D03*
G04 #@! TO.P,U2,22,A3*
G04 #@! TO.N,/A3*
X91700000Y-99850000D03*
G04 #@! TO.P,U2,24,A5*
G04 #@! TO.N,/A5*
X94250000Y-99850000D03*
G04 #@! TO.P,U2,26,A7*
G04 #@! TO.N,/A7*
X96800000Y-99850000D03*
G04 #@! TO.P,U2,28,A9*
G04 #@! TO.N,/A9*
X99350000Y-99850000D03*
G04 #@! TO.P,U2,30,A11*
G04 #@! TO.N,unconnected-(U2-A11-Pad30)*
X101900000Y-99850000D03*
G04 #@! TO.P,U2,32,R2*
G04 #@! TO.N,/R2*
X104450000Y-99850000D03*
G04 #@! TO.P,U2,34,GND*
G04 #@! TO.N,GND*
X107000000Y-99850000D03*
G04 #@! TO.P,U2,36,P2*
G04 #@! TO.N,/P2*
X109550000Y-99850000D03*
G04 #@! TO.P,U2,38,A14*
G04 #@! TO.N,unconnected-(U2-A14-Pad38)*
X112100000Y-99850000D03*
G04 #@! TO.P,U2,40,EXTMEM*
G04 #@! TO.N,unconnected-(U2-EXTMEM-Pad40)*
X114650000Y-99850000D03*
G04 #@! TD*
D15*
G04 #@! TO.P,D1,1,K*
G04 #@! TO.N,Net-(D1-K)*
X47900000Y-85025000D03*
D16*
G04 #@! TO.P,D1,2,A*
G04 #@! TO.N,+12V*
X47900000Y-87565000D03*
G04 #@! TD*
D12*
G04 #@! TO.P,IC3,1,VPP*
G04 #@! TO.N,VCC*
X113538000Y-44831000D03*
D13*
G04 #@! TO.P,IC3,2,A12*
G04 #@! TO.N,GND*
X113538000Y-47371000D03*
G04 #@! TO.P,IC3,3,A7*
G04 #@! TO.N,/A7*
X113538000Y-49911000D03*
G04 #@! TO.P,IC3,4,A6*
G04 #@! TO.N,/A6*
X113538000Y-52451000D03*
G04 #@! TO.P,IC3,5,A5*
G04 #@! TO.N,/A5*
X113538000Y-54991000D03*
G04 #@! TO.P,IC3,6,A4*
G04 #@! TO.N,/A4*
X113538000Y-57531000D03*
G04 #@! TO.P,IC3,7,A3*
G04 #@! TO.N,/A3*
X113538000Y-60071000D03*
G04 #@! TO.P,IC3,8,A2*
G04 #@! TO.N,/A2*
X113538000Y-62611000D03*
G04 #@! TO.P,IC3,9,A1*
G04 #@! TO.N,/A1*
X113538000Y-65151000D03*
G04 #@! TO.P,IC3,10,A0*
G04 #@! TO.N,/A0*
X113538000Y-67691000D03*
G04 #@! TO.P,IC3,11,D0*
G04 #@! TO.N,/D0*
X113538000Y-70231000D03*
G04 #@! TO.P,IC3,12,D1*
G04 #@! TO.N,/D1*
X113538000Y-72771000D03*
G04 #@! TO.P,IC3,13,D2*
G04 #@! TO.N,/D2*
X113538000Y-75311000D03*
G04 #@! TO.P,IC3,14,GND*
G04 #@! TO.N,GND*
X113538000Y-77851000D03*
G04 #@! TO.P,IC3,15,D3*
G04 #@! TO.N,/D3*
X128778000Y-77851000D03*
G04 #@! TO.P,IC3,16,D4*
G04 #@! TO.N,/D4*
X128778000Y-75311000D03*
G04 #@! TO.P,IC3,17,D5*
G04 #@! TO.N,/D5*
X128778000Y-72771000D03*
G04 #@! TO.P,IC3,18,D6*
G04 #@! TO.N,/D6*
X128778000Y-70231000D03*
G04 #@! TO.P,IC3,19,D7*
G04 #@! TO.N,/D7*
X128778000Y-67691000D03*
G04 #@! TO.P,IC3,20,~{CE}*
G04 #@! TO.N,/R2*
X128778000Y-65151000D03*
G04 #@! TO.P,IC3,21,A10*
G04 #@! TO.N,/A10*
X128778000Y-62611000D03*
G04 #@! TO.P,IC3,22,~{OE}*
G04 #@! TO.N,/R2*
X128778000Y-60071000D03*
G04 #@! TO.P,IC3,23,A11*
G04 #@! TO.N,GND*
X128778000Y-57531000D03*
G04 #@! TO.P,IC3,24,A9*
G04 #@! TO.N,/A9*
X128778000Y-54991000D03*
G04 #@! TO.P,IC3,25,A8*
G04 #@! TO.N,/A8*
X128778000Y-52451000D03*
G04 #@! TO.P,IC3,26,NC*
G04 #@! TO.N,unconnected-(IC3-NC-Pad26)*
X128778000Y-49911000D03*
G04 #@! TO.P,IC3,27,~{PGM}*
G04 #@! TO.N,VCC*
X128778000Y-47371000D03*
G04 #@! TO.P,IC3,28,VCC*
X128778000Y-44831000D03*
G04 #@! TD*
D17*
G04 #@! TO.P,DC1,1*
G04 #@! TO.N,VCC*
X71600000Y-66000000D03*
G04 #@! TO.P,DC1,2*
G04 #@! TO.N,GND*
X71600000Y-71000000D03*
G04 #@! TD*
G04 #@! TO.P,DC2,1*
G04 #@! TO.N,VCC*
X71600000Y-44800000D03*
G04 #@! TO.P,DC2,2*
G04 #@! TO.N,GND*
X71600000Y-49800000D03*
G04 #@! TD*
G04 #@! TO.P,R2,1*
G04 #@! TO.N,Net-(TR2-B)*
X55000000Y-57350000D03*
D13*
G04 #@! TO.P,R2,2*
G04 #@! TO.N,Net-(IC1-Pad2)*
X55000000Y-47190000D03*
G04 #@! TD*
D17*
G04 #@! TO.P,R5,1*
G04 #@! TO.N,VCC*
X78400000Y-67400000D03*
D13*
G04 #@! TO.P,R5,2*
G04 #@! TO.N,Net-(IC4-Pad4)*
X78400000Y-77560000D03*
G04 #@! TD*
D18*
G04 #@! TO.P,TR1,1,C*
G04 #@! TO.N,Net-(TR1-C)*
X46770000Y-64670000D03*
D19*
G04 #@! TO.P,TR1,2,B*
G04 #@! TO.N,Net-(TR1-B)*
X45500000Y-63400000D03*
G04 #@! TO.P,TR1,3,E*
G04 #@! TO.N,GND*
X46770000Y-62130000D03*
G04 #@! TD*
D17*
G04 #@! TO.P,C2,1*
G04 #@! TO.N,Net-(IC2-CV)*
X107000000Y-49000000D03*
G04 #@! TO.P,C2,2*
G04 #@! TO.N,GND*
X107000000Y-44000000D03*
G04 #@! TD*
G04 #@! TO.P,R7,1*
G04 #@! TO.N,Net-(D2-K)*
X54000000Y-81260000D03*
D13*
G04 #@! TO.P,R7,2*
G04 #@! TO.N,Net-(TR2-C)*
X54000000Y-71100000D03*
G04 #@! TD*
D12*
G04 #@! TO.P,IC2,1,GND*
G04 #@! TO.N,GND*
X86450000Y-44400000D03*
D13*
G04 #@! TO.P,IC2,2,TR*
G04 #@! TO.N,Net-(IC2-THR)*
X86450000Y-46940000D03*
G04 #@! TO.P,IC2,3,Q*
G04 #@! TO.N,Net-(IC2-Q)*
X86450000Y-49480000D03*
G04 #@! TO.P,IC2,4,R*
G04 #@! TO.N,VCC*
X86450000Y-52020000D03*
G04 #@! TO.P,IC2,5,CV*
G04 #@! TO.N,Net-(IC2-CV)*
X94070000Y-52020000D03*
G04 #@! TO.P,IC2,6,THR*
G04 #@! TO.N,Net-(IC2-THR)*
X94070000Y-49480000D03*
G04 #@! TO.P,IC2,7,DIS*
G04 #@! TO.N,Net-(IC2-DIS)*
X94070000Y-46940000D03*
G04 #@! TO.P,IC2,8,VCC*
G04 #@! TO.N,VCC*
X94070000Y-44400000D03*
G04 #@! TD*
D17*
G04 #@! TO.P,R6,1*
G04 #@! TO.N,Net-(D1-K)*
X47550000Y-81250000D03*
D13*
G04 #@! TO.P,R6,2*
G04 #@! TO.N,Net-(TR1-C)*
X47550000Y-71090000D03*
G04 #@! TD*
D12*
G04 #@! TO.P,C1,1*
G04 #@! TO.N,Net-(IC2-THR)*
X102400000Y-47805100D03*
D17*
G04 #@! TO.P,C1,2*
G04 #@! TO.N,GND*
X102400000Y-45305100D03*
G04 #@! TD*
G04 #@! TO.P,R8,1*
G04 #@! TO.N,Net-(C3-Pad2)*
X74700000Y-77560000D03*
D13*
G04 #@! TO.P,R8,2*
G04 #@! TO.N,VCC*
X74700000Y-67400000D03*
G04 #@! TD*
D12*
G04 #@! TO.P,IC1,1*
G04 #@! TO.N,Net-(IC1-Pad1)*
X60880000Y-44460000D03*
D13*
G04 #@! TO.P,IC1,2*
G04 #@! TO.N,Net-(IC1-Pad2)*
X60880000Y-47000000D03*
G04 #@! TO.P,IC1,3*
G04 #@! TO.N,Net-(IC1-Pad3)*
X60880000Y-49540000D03*
G04 #@! TO.P,IC1,4*
G04 #@! TO.N,Net-(IC1-Pad4)*
X60880000Y-52080000D03*
G04 #@! TO.P,IC1,5*
G04 #@! TO.N,Net-(IC1-Pad5)*
X60880000Y-54620000D03*
G04 #@! TO.P,IC1,6*
G04 #@! TO.N,Net-(IC1-Pad3)*
X60880000Y-57160000D03*
G04 #@! TO.P,IC1,7,GND*
G04 #@! TO.N,GND*
X60880000Y-59700000D03*
G04 #@! TO.P,IC1,8*
G04 #@! TO.N,Net-(IC1-Pad1)*
X68500000Y-59700000D03*
G04 #@! TO.P,IC1,9*
G04 #@! TO.N,Net-(IC1-Pad3)*
X68500000Y-57160000D03*
G04 #@! TO.P,IC1,10*
G04 #@! TO.N,unconnected-(IC1-Pad10)*
X68500000Y-54620000D03*
G04 #@! TO.P,IC1,11*
G04 #@! TO.N,unconnected-(IC1-Pad11)*
X68500000Y-52080000D03*
G04 #@! TO.P,IC1,12*
G04 #@! TO.N,unconnected-(IC1-Pad12)*
X68500000Y-49540000D03*
G04 #@! TO.P,IC1,13*
G04 #@! TO.N,unconnected-(IC1-Pad13)*
X68500000Y-47000000D03*
G04 #@! TO.P,IC1,14,VCC*
G04 #@! TO.N,VCC*
X68500000Y-44460000D03*
G04 #@! TD*
D18*
G04 #@! TO.P,TR2,1,C*
G04 #@! TO.N,Net-(TR2-C)*
X54300000Y-64440000D03*
D19*
G04 #@! TO.P,TR2,2,B*
G04 #@! TO.N,Net-(TR2-B)*
X53030000Y-63170000D03*
G04 #@! TO.P,TR2,3,E*
G04 #@! TO.N,GND*
X54300000Y-61900000D03*
G04 #@! TD*
D17*
G04 #@! TO.P,C3,1*
G04 #@! TO.N,Net-(IC2-Q)*
X57800000Y-71100000D03*
G04 #@! TO.P,C3,2*
G04 #@! TO.N,Net-(C3-Pad2)*
X57800000Y-76100000D03*
G04 #@! TD*
G04 #@! TO.P,R4,1*
G04 #@! TO.N,Net-(IC2-DIS)*
X80400000Y-57200000D03*
D13*
G04 #@! TO.P,R4,2*
G04 #@! TO.N,Net-(IC2-THR)*
X80400000Y-47040000D03*
G04 #@! TD*
D17*
G04 #@! TO.P,DC4,1*
G04 #@! TO.N,VCC*
X97200000Y-44900000D03*
G04 #@! TO.P,DC4,2*
G04 #@! TO.N,GND*
X97200000Y-49900000D03*
G04 #@! TD*
D15*
G04 #@! TO.P,D2,1,K*
G04 #@! TO.N,Net-(D2-K)*
X54700000Y-85225000D03*
D16*
G04 #@! TO.P,D2,2,A*
G04 #@! TO.N,+12V*
X54700000Y-87765000D03*
G04 #@! TD*
D17*
G04 #@! TO.P,DC3,1*
G04 #@! TO.N,VCC*
X134000000Y-44400000D03*
G04 #@! TO.P,DC3,2*
G04 #@! TO.N,GND*
X134000000Y-49400000D03*
G04 #@! TD*
G04 #@! TO.P,R3,1*
G04 #@! TO.N,Net-(IC2-DIS)*
X76750000Y-57250000D03*
D13*
G04 #@! TO.P,R3,2*
G04 #@! TO.N,VCC*
X76750000Y-47090000D03*
G04 #@! TD*
D17*
G04 #@! TO.P,R1,1*
G04 #@! TO.N,Net-(TR1-B)*
X51250000Y-57250000D03*
D13*
G04 #@! TO.P,R1,2*
G04 #@! TO.N,Net-(IC1-Pad4)*
X51250000Y-47090000D03*
G04 #@! TD*
D20*
G04 #@! TO.N,Net-(U2-CART)*
X73800000Y-92500000D03*
G04 #@! TO.N,/A6*
X91285000Y-87031500D03*
G04 #@! TO.N,/A1*
X91000000Y-67000000D03*
G04 #@! TO.N,/D0*
X83666300Y-70231000D03*
G04 #@! TO.N,/D2*
X87616900Y-83316000D03*
G04 #@! TO.N,/D3*
X85797900Y-68496000D03*
X81500000Y-88301500D03*
G04 #@! TO.N,/D6*
X89048900Y-71581500D03*
G04 #@! TO.N,/A0*
X97805100Y-84895500D03*
G04 #@! TO.N,/A2*
X98339500Y-83187000D03*
G04 #@! TO.N,/A4*
X95151500Y-91716700D03*
G04 #@! TO.N,/A8*
X100682400Y-81856900D03*
G04 #@! TO.N,/A10*
X105283000Y-90678000D03*
G04 #@! TO.N,VCC*
X75139800Y-91928700D03*
G04 #@! TO.N,/P2*
X117896900Y-69922300D03*
G04 #@! TD*
D21*
G04 #@! TO.N,GND*
X55400000Y-77752000D02*
X55400000Y-67550000D01*
X60550000Y-81360000D02*
X59008000Y-81360000D01*
X86450000Y-44400000D02*
X85049900Y-44400000D01*
X107000000Y-85789100D02*
X113538000Y-79251100D01*
X59008000Y-81360000D02*
X55400000Y-77752000D01*
X113538000Y-77851000D02*
X113538000Y-79251100D01*
X134000000Y-52309000D02*
X128778000Y-57531000D01*
X97200000Y-49900000D02*
X101794900Y-45305100D01*
X79649900Y-49800000D02*
X85049900Y-44400000D01*
X56350000Y-66600000D02*
X56350000Y-63950000D01*
X71600000Y-49800000D02*
X79649900Y-49800000D01*
X56350000Y-63950000D02*
X54300000Y-61900000D01*
X55400000Y-67550000D02*
X56350000Y-66600000D01*
X134000000Y-49400000D02*
X134000000Y-52309000D01*
X101794900Y-45305100D02*
X102400000Y-45305100D01*
X107000000Y-99850000D02*
X107000000Y-85789100D01*
D22*
G04 #@! TO.N,Net-(U2-CART)*
X73850000Y-99850000D02*
X73850000Y-92550000D01*
X73850000Y-99850000D02*
X73850000Y-92874900D01*
X73850000Y-92874900D02*
X73869900Y-92874900D01*
X73850000Y-92550000D02*
X73800000Y-92500000D01*
D21*
G04 #@! TO.N,+12V*
X61315100Y-87765000D02*
X66200000Y-92649900D01*
X66200000Y-99850000D02*
X66200000Y-92649900D01*
X54700000Y-87765000D02*
X61315100Y-87765000D01*
D22*
G04 #@! TO.N,Net-(D1-K)*
X47550000Y-81250000D02*
X47900000Y-81600000D01*
X47900000Y-81600000D02*
X47900000Y-85025000D01*
G04 #@! TO.N,Net-(D2-K)*
X54700000Y-82500000D02*
X54700000Y-85225000D01*
X54000000Y-81800000D02*
X54700000Y-82500000D01*
X54000000Y-81260000D02*
X54000000Y-81800000D01*
G04 #@! TO.N,/A6*
X91285000Y-87031500D02*
X91285000Y-73914000D01*
X113361500Y-52627500D02*
X112571500Y-52627500D01*
X113538000Y-52451000D02*
X113361500Y-52627500D01*
X91285000Y-73914000D02*
X112571500Y-52627500D01*
G04 #@! TO.N,/A7*
X114554000Y-49911000D02*
X113538000Y-49911000D01*
X96800000Y-99850000D02*
X96800000Y-77619100D01*
X114903000Y-61246000D02*
X115824000Y-60325000D01*
X113173100Y-61246000D02*
X114903000Y-61246000D01*
X115824000Y-51181000D02*
X114554000Y-49911000D01*
X96800000Y-77619100D02*
X113173100Y-61246000D01*
X115824000Y-60325000D02*
X115824000Y-51181000D01*
G04 #@! TO.N,/A5*
X94250000Y-74279000D02*
X94250000Y-99850000D01*
X113538000Y-54991000D02*
X94250000Y-74279000D01*
G04 #@! TO.N,/A3*
X114774000Y-58835000D02*
X113538000Y-60071000D01*
X91700000Y-89006100D02*
X92060100Y-88646000D01*
X92060100Y-88646000D02*
X92060100Y-74782700D01*
X113999600Y-53772600D02*
X114774000Y-54547000D01*
X113070200Y-53772600D02*
X113999600Y-53772600D01*
X114774000Y-54547000D02*
X114774000Y-58835000D01*
X91700000Y-99850000D02*
X91700000Y-89006100D01*
X92060100Y-74782700D02*
X113070200Y-53772600D01*
G04 #@! TO.N,/A1*
X89849500Y-68150500D02*
X91000000Y-67000000D01*
X89849500Y-89789000D02*
X89849500Y-68312600D01*
X89150000Y-99850000D02*
X89150000Y-90488500D01*
X89849500Y-68312600D02*
X89849500Y-68150500D01*
X89150000Y-90488500D02*
X89849500Y-89789000D01*
G04 #@! TO.N,/D0*
X83666300Y-76353700D02*
X83666300Y-70231000D01*
X76400000Y-99850000D02*
X75925000Y-99375000D01*
X75925000Y-99375000D02*
X75925000Y-84095000D01*
X75925000Y-84095000D02*
X83666300Y-76353700D01*
G04 #@! TO.N,/D2*
X78950000Y-91982900D02*
X87616900Y-83316000D01*
X78950000Y-99850000D02*
X78950000Y-91982900D01*
G04 #@! TO.N,/D3*
X85797900Y-68496000D02*
X85797900Y-84003600D01*
X85797900Y-84003600D02*
X81500000Y-88301500D01*
G04 #@! TO.N,/D4*
X81500000Y-90529100D02*
X88392000Y-83637100D01*
X95885000Y-55115000D02*
X95885000Y-42926000D01*
X88215100Y-62784900D02*
X95885000Y-55115000D01*
X95885000Y-42926000D02*
X97970000Y-40841000D01*
X88392000Y-82995000D02*
X88215100Y-82818100D01*
X127112900Y-40841000D02*
X135215200Y-48943300D01*
X88215100Y-82818100D02*
X88215100Y-62784900D01*
X88392000Y-83637100D02*
X88392000Y-82995000D01*
X135215200Y-48943300D02*
X135215200Y-68873800D01*
X135215200Y-68873800D02*
X128778000Y-75311000D01*
X81500000Y-99850000D02*
X81500000Y-90529100D01*
X97970000Y-40841000D02*
X127112900Y-40841000D01*
G04 #@! TO.N,/D6*
X84050000Y-89950000D02*
X89048800Y-84951200D01*
X84050000Y-99850000D02*
X84050000Y-89950000D01*
X89048800Y-84951200D02*
X89048800Y-71581500D01*
X89048800Y-71581500D02*
X89048900Y-71581500D01*
G04 #@! TO.N,/A0*
X103096500Y-80539000D02*
X98740000Y-84895500D01*
X113538000Y-67691000D02*
X103096500Y-78132500D01*
X98740000Y-84895500D02*
X97805100Y-84895500D01*
X103096500Y-78132500D02*
X103096500Y-80539000D01*
G04 #@! TO.N,/A2*
X113538000Y-62611000D02*
X98339500Y-77809500D01*
X98339500Y-77809500D02*
X98339500Y-83187000D01*
G04 #@! TO.N,/A4*
X113538000Y-57531000D02*
X95151500Y-75917500D01*
X95151500Y-75917500D02*
X95151500Y-91716700D01*
G04 #@! TO.N,/A8*
X100682400Y-78855800D02*
X100682400Y-81856900D01*
X127968100Y-52451000D02*
X113998100Y-66421000D01*
X113998100Y-66421000D02*
X113117200Y-66421000D01*
X128778000Y-52451000D02*
X127968100Y-52451000D01*
X113117200Y-66421000D02*
X100682400Y-78855800D01*
G04 #@! TO.N,/A10*
X113978500Y-76581000D02*
X116975900Y-73583600D01*
X129985900Y-63818900D02*
X128778000Y-62611000D01*
X105269700Y-88900000D02*
X105269700Y-84429700D01*
X120235500Y-66421000D02*
X129209900Y-66421000D01*
X105269700Y-84429700D02*
X113118400Y-76581000D01*
X105269700Y-88900000D02*
X105269700Y-90664700D01*
X129985900Y-65645000D02*
X129985900Y-63818900D01*
X116975900Y-73583600D02*
X116975900Y-69680600D01*
X129209900Y-66421000D02*
X129985900Y-65645000D01*
X116975900Y-69680600D02*
X120235500Y-66421000D01*
X113118400Y-76581000D02*
X113978500Y-76581000D01*
X105269700Y-90664700D02*
X105283000Y-90678000D01*
G04 #@! TO.N,/R2*
X104450000Y-82494000D02*
X112808000Y-74136000D01*
X127583800Y-63956800D02*
X127583800Y-62865000D01*
X128778000Y-60071000D02*
X127583800Y-61265200D01*
X128778000Y-65151000D02*
X120269000Y-65151000D01*
X113885400Y-74136000D02*
X116151000Y-71870400D01*
X127583800Y-61265200D02*
X127583800Y-62865000D01*
X128778000Y-65151000D02*
X127583800Y-63956800D01*
X116151000Y-69269000D02*
X119710000Y-65710000D01*
X120269000Y-65151000D02*
X119710000Y-65710000D01*
X112808000Y-74136000D02*
X113885400Y-74136000D01*
X116151000Y-71870400D02*
X116151000Y-69269000D01*
X104450000Y-99850000D02*
X104450000Y-82494000D01*
D21*
G04 #@! TO.N,VCC*
X70302800Y-66000000D02*
X71600000Y-66000000D01*
X70182800Y-66120000D02*
X70302800Y-66000000D01*
X113538000Y-44831000D02*
X112649000Y-44831000D01*
X70182800Y-86971700D02*
X70182800Y-66120000D01*
X112649000Y-44831000D02*
X110109000Y-42291000D01*
X94070000Y-44400000D02*
X86450000Y-52020000D01*
X99809000Y-42291000D02*
X97200000Y-44900000D01*
X128778000Y-44831000D02*
X128778000Y-47371000D01*
X110109000Y-42291000D02*
X99809000Y-42291000D01*
X75139800Y-91928700D02*
X70182800Y-86971700D01*
X70182800Y-66120000D02*
X69570100Y-66120000D01*
X68170000Y-66120000D02*
X69570100Y-66120000D01*
D22*
G04 #@! TO.N,/P2*
X109550000Y-86284000D02*
X117896900Y-77937100D01*
X109550000Y-99850000D02*
X109550000Y-86284000D01*
X117896900Y-77937100D02*
X117896900Y-69922300D01*
G04 #@! TO.N,Net-(IC2-DIS)*
X92000000Y-54000000D02*
X92000000Y-48601294D01*
X92000000Y-48601294D02*
X93661293Y-46940000D01*
X93661293Y-46940000D02*
X94070000Y-46940000D01*
X91498950Y-54501050D02*
X92000000Y-54000000D01*
X80400000Y-57200000D02*
X83002100Y-57200000D01*
X83002100Y-57200000D02*
X85701050Y-54501050D01*
X85701050Y-54501050D02*
X91498950Y-54501050D01*
G04 #@! TO.N,Net-(IC2-Q)*
X82840900Y-49480000D02*
X62390900Y-69930000D01*
X62390900Y-69930000D02*
X59070000Y-69930000D01*
X59070000Y-69930000D02*
X58200000Y-70800000D01*
X86450000Y-49480000D02*
X82840900Y-49480000D01*
G04 #@! TO.N,/A9*
X113034700Y-71595800D02*
X99350000Y-85280500D01*
X99350000Y-85280500D02*
X99350000Y-99850000D01*
X113835200Y-71595800D02*
X113034700Y-71595800D01*
X114962400Y-68806600D02*
X114962400Y-70468600D01*
X114962400Y-70468600D02*
X113835200Y-71595800D01*
X128778000Y-54991000D02*
X114962400Y-68806600D01*
G04 #@! TO.N,Net-(IC1-Pad1)*
X60880000Y-44460000D02*
X62760000Y-44460000D01*
X62760000Y-44460000D02*
X64000000Y-45700000D01*
X64000000Y-57300000D02*
X64000000Y-45700000D01*
X66400000Y-59700000D02*
X64000000Y-57300000D01*
X68500000Y-59700000D02*
X66400000Y-59700000D01*
G04 #@! TO.N,Net-(IC1-Pad4)*
X60880000Y-52080000D02*
X54880000Y-52080000D01*
X51250000Y-48450000D02*
X51250000Y-47090000D01*
X54880000Y-52080000D02*
X51250000Y-48450000D01*
G04 #@! TO.N,Net-(IC1-Pad5)*
X60550000Y-64944900D02*
X60550000Y-66120000D01*
X60880000Y-54620000D02*
X59688300Y-55811700D01*
X60550000Y-78820000D02*
X58420000Y-78820000D01*
X59688300Y-64083200D02*
X60550000Y-64944900D01*
X56400000Y-68800000D02*
X59080000Y-66120000D01*
X59688300Y-55811700D02*
X59688300Y-64083200D01*
X58420000Y-78820000D02*
X56400000Y-76800000D01*
X56400000Y-76800000D02*
X56400000Y-68800000D01*
X59080000Y-66120000D02*
X60550000Y-66120000D01*
G04 #@! TO.N,Net-(TR1-B)*
X51250000Y-59128300D02*
X51250000Y-57250000D01*
X46978300Y-63400000D02*
X51250000Y-59128300D01*
X45500000Y-63400000D02*
X46978300Y-63400000D01*
G04 #@! TO.N,Net-(TR2-B)*
X53030000Y-63170000D02*
X53030000Y-59320000D01*
X53030000Y-59320000D02*
X55000000Y-57350000D01*
G04 #@! TO.N,Net-(TR1-C)*
X47550000Y-71090000D02*
X47550000Y-66475100D01*
X46770000Y-65695100D02*
X46770000Y-64670000D01*
X47550000Y-66475100D02*
X46770000Y-65695100D01*
G04 #@! TO.N,Net-(TR2-C)*
X54000000Y-64740000D02*
X54300000Y-64440000D01*
X54000000Y-71100000D02*
X54000000Y-64740000D01*
G04 #@! TD*
G04 #@! TA.AperFunction,Conductor*
G04 #@! TO.N,GND*
G36*
X134465469Y-36670185D02*
G01*
X134486111Y-36686819D01*
X138113181Y-40313888D01*
X138146666Y-40375211D01*
X138149500Y-40401569D01*
X138149500Y-92275500D01*
X138129815Y-92342539D01*
X138077011Y-92388294D01*
X138025500Y-92399500D01*
X116229760Y-92399500D01*
X116229554Y-92399459D01*
X116204998Y-92399459D01*
X116204807Y-92399538D01*
X116204619Y-92399615D01*
X116204615Y-92399618D01*
X116204459Y-92399999D01*
X116204476Y-92424616D01*
X116204471Y-92424616D01*
X116204500Y-92424759D01*
X116204500Y-92876000D01*
X116184815Y-92943039D01*
X116132011Y-92988794D01*
X116080500Y-93000000D01*
X116050124Y-93000000D01*
X115983085Y-92980315D01*
X115950859Y-92950313D01*
X115907546Y-92892454D01*
X115851105Y-92850202D01*
X115792335Y-92806206D01*
X115792328Y-92806202D01*
X115657482Y-92755908D01*
X115657483Y-92755908D01*
X115597883Y-92749501D01*
X115597881Y-92749500D01*
X115597873Y-92749500D01*
X115597864Y-92749500D01*
X113702129Y-92749500D01*
X113702123Y-92749501D01*
X113642516Y-92755908D01*
X113507671Y-92806202D01*
X113507669Y-92806203D01*
X113449311Y-92849891D01*
X113383847Y-92874308D01*
X113315574Y-92859457D01*
X113300689Y-92849891D01*
X113242330Y-92806203D01*
X113242328Y-92806202D01*
X113107482Y-92755908D01*
X113107483Y-92755908D01*
X113047883Y-92749501D01*
X113047881Y-92749500D01*
X113047873Y-92749500D01*
X113047864Y-92749500D01*
X111152129Y-92749500D01*
X111152123Y-92749501D01*
X111092516Y-92755908D01*
X110957671Y-92806202D01*
X110957669Y-92806203D01*
X110899311Y-92849891D01*
X110833847Y-92874308D01*
X110765574Y-92859457D01*
X110750689Y-92849891D01*
X110692330Y-92806203D01*
X110692328Y-92806202D01*
X110557482Y-92755908D01*
X110557483Y-92755908D01*
X110497883Y-92749501D01*
X110497881Y-92749500D01*
X110497873Y-92749500D01*
X110497865Y-92749500D01*
X110349500Y-92749500D01*
X110282461Y-92729815D01*
X110236706Y-92677011D01*
X110225500Y-92625500D01*
X110225500Y-89602969D01*
X130201234Y-89602969D01*
X130201234Y-91739269D01*
X137047818Y-91739269D01*
X137047818Y-89602969D01*
X130201234Y-89602969D01*
X110225500Y-89602969D01*
X110225500Y-86615162D01*
X110245185Y-86548123D01*
X110261814Y-86527486D01*
X118357488Y-78431811D01*
X118362908Y-78426709D01*
X118406232Y-78388329D01*
X118439104Y-78340703D01*
X118443539Y-78334677D01*
X118479222Y-78289133D01*
X118479221Y-78289133D01*
X118479226Y-78289128D01*
X118483072Y-78280580D01*
X118494097Y-78261035D01*
X118499417Y-78253327D01*
X118499416Y-78253327D01*
X118499418Y-78253326D01*
X118519936Y-78199222D01*
X118522801Y-78192308D01*
X118545813Y-78141176D01*
X118546550Y-78139539D01*
X118548238Y-78130321D01*
X118554266Y-78108703D01*
X118554464Y-78108181D01*
X118557588Y-78099945D01*
X118564563Y-78042496D01*
X118565690Y-78035093D01*
X118576119Y-77978185D01*
X118572625Y-77920434D01*
X118572400Y-77912949D01*
X118572400Y-70565456D01*
X118592085Y-70498417D01*
X118604251Y-70482483D01*
X118611595Y-70474327D01*
X118629433Y-70454516D01*
X118724079Y-70290584D01*
X118782574Y-70110556D01*
X118802360Y-69922300D01*
X118782574Y-69734044D01*
X118724079Y-69554016D01*
X118629433Y-69390084D01*
X118514995Y-69262988D01*
X118484765Y-69199997D01*
X118493390Y-69130661D01*
X118519461Y-69092338D01*
X120478982Y-67132819D01*
X120540305Y-67099334D01*
X120566663Y-67096500D01*
X127429318Y-67096500D01*
X127496357Y-67116185D01*
X127542112Y-67168989D01*
X127552056Y-67238147D01*
X127549093Y-67252593D01*
X127492366Y-67464302D01*
X127492364Y-67464313D01*
X127472532Y-67690998D01*
X127472532Y-67691001D01*
X127492364Y-67917686D01*
X127492366Y-67917697D01*
X127551258Y-68137488D01*
X127551261Y-68137497D01*
X127647431Y-68343732D01*
X127647432Y-68343734D01*
X127777954Y-68530141D01*
X127938858Y-68691045D01*
X127985693Y-68723839D01*
X128125266Y-68821568D01*
X128183275Y-68848618D01*
X128235714Y-68894791D01*
X128254866Y-68961984D01*
X128234650Y-69028865D01*
X128183275Y-69073382D01*
X128125267Y-69100431D01*
X128125265Y-69100432D01*
X127938858Y-69230954D01*
X127777954Y-69391858D01*
X127647432Y-69578265D01*
X127647431Y-69578267D01*
X127551261Y-69784502D01*
X127551258Y-69784511D01*
X127492366Y-70004302D01*
X127492364Y-70004313D01*
X127472532Y-70230998D01*
X127472532Y-70231001D01*
X127492364Y-70457686D01*
X127492366Y-70457697D01*
X127551258Y-70677488D01*
X127551261Y-70677497D01*
X127647431Y-70883732D01*
X127647432Y-70883734D01*
X127777954Y-71070141D01*
X127938858Y-71231045D01*
X127938861Y-71231047D01*
X128125266Y-71361568D01*
X128175870Y-71385165D01*
X128183275Y-71388618D01*
X128235714Y-71434791D01*
X128254866Y-71501984D01*
X128234650Y-71568865D01*
X128183275Y-71613382D01*
X128125267Y-71640431D01*
X128125265Y-71640432D01*
X127938858Y-71770954D01*
X127777954Y-71931858D01*
X127647432Y-72118265D01*
X127647431Y-72118267D01*
X127551261Y-72324502D01*
X127551258Y-72324511D01*
X127492366Y-72544302D01*
X127492364Y-72544313D01*
X127472532Y-72770998D01*
X127472532Y-72771001D01*
X127492364Y-72997686D01*
X127492366Y-72997697D01*
X127551258Y-73217488D01*
X127551261Y-73217497D01*
X127647431Y-73423732D01*
X127647432Y-73423734D01*
X127777954Y-73610141D01*
X127938858Y-73771045D01*
X127938861Y-73771047D01*
X128125266Y-73901568D01*
X128183275Y-73928618D01*
X128235714Y-73974791D01*
X128254866Y-74041984D01*
X128234650Y-74108865D01*
X128183275Y-74153382D01*
X128125267Y-74180431D01*
X128125265Y-74180432D01*
X127938858Y-74310954D01*
X127777954Y-74471858D01*
X127647432Y-74658265D01*
X127647431Y-74658267D01*
X127551261Y-74864502D01*
X127551258Y-74864511D01*
X127492366Y-75084302D01*
X127492364Y-75084313D01*
X127472532Y-75310998D01*
X127472532Y-75311001D01*
X127492364Y-75537686D01*
X127492366Y-75537697D01*
X127551258Y-75757488D01*
X127551261Y-75757497D01*
X127647431Y-75963732D01*
X127647432Y-75963734D01*
X127777954Y-76150141D01*
X127938858Y-76311045D01*
X127970582Y-76333258D01*
X128125266Y-76441568D01*
X128183275Y-76468618D01*
X128235714Y-76514791D01*
X128254866Y-76581984D01*
X128234650Y-76648865D01*
X128183275Y-76693382D01*
X128125267Y-76720431D01*
X128125265Y-76720432D01*
X127938858Y-76850954D01*
X127777954Y-77011858D01*
X127647432Y-77198265D01*
X127647431Y-77198267D01*
X127551261Y-77404502D01*
X127551258Y-77404511D01*
X127492366Y-77624302D01*
X127492364Y-77624313D01*
X127472532Y-77850998D01*
X127472532Y-77851001D01*
X127492364Y-78077686D01*
X127492366Y-78077697D01*
X127551258Y-78297488D01*
X127551261Y-78297497D01*
X127647431Y-78503732D01*
X127647432Y-78503734D01*
X127777954Y-78690141D01*
X127938858Y-78851045D01*
X127980139Y-78879950D01*
X128125266Y-78981568D01*
X128331504Y-79077739D01*
X128551308Y-79136635D01*
X128713230Y-79150801D01*
X128777998Y-79156468D01*
X128778000Y-79156468D01*
X128778002Y-79156468D01*
X128834673Y-79151509D01*
X129004692Y-79136635D01*
X129224496Y-79077739D01*
X129430734Y-78981568D01*
X129617139Y-78851047D01*
X129778047Y-78690139D01*
X129908568Y-78503734D01*
X130004739Y-78297496D01*
X130063635Y-78077692D01*
X130080806Y-77881432D01*
X130083468Y-77851001D01*
X130083468Y-77850998D01*
X130072444Y-77725000D01*
X130063635Y-77624308D01*
X130010126Y-77424610D01*
X130004741Y-77404511D01*
X130004738Y-77404502D01*
X129971542Y-77333313D01*
X129908568Y-77198266D01*
X129778047Y-77011861D01*
X129778045Y-77011858D01*
X129617141Y-76850954D01*
X129430734Y-76720432D01*
X129430728Y-76720429D01*
X129372725Y-76693382D01*
X129320285Y-76647210D01*
X129301133Y-76580017D01*
X129321348Y-76513135D01*
X129372725Y-76468618D01*
X129430734Y-76441568D01*
X129617139Y-76311047D01*
X129778047Y-76150139D01*
X129908568Y-75963734D01*
X130004739Y-75757496D01*
X130063635Y-75537692D01*
X130080806Y-75341432D01*
X130083468Y-75311001D01*
X130083468Y-75310998D01*
X130063635Y-75084309D01*
X130063633Y-75084302D01*
X130060262Y-75071720D01*
X130061923Y-75001873D01*
X130092353Y-74951946D01*
X135675788Y-69368511D01*
X135681208Y-69363409D01*
X135724532Y-69325029D01*
X135757404Y-69277403D01*
X135761839Y-69271377D01*
X135797522Y-69225833D01*
X135797521Y-69225833D01*
X135797526Y-69225828D01*
X135801372Y-69217280D01*
X135812397Y-69197735D01*
X135814585Y-69194564D01*
X135817718Y-69190026D01*
X135838241Y-69135910D01*
X135841101Y-69129007D01*
X135864850Y-69076239D01*
X135866537Y-69067032D01*
X135872569Y-69045394D01*
X135873295Y-69043481D01*
X135875888Y-69036645D01*
X135882863Y-68979186D01*
X135883983Y-68971831D01*
X135894420Y-68914885D01*
X135893204Y-68894791D01*
X135890926Y-68857124D01*
X135890700Y-68849637D01*
X135890700Y-48967461D01*
X135890926Y-48959973D01*
X135894420Y-48902215D01*
X135883984Y-48845276D01*
X135882860Y-48837881D01*
X135881009Y-48822639D01*
X135875888Y-48780455D01*
X135872565Y-48771696D01*
X135866536Y-48750065D01*
X135864850Y-48740861D01*
X135841103Y-48688098D01*
X135838240Y-48681183D01*
X135817720Y-48627079D01*
X135817719Y-48627078D01*
X135817718Y-48627074D01*
X135817714Y-48627068D01*
X135812398Y-48619366D01*
X135801371Y-48599815D01*
X135797526Y-48591271D01*
X135761841Y-48545724D01*
X135757401Y-48539690D01*
X135724533Y-48492072D01*
X135711980Y-48480951D01*
X135681210Y-48453691D01*
X135675772Y-48448571D01*
X131627202Y-44400001D01*
X132694532Y-44400001D01*
X132714364Y-44626686D01*
X132714366Y-44626697D01*
X132773258Y-44846488D01*
X132773261Y-44846497D01*
X132869431Y-45052732D01*
X132869432Y-45052734D01*
X132999954Y-45239141D01*
X133160858Y-45400045D01*
X133160861Y-45400047D01*
X133347266Y-45530568D01*
X133553504Y-45626739D01*
X133773308Y-45685635D01*
X133935230Y-45699801D01*
X133999998Y-45705468D01*
X134000000Y-45705468D01*
X134000002Y-45705468D01*
X134057413Y-45700445D01*
X134226692Y-45685635D01*
X134446496Y-45626739D01*
X134652734Y-45530568D01*
X134839139Y-45400047D01*
X135000047Y-45239139D01*
X135130568Y-45052734D01*
X135226739Y-44846496D01*
X135285635Y-44626692D01*
X135305468Y-44400000D01*
X135304599Y-44390073D01*
X135294519Y-44274852D01*
X135285635Y-44173308D01*
X135228710Y-43960861D01*
X135226741Y-43953511D01*
X135226738Y-43953502D01*
X135130568Y-43747266D01*
X135024231Y-43595400D01*
X135000045Y-43560858D01*
X134839141Y-43399954D01*
X134652734Y-43269432D01*
X134652732Y-43269431D01*
X134446497Y-43173261D01*
X134446488Y-43173258D01*
X134226697Y-43114366D01*
X134226693Y-43114365D01*
X134226692Y-43114365D01*
X134226691Y-43114364D01*
X134226686Y-43114364D01*
X134000002Y-43094532D01*
X133999998Y-43094532D01*
X133773313Y-43114364D01*
X133773302Y-43114366D01*
X133553511Y-43173258D01*
X133553502Y-43173261D01*
X133347267Y-43269431D01*
X133347265Y-43269432D01*
X133160858Y-43399954D01*
X132999954Y-43560858D01*
X132869432Y-43747265D01*
X132869431Y-43747267D01*
X132773261Y-43953502D01*
X132773258Y-43953511D01*
X132714366Y-44173302D01*
X132714364Y-44173313D01*
X132694532Y-44399998D01*
X132694532Y-44400001D01*
X131627202Y-44400001D01*
X127607627Y-40380426D01*
X127602508Y-40374989D01*
X127564129Y-40331668D01*
X127516489Y-40298785D01*
X127510491Y-40294371D01*
X127464928Y-40258674D01*
X127464926Y-40258673D01*
X127464925Y-40258672D01*
X127464923Y-40258671D01*
X127456376Y-40254824D01*
X127436838Y-40243805D01*
X127429126Y-40238482D01*
X127429124Y-40238481D01*
X127375017Y-40217960D01*
X127368100Y-40215095D01*
X127315340Y-40191350D01*
X127315341Y-40191350D01*
X127307987Y-40190002D01*
X127306122Y-40189660D01*
X127284514Y-40183637D01*
X127275745Y-40180312D01*
X127218287Y-40173334D01*
X127210887Y-40172207D01*
X127153989Y-40161781D01*
X127153982Y-40161781D01*
X127105262Y-40164728D01*
X127096234Y-40165274D01*
X127088749Y-40165500D01*
X97994151Y-40165500D01*
X97986665Y-40165274D01*
X97977637Y-40164728D01*
X97928918Y-40161781D01*
X97928908Y-40161781D01*
X97872011Y-40172207D01*
X97864613Y-40173334D01*
X97807155Y-40180311D01*
X97798381Y-40183639D01*
X97776778Y-40189660D01*
X97772259Y-40190488D01*
X97767560Y-40191350D01*
X97714781Y-40215102D01*
X97707869Y-40217965D01*
X97653774Y-40238482D01*
X97653770Y-40238484D01*
X97646056Y-40243808D01*
X97626525Y-40254824D01*
X97617971Y-40258674D01*
X97617970Y-40258674D01*
X97572405Y-40294371D01*
X97566377Y-40298807D01*
X97518772Y-40331667D01*
X97518769Y-40331669D01*
X97480414Y-40374963D01*
X97475281Y-40380415D01*
X95424424Y-42431273D01*
X95418972Y-42436406D01*
X95375669Y-42474769D01*
X95375667Y-42474772D01*
X95342800Y-42522387D01*
X95338363Y-42528417D01*
X95302674Y-42573970D01*
X95298824Y-42582525D01*
X95287808Y-42602056D01*
X95282484Y-42609770D01*
X95282482Y-42609774D01*
X95261965Y-42663869D01*
X95259102Y-42670781D01*
X95235350Y-42723560D01*
X95233661Y-42732777D01*
X95227639Y-42754381D01*
X95224311Y-42763155D01*
X95217334Y-42820613D01*
X95216207Y-42828011D01*
X95205781Y-42884908D01*
X95205781Y-42884915D01*
X95209274Y-42942663D01*
X95209500Y-42950150D01*
X95209500Y-43400951D01*
X95189815Y-43467990D01*
X95137011Y-43513745D01*
X95067853Y-43523689D01*
X95004297Y-43494664D01*
X94997819Y-43488632D01*
X94909141Y-43399954D01*
X94722734Y-43269432D01*
X94722732Y-43269431D01*
X94516497Y-43173261D01*
X94516488Y-43173258D01*
X94296697Y-43114366D01*
X94296693Y-43114365D01*
X94296692Y-43114365D01*
X94296691Y-43114364D01*
X94296686Y-43114364D01*
X94070002Y-43094532D01*
X94069998Y-43094532D01*
X93843313Y-43114364D01*
X93843302Y-43114366D01*
X93623511Y-43173258D01*
X93623502Y-43173261D01*
X93417267Y-43269431D01*
X93417265Y-43269432D01*
X93230858Y-43399954D01*
X93069954Y-43560858D01*
X92939432Y-43747265D01*
X92939431Y-43747267D01*
X92843261Y-43953502D01*
X92843258Y-43953511D01*
X92784366Y-44173302D01*
X92784364Y-44173312D01*
X92765400Y-44390073D01*
X92739947Y-44455141D01*
X92729553Y-44466946D01*
X87931365Y-49265134D01*
X87870042Y-49298619D01*
X87800350Y-49293635D01*
X87744417Y-49251763D01*
X87723909Y-49209546D01*
X87676741Y-49033511D01*
X87676738Y-49033502D01*
X87644193Y-48963710D01*
X87580568Y-48827266D01*
X87450047Y-48640861D01*
X87450045Y-48640858D01*
X87289141Y-48479954D01*
X87102734Y-48349432D01*
X87102728Y-48349429D01*
X87074380Y-48336210D01*
X87044724Y-48322381D01*
X86992285Y-48276210D01*
X86973133Y-48209017D01*
X86993348Y-48142135D01*
X87044725Y-48097618D01*
X87060961Y-48090047D01*
X87102734Y-48070568D01*
X87289139Y-47940047D01*
X87450047Y-47779139D01*
X87580568Y-47592734D01*
X87676739Y-47386496D01*
X87735635Y-47166692D01*
X87755468Y-46940000D01*
X87735635Y-46713308D01*
X87687016Y-46531858D01*
X87676741Y-46493511D01*
X87676738Y-46493502D01*
X87650515Y-46437267D01*
X87580568Y-46287266D01*
X87450047Y-46100861D01*
X87450045Y-46100858D01*
X87289143Y-45939956D01*
X87263912Y-45922289D01*
X87220287Y-45867712D01*
X87213095Y-45798213D01*
X87244617Y-45735859D01*
X87304847Y-45700445D01*
X87321781Y-45697424D01*
X87357380Y-45693596D01*
X87492086Y-45643354D01*
X87492093Y-45643350D01*
X87607187Y-45557190D01*
X87607190Y-45557187D01*
X87693350Y-45442093D01*
X87693354Y-45442086D01*
X87743596Y-45307379D01*
X87743598Y-45307372D01*
X87749999Y-45247844D01*
X87750000Y-45247827D01*
X87750000Y-44650000D01*
X86765686Y-44650000D01*
X86777641Y-44638045D01*
X86835165Y-44525148D01*
X86854986Y-44400000D01*
X86835165Y-44274852D01*
X86777641Y-44161955D01*
X86765686Y-44150000D01*
X87750000Y-44150000D01*
X87750000Y-43552172D01*
X87749999Y-43552155D01*
X87743598Y-43492627D01*
X87743596Y-43492620D01*
X87693354Y-43357913D01*
X87693350Y-43357906D01*
X87607190Y-43242812D01*
X87607187Y-43242809D01*
X87492093Y-43156649D01*
X87492086Y-43156645D01*
X87357379Y-43106403D01*
X87357372Y-43106401D01*
X87297844Y-43100000D01*
X86700000Y-43100000D01*
X86700000Y-44084314D01*
X86688045Y-44072359D01*
X86575148Y-44014835D01*
X86481481Y-44000000D01*
X86418519Y-44000000D01*
X86324852Y-44014835D01*
X86211955Y-44072359D01*
X86200000Y-44084314D01*
X86200000Y-43100000D01*
X85602155Y-43100000D01*
X85542627Y-43106401D01*
X85542620Y-43106403D01*
X85407913Y-43156645D01*
X85407906Y-43156649D01*
X85292812Y-43242809D01*
X85292809Y-43242812D01*
X85206649Y-43357906D01*
X85206645Y-43357913D01*
X85156403Y-43492620D01*
X85156401Y-43492627D01*
X85150000Y-43552155D01*
X85150000Y-44150000D01*
X86134314Y-44150000D01*
X86122359Y-44161955D01*
X86064835Y-44274852D01*
X86045014Y-44400000D01*
X86064835Y-44525148D01*
X86122359Y-44638045D01*
X86134314Y-44650000D01*
X85150000Y-44650000D01*
X85150000Y-45247844D01*
X85156401Y-45307372D01*
X85156403Y-45307379D01*
X85206645Y-45442086D01*
X85206649Y-45442093D01*
X85292809Y-45557187D01*
X85292812Y-45557190D01*
X85407906Y-45643350D01*
X85407913Y-45643354D01*
X85542620Y-45693596D01*
X85542627Y-45693598D01*
X85578218Y-45697425D01*
X85642769Y-45724163D01*
X85682618Y-45781555D01*
X85685111Y-45851380D01*
X85649459Y-45911469D01*
X85636088Y-45922287D01*
X85610861Y-45939951D01*
X85449954Y-46100858D01*
X85319432Y-46287265D01*
X85319431Y-46287267D01*
X85223261Y-46493502D01*
X85223258Y-46493511D01*
X85164366Y-46713302D01*
X85164364Y-46713313D01*
X85144532Y-46939998D01*
X85144532Y-46940001D01*
X85164364Y-47166686D01*
X85164366Y-47166697D01*
X85223258Y-47386488D01*
X85223261Y-47386497D01*
X85319431Y-47592732D01*
X85319432Y-47592734D01*
X85449954Y-47779141D01*
X85610858Y-47940045D01*
X85610861Y-47940047D01*
X85797266Y-48070568D01*
X85839039Y-48090047D01*
X85855275Y-48097618D01*
X85907714Y-48143791D01*
X85926866Y-48210984D01*
X85906650Y-48277865D01*
X85855275Y-48322381D01*
X85838272Y-48330310D01*
X85797267Y-48349431D01*
X85797265Y-48349432D01*
X85610858Y-48479954D01*
X85449954Y-48640858D01*
X85372397Y-48751623D01*
X85317820Y-48795248D01*
X85270822Y-48804500D01*
X82865051Y-48804500D01*
X82857565Y-48804274D01*
X82848537Y-48803728D01*
X82799818Y-48800781D01*
X82799808Y-48800781D01*
X82742911Y-48811207D01*
X82735513Y-48812334D01*
X82678055Y-48819311D01*
X82669281Y-48822639D01*
X82647678Y-48828660D01*
X82643159Y-48829488D01*
X82638460Y-48830350D01*
X82585681Y-48854102D01*
X82578769Y-48856965D01*
X82524674Y-48877482D01*
X82524670Y-48877484D01*
X82516956Y-48882808D01*
X82497425Y-48893824D01*
X82488871Y-48897674D01*
X82488870Y-48897674D01*
X82443305Y-48933371D01*
X82437277Y-48937807D01*
X82389672Y-48970667D01*
X82389669Y-48970669D01*
X82351314Y-49013963D01*
X82346181Y-49019415D01*
X62147418Y-69218181D01*
X62086095Y-69251666D01*
X62059737Y-69254500D01*
X61898682Y-69254500D01*
X61831643Y-69234815D01*
X61785888Y-69182011D01*
X61775944Y-69112853D01*
X61778907Y-69098407D01*
X61812832Y-68971793D01*
X61835635Y-68886692D01*
X61855468Y-68660000D01*
X61835635Y-68433308D01*
X61776739Y-68213504D01*
X61680568Y-68007266D01*
X61551623Y-67823112D01*
X61550045Y-67820858D01*
X61389143Y-67659956D01*
X61364536Y-67642726D01*
X61320912Y-67588149D01*
X61313719Y-67518650D01*
X61345241Y-67456296D01*
X61405471Y-67420882D01*
X61422404Y-67417861D01*
X61457483Y-67414091D01*
X61592331Y-67363796D01*
X61707546Y-67277546D01*
X61793796Y-67162331D01*
X61844091Y-67027483D01*
X61850500Y-66967873D01*
X61850499Y-65272128D01*
X61844091Y-65212517D01*
X61840499Y-65202887D01*
X61793797Y-65077671D01*
X61793793Y-65077664D01*
X61707547Y-64962455D01*
X61707544Y-64962452D01*
X61592335Y-64876206D01*
X61592328Y-64876202D01*
X61457482Y-64825908D01*
X61457483Y-64825908D01*
X61397883Y-64819501D01*
X61397881Y-64819500D01*
X61397873Y-64819500D01*
X61397865Y-64819500D01*
X61314494Y-64819500D01*
X61247455Y-64799815D01*
X61201700Y-64747011D01*
X61201418Y-64746390D01*
X61175905Y-64689701D01*
X61173040Y-64682783D01*
X61152520Y-64628679D01*
X61152519Y-64628678D01*
X61152518Y-64628674D01*
X61147198Y-64620966D01*
X61136171Y-64601415D01*
X61132326Y-64592871D01*
X61096641Y-64547324D01*
X61092201Y-64541290D01*
X61059333Y-64493672D01*
X61059332Y-64493671D01*
X61016010Y-64455291D01*
X61010572Y-64450171D01*
X60400119Y-63839718D01*
X60366634Y-63778395D01*
X60363800Y-63752037D01*
X60363800Y-61069144D01*
X60383485Y-61002105D01*
X60436289Y-60956350D01*
X60505447Y-60946406D01*
X60519894Y-60949369D01*
X60629999Y-60978871D01*
X60630000Y-60978871D01*
X60630000Y-60015686D01*
X60641955Y-60027641D01*
X60754852Y-60085165D01*
X60848519Y-60100000D01*
X60911481Y-60100000D01*
X61005148Y-60085165D01*
X61118045Y-60027641D01*
X61130000Y-60015686D01*
X61130000Y-60978872D01*
X61326317Y-60926269D01*
X61326326Y-60926265D01*
X61532482Y-60830134D01*
X61718820Y-60699657D01*
X61879657Y-60538820D01*
X62010134Y-60352482D01*
X62106265Y-60146326D01*
X62106269Y-60146317D01*
X62158872Y-59950000D01*
X61195686Y-59950000D01*
X61207641Y-59938045D01*
X61265165Y-59825148D01*
X61284986Y-59700000D01*
X61265165Y-59574852D01*
X61207641Y-59461955D01*
X61195686Y-59450000D01*
X62158872Y-59450000D01*
X62158872Y-59449999D01*
X62106269Y-59253682D01*
X62106265Y-59253673D01*
X62010134Y-59047517D01*
X61879657Y-58861179D01*
X61718820Y-58700342D01*
X61532482Y-58569865D01*
X61474133Y-58542657D01*
X61421694Y-58496484D01*
X61402542Y-58429291D01*
X61422758Y-58362410D01*
X61474129Y-58317895D01*
X61532734Y-58290568D01*
X61719139Y-58160047D01*
X61880047Y-57999139D01*
X62010568Y-57812734D01*
X62106739Y-57606496D01*
X62165635Y-57386692D01*
X62185468Y-57160000D01*
X62165635Y-56933308D01*
X62106739Y-56713504D01*
X62010568Y-56507266D01*
X61900417Y-56349953D01*
X61880045Y-56320858D01*
X61719141Y-56159954D01*
X61532734Y-56029432D01*
X61532728Y-56029429D01*
X61502226Y-56015206D01*
X61474724Y-56002381D01*
X61422285Y-55956210D01*
X61403133Y-55889017D01*
X61423348Y-55822135D01*
X61474725Y-55777618D01*
X61489758Y-55770608D01*
X61532734Y-55750568D01*
X61719139Y-55620047D01*
X61880047Y-55459139D01*
X62010568Y-55272734D01*
X62106739Y-55066496D01*
X62165635Y-54846692D01*
X62185468Y-54620000D01*
X62165635Y-54393308D01*
X62106739Y-54173504D01*
X62010568Y-53967266D01*
X61880047Y-53780861D01*
X61880045Y-53780858D01*
X61719141Y-53619954D01*
X61532734Y-53489432D01*
X61532728Y-53489429D01*
X61474725Y-53462382D01*
X61422285Y-53416210D01*
X61403133Y-53349017D01*
X61423348Y-53282135D01*
X61474725Y-53237618D01*
X61532734Y-53210568D01*
X61719139Y-53080047D01*
X61880047Y-52919139D01*
X62010568Y-52732734D01*
X62106739Y-52526496D01*
X62165635Y-52306692D01*
X62185004Y-52085300D01*
X62185468Y-52080001D01*
X62185468Y-52079998D01*
X62174361Y-51953051D01*
X62165635Y-51853308D01*
X62106739Y-51633504D01*
X62010568Y-51427266D01*
X61880047Y-51240861D01*
X61880045Y-51240858D01*
X61719141Y-51079954D01*
X61532734Y-50949432D01*
X61532728Y-50949429D01*
X61474725Y-50922382D01*
X61422285Y-50876210D01*
X61403133Y-50809017D01*
X61423348Y-50742135D01*
X61474725Y-50697618D01*
X61532734Y-50670568D01*
X61719139Y-50540047D01*
X61880047Y-50379139D01*
X62010568Y-50192734D01*
X62106739Y-49986496D01*
X62165635Y-49766692D01*
X62185468Y-49540000D01*
X62181968Y-49500000D01*
X62177631Y-49450426D01*
X62165635Y-49313308D01*
X62106739Y-49093504D01*
X62010568Y-48887266D01*
X61894130Y-48720974D01*
X61880045Y-48700858D01*
X61719141Y-48539954D01*
X61532734Y-48409432D01*
X61532728Y-48409429D01*
X61474725Y-48382382D01*
X61422285Y-48336210D01*
X61403133Y-48269017D01*
X61423348Y-48202135D01*
X61474725Y-48157618D01*
X61532734Y-48130568D01*
X61719139Y-48000047D01*
X61880047Y-47839139D01*
X62010568Y-47652734D01*
X62106739Y-47446496D01*
X62165635Y-47226692D01*
X62185468Y-47000000D01*
X62181725Y-46957223D01*
X62179801Y-46935230D01*
X62165635Y-46773308D01*
X62108829Y-46561304D01*
X62106741Y-46553511D01*
X62106738Y-46553502D01*
X62010568Y-46347266D01*
X61880047Y-46160861D01*
X61880045Y-46160858D01*
X61719143Y-45999956D01*
X61694536Y-45982726D01*
X61650912Y-45928149D01*
X61643719Y-45858650D01*
X61675241Y-45796296D01*
X61735471Y-45760882D01*
X61752404Y-45757861D01*
X61787483Y-45754091D01*
X61922331Y-45703796D01*
X62037546Y-45617546D01*
X62123796Y-45502331D01*
X62174091Y-45367483D01*
X62180500Y-45307873D01*
X62180500Y-45259500D01*
X62200185Y-45192461D01*
X62252989Y-45146706D01*
X62304500Y-45135500D01*
X62428837Y-45135500D01*
X62495876Y-45155185D01*
X62516518Y-45171819D01*
X63288181Y-45943482D01*
X63321666Y-46004805D01*
X63324500Y-46031163D01*
X63324500Y-57275849D01*
X63324274Y-57283336D01*
X63320781Y-57341082D01*
X63320781Y-57341085D01*
X63331207Y-57397987D01*
X63332334Y-57405387D01*
X63339312Y-57462845D01*
X63342637Y-57471614D01*
X63348661Y-57493223D01*
X63350350Y-57502440D01*
X63374095Y-57555200D01*
X63376960Y-57562117D01*
X63397481Y-57616224D01*
X63397481Y-57616225D01*
X63402805Y-57623938D01*
X63413824Y-57643476D01*
X63417671Y-57652023D01*
X63417672Y-57652025D01*
X63417673Y-57652026D01*
X63417674Y-57652028D01*
X63453372Y-57697592D01*
X63457785Y-57703589D01*
X63490668Y-57751229D01*
X63533989Y-57789608D01*
X63539426Y-57794727D01*
X65905271Y-60160572D01*
X65910391Y-60166010D01*
X65948771Y-60209332D01*
X65948772Y-60209333D01*
X65996390Y-60242201D01*
X66002424Y-60246641D01*
X66047971Y-60282326D01*
X66056515Y-60286171D01*
X66076066Y-60297198D01*
X66076782Y-60297692D01*
X66083774Y-60302518D01*
X66083778Y-60302519D01*
X66083779Y-60302520D01*
X66137883Y-60323040D01*
X66144798Y-60325903D01*
X66197561Y-60349650D01*
X66197564Y-60349650D01*
X66197565Y-60349651D01*
X66200669Y-60350219D01*
X66206765Y-60351336D01*
X66228396Y-60357365D01*
X66237155Y-60360688D01*
X66294585Y-60367660D01*
X66301976Y-60368784D01*
X66358915Y-60379220D01*
X66416675Y-60375726D01*
X66424162Y-60375500D01*
X67320822Y-60375500D01*
X67387861Y-60395185D01*
X67422397Y-60428377D01*
X67499954Y-60539141D01*
X67660858Y-60700045D01*
X67660861Y-60700047D01*
X67847266Y-60830568D01*
X68053504Y-60926739D01*
X68053509Y-60926740D01*
X68053511Y-60926741D01*
X68073105Y-60931991D01*
X68273308Y-60985635D01*
X68435230Y-60999801D01*
X68499998Y-61005468D01*
X68500000Y-61005468D01*
X68500002Y-61005468D01*
X68556796Y-61000499D01*
X68726692Y-60985635D01*
X68946496Y-60926739D01*
X69152734Y-60830568D01*
X69339139Y-60700047D01*
X69500047Y-60539139D01*
X69630568Y-60352734D01*
X69631221Y-60351335D01*
X69697438Y-60209332D01*
X69726739Y-60146496D01*
X69785635Y-59926692D01*
X69802634Y-59732384D01*
X69805468Y-59700001D01*
X69805468Y-59699998D01*
X69793524Y-59563481D01*
X69785635Y-59473308D01*
X69726739Y-59253504D01*
X69630568Y-59047266D01*
X69503561Y-58865880D01*
X69500045Y-58860858D01*
X69339141Y-58699954D01*
X69152734Y-58569432D01*
X69152728Y-58569429D01*
X69094725Y-58542382D01*
X69042285Y-58496210D01*
X69023133Y-58429017D01*
X69043348Y-58362135D01*
X69094725Y-58317618D01*
X69152734Y-58290568D01*
X69339139Y-58160047D01*
X69500047Y-57999139D01*
X69630568Y-57812734D01*
X69726739Y-57606496D01*
X69785635Y-57386692D01*
X69805468Y-57160000D01*
X69785635Y-56933308D01*
X69726739Y-56713504D01*
X69630568Y-56507266D01*
X69520417Y-56349953D01*
X69500045Y-56320858D01*
X69339141Y-56159954D01*
X69152734Y-56029432D01*
X69152728Y-56029429D01*
X69122226Y-56015206D01*
X69094724Y-56002381D01*
X69042285Y-55956210D01*
X69023133Y-55889017D01*
X69043348Y-55822135D01*
X69094725Y-55777618D01*
X69109758Y-55770608D01*
X69152734Y-55750568D01*
X69339139Y-55620047D01*
X69500047Y-55459139D01*
X69630568Y-55272734D01*
X69726739Y-55066496D01*
X69785635Y-54846692D01*
X69805468Y-54620000D01*
X69785635Y-54393308D01*
X69726739Y-54173504D01*
X69630568Y-53967266D01*
X69500047Y-53780861D01*
X69500045Y-53780858D01*
X69339141Y-53619954D01*
X69152734Y-53489432D01*
X69152728Y-53489429D01*
X69094725Y-53462382D01*
X69042285Y-53416210D01*
X69023133Y-53349017D01*
X69043348Y-53282135D01*
X69094725Y-53237618D01*
X69152734Y-53210568D01*
X69339139Y-53080047D01*
X69500047Y-52919139D01*
X69630568Y-52732734D01*
X69726739Y-52526496D01*
X69785635Y-52306692D01*
X69805004Y-52085300D01*
X69805468Y-52080001D01*
X69805468Y-52079998D01*
X69794361Y-51953051D01*
X69785635Y-51853308D01*
X69726739Y-51633504D01*
X69630568Y-51427266D01*
X69500047Y-51240861D01*
X69500045Y-51240858D01*
X69339141Y-51079954D01*
X69152734Y-50949432D01*
X69152728Y-50949429D01*
X69094725Y-50922382D01*
X69042285Y-50876210D01*
X69023133Y-50809017D01*
X69043348Y-50742135D01*
X69094725Y-50697618D01*
X69152734Y-50670568D01*
X69339139Y-50540047D01*
X69500047Y-50379139D01*
X69630568Y-50192734D01*
X69726739Y-49986496D01*
X69776710Y-49800002D01*
X70295034Y-49800002D01*
X70314858Y-50026599D01*
X70314860Y-50026610D01*
X70373730Y-50246317D01*
X70373735Y-50246331D01*
X70469863Y-50452478D01*
X70520974Y-50525472D01*
X71202046Y-49844400D01*
X71214835Y-49925148D01*
X71272359Y-50038045D01*
X71361955Y-50127641D01*
X71474852Y-50185165D01*
X71555599Y-50197953D01*
X70874526Y-50879025D01*
X70947513Y-50930132D01*
X70947521Y-50930136D01*
X71153668Y-51026264D01*
X71153682Y-51026269D01*
X71373389Y-51085139D01*
X71373400Y-51085141D01*
X71599998Y-51104966D01*
X71600002Y-51104966D01*
X71826599Y-51085141D01*
X71826610Y-51085139D01*
X72046317Y-51026269D01*
X72046331Y-51026264D01*
X72252478Y-50930136D01*
X72325471Y-50879024D01*
X71644400Y-50197953D01*
X71725148Y-50185165D01*
X71838045Y-50127641D01*
X71927641Y-50038045D01*
X71985165Y-49925148D01*
X71997953Y-49844400D01*
X72679024Y-50525471D01*
X72730136Y-50452478D01*
X72826264Y-50246331D01*
X72826269Y-50246317D01*
X72885139Y-50026610D01*
X72885141Y-50026599D01*
X72904966Y-49800002D01*
X72904966Y-49799997D01*
X72885141Y-49573400D01*
X72885139Y-49573389D01*
X72826269Y-49353682D01*
X72826264Y-49353668D01*
X72730136Y-49147521D01*
X72730132Y-49147513D01*
X72679025Y-49074526D01*
X71997953Y-49755598D01*
X71985165Y-49674852D01*
X71927641Y-49561955D01*
X71838045Y-49472359D01*
X71725148Y-49414835D01*
X71644401Y-49402046D01*
X72325472Y-48720974D01*
X72252478Y-48669863D01*
X72046331Y-48573735D01*
X72046317Y-48573730D01*
X71826610Y-48514860D01*
X71826599Y-48514858D01*
X71600002Y-48495034D01*
X71599998Y-48495034D01*
X71373400Y-48514858D01*
X71373389Y-48514860D01*
X71153682Y-48573730D01*
X71153673Y-48573734D01*
X70947516Y-48669866D01*
X70947512Y-48669868D01*
X70874526Y-48720973D01*
X70874526Y-48720974D01*
X71555599Y-49402046D01*
X71474852Y-49414835D01*
X71361955Y-49472359D01*
X71272359Y-49561955D01*
X71214835Y-49674852D01*
X71202046Y-49755598D01*
X70520974Y-49074526D01*
X70520973Y-49074526D01*
X70469868Y-49147512D01*
X70469866Y-49147516D01*
X70373734Y-49353673D01*
X70373730Y-49353682D01*
X70314860Y-49573389D01*
X70314858Y-49573400D01*
X70295034Y-49799997D01*
X70295034Y-49800002D01*
X69776710Y-49800002D01*
X69785635Y-49766692D01*
X69805468Y-49540000D01*
X69801968Y-49500000D01*
X69797631Y-49450426D01*
X69785635Y-49313308D01*
X69726739Y-49093504D01*
X69630568Y-48887266D01*
X69514130Y-48720974D01*
X69500045Y-48700858D01*
X69339141Y-48539954D01*
X69152734Y-48409432D01*
X69152728Y-48409429D01*
X69094725Y-48382382D01*
X69042285Y-48336210D01*
X69023133Y-48269017D01*
X69043348Y-48202135D01*
X69094725Y-48157618D01*
X69152734Y-48130568D01*
X69339139Y-48000047D01*
X69500047Y-47839139D01*
X69630568Y-47652734D01*
X69726739Y-47446496D01*
X69785635Y-47226692D01*
X69797594Y-47090001D01*
X75444532Y-47090001D01*
X75464364Y-47316686D01*
X75464366Y-47316697D01*
X75523258Y-47536488D01*
X75523261Y-47536497D01*
X75619431Y-47742732D01*
X75619432Y-47742734D01*
X75749954Y-47929141D01*
X75910858Y-48090045D01*
X75933195Y-48105685D01*
X76097266Y-48220568D01*
X76303504Y-48316739D01*
X76303509Y-48316740D01*
X76303511Y-48316741D01*
X76319309Y-48320974D01*
X76523308Y-48375635D01*
X76685230Y-48389801D01*
X76749998Y-48395468D01*
X76750000Y-48395468D01*
X76750002Y-48395468D01*
X76806673Y-48390509D01*
X76976692Y-48375635D01*
X77196496Y-48316739D01*
X77402734Y-48220568D01*
X77589139Y-48090047D01*
X77750047Y-47929139D01*
X77880568Y-47742734D01*
X77976739Y-47536496D01*
X78035635Y-47316692D01*
X78055468Y-47090000D01*
X78051094Y-47040001D01*
X79094532Y-47040001D01*
X79114364Y-47266686D01*
X79114366Y-47266697D01*
X79173258Y-47486488D01*
X79173261Y-47486497D01*
X79269431Y-47692732D01*
X79269432Y-47692734D01*
X79399954Y-47879141D01*
X79560858Y-48040045D01*
X79560861Y-48040047D01*
X79747266Y-48170568D01*
X79953504Y-48266739D01*
X79953509Y-48266740D01*
X79953511Y-48266741D01*
X79988850Y-48276210D01*
X80173308Y-48325635D01*
X80335230Y-48339801D01*
X80399998Y-48345468D01*
X80400000Y-48345468D01*
X80400002Y-48345468D01*
X80456673Y-48340509D01*
X80626692Y-48325635D01*
X80846496Y-48266739D01*
X81052734Y-48170568D01*
X81239139Y-48040047D01*
X81400047Y-47879139D01*
X81530568Y-47692734D01*
X81626739Y-47486496D01*
X81685635Y-47266692D01*
X81705468Y-47040000D01*
X81701968Y-47000000D01*
X81685635Y-46813313D01*
X81685635Y-46813308D01*
X81626739Y-46593504D01*
X81530568Y-46387266D01*
X81400047Y-46200861D01*
X81400045Y-46200858D01*
X81239141Y-46039954D01*
X81052734Y-45909432D01*
X81052732Y-45909431D01*
X80846497Y-45813261D01*
X80846488Y-45813258D01*
X80626697Y-45754366D01*
X80626693Y-45754365D01*
X80626692Y-45754365D01*
X80626691Y-45754364D01*
X80626686Y-45754364D01*
X80400002Y-45734532D01*
X80399998Y-45734532D01*
X80173313Y-45754364D01*
X80173302Y-45754366D01*
X79953511Y-45813258D01*
X79953502Y-45813261D01*
X79747267Y-45909431D01*
X79747265Y-45909432D01*
X79560858Y-46039954D01*
X79399954Y-46200858D01*
X79269432Y-46387265D01*
X79269431Y-46387267D01*
X79173261Y-46593502D01*
X79173258Y-46593511D01*
X79114366Y-46813302D01*
X79114364Y-46813313D01*
X79094532Y-47039998D01*
X79094532Y-47040001D01*
X78051094Y-47040001D01*
X78035635Y-46863308D01*
X77990916Y-46696415D01*
X77976741Y-46643511D01*
X77976738Y-46643502D01*
X77953423Y-46593504D01*
X77880568Y-46437266D01*
X77750047Y-46250861D01*
X77750045Y-46250858D01*
X77589141Y-46089954D01*
X77402734Y-45959432D01*
X77402732Y-45959431D01*
X77196497Y-45863261D01*
X77196488Y-45863258D01*
X76976697Y-45804366D01*
X76976693Y-45804365D01*
X76976692Y-45804365D01*
X76976691Y-45804364D01*
X76976686Y-45804364D01*
X76750002Y-45784532D01*
X76749998Y-45784532D01*
X76523313Y-45804364D01*
X76523302Y-45804366D01*
X76303511Y-45863258D01*
X76303502Y-45863261D01*
X76097267Y-45959431D01*
X76097265Y-45959432D01*
X75910858Y-46089954D01*
X75749954Y-46250858D01*
X75619432Y-46437265D01*
X75619431Y-46437267D01*
X75523261Y-46643502D01*
X75523258Y-46643511D01*
X75464366Y-46863302D01*
X75464364Y-46863313D01*
X75444532Y-47089998D01*
X75444532Y-47090001D01*
X69797594Y-47090001D01*
X69805468Y-47000000D01*
X69801725Y-46957223D01*
X69799801Y-46935230D01*
X69785635Y-46773308D01*
X69728829Y-46561304D01*
X69726741Y-46553511D01*
X69726738Y-46553502D01*
X69630568Y-46347266D01*
X69500047Y-46160861D01*
X69500045Y-46160858D01*
X69339141Y-45999954D01*
X69152734Y-45869432D01*
X69152728Y-45869429D01*
X69125038Y-45856517D01*
X69094724Y-45842381D01*
X69042285Y-45796210D01*
X69023133Y-45729017D01*
X69043348Y-45662135D01*
X69094725Y-45617618D01*
X69152734Y-45590568D01*
X69339139Y-45460047D01*
X69500047Y-45299139D01*
X69630568Y-45112734D01*
X69726739Y-44906496D01*
X69755274Y-44800001D01*
X70294532Y-44800001D01*
X70314364Y-45026686D01*
X70314366Y-45026697D01*
X70373258Y-45246488D01*
X70373261Y-45246497D01*
X70469431Y-45452732D01*
X70469432Y-45452734D01*
X70599954Y-45639141D01*
X70760858Y-45800045D01*
X70760861Y-45800047D01*
X70947266Y-45930568D01*
X71153504Y-46026739D01*
X71153509Y-46026740D01*
X71153511Y-46026741D01*
X71190825Y-46036739D01*
X71373308Y-46085635D01*
X71535230Y-46099801D01*
X71599998Y-46105468D01*
X71600000Y-46105468D01*
X71600002Y-46105468D01*
X71656673Y-46100509D01*
X71826692Y-46085635D01*
X72046496Y-46026739D01*
X72252734Y-45930568D01*
X72439139Y-45800047D01*
X72600047Y-45639139D01*
X72730568Y-45452734D01*
X72826739Y-45246496D01*
X72885635Y-45026692D01*
X72905468Y-44800000D01*
X72902031Y-44760720D01*
X72892574Y-44652621D01*
X72885635Y-44573308D01*
X72836538Y-44390073D01*
X72826741Y-44353511D01*
X72826738Y-44353502D01*
X72772899Y-44238045D01*
X72730568Y-44147266D01*
X72600047Y-43960861D01*
X72600045Y-43960858D01*
X72439141Y-43799954D01*
X72252734Y-43669432D01*
X72252732Y-43669431D01*
X72046497Y-43573261D01*
X72046488Y-43573258D01*
X71826697Y-43514366D01*
X71826693Y-43514365D01*
X71826692Y-43514365D01*
X71826691Y-43514364D01*
X71826686Y-43514364D01*
X71600002Y-43494532D01*
X71599998Y-43494532D01*
X71373313Y-43514364D01*
X71373302Y-43514366D01*
X71153511Y-43573258D01*
X71153502Y-43573261D01*
X70947267Y-43669431D01*
X70947265Y-43669432D01*
X70760858Y-43799954D01*
X70599954Y-43960858D01*
X70469432Y-44147265D01*
X70469431Y-44147267D01*
X70373261Y-44353502D01*
X70373258Y-44353511D01*
X70314366Y-44573302D01*
X70314364Y-44573313D01*
X70294532Y-44799998D01*
X70294532Y-44800001D01*
X69755274Y-44800001D01*
X69785635Y-44686692D01*
X69805468Y-44460000D01*
X69800218Y-44399998D01*
X69793888Y-44327641D01*
X69785635Y-44233308D01*
X69726739Y-44013504D01*
X69630568Y-43807266D01*
X69500047Y-43620861D01*
X69500045Y-43620858D01*
X69339141Y-43459954D01*
X69152734Y-43329432D01*
X69152732Y-43329431D01*
X68946497Y-43233261D01*
X68946488Y-43233258D01*
X68726697Y-43174366D01*
X68726693Y-43174365D01*
X68726692Y-43174365D01*
X68726691Y-43174364D01*
X68726686Y-43174364D01*
X68500002Y-43154532D01*
X68499998Y-43154532D01*
X68273313Y-43174364D01*
X68273302Y-43174366D01*
X68053511Y-43233258D01*
X68053502Y-43233261D01*
X67847267Y-43329431D01*
X67847265Y-43329432D01*
X67660858Y-43459954D01*
X67499954Y-43620858D01*
X67369432Y-43807265D01*
X67369431Y-43807267D01*
X67273261Y-44013502D01*
X67273258Y-44013511D01*
X67214366Y-44233302D01*
X67214364Y-44233313D01*
X67194532Y-44459998D01*
X67194532Y-44460001D01*
X67214364Y-44686686D01*
X67214366Y-44686697D01*
X67273258Y-44906488D01*
X67273261Y-44906497D01*
X67369431Y-45112732D01*
X67369432Y-45112734D01*
X67499954Y-45299141D01*
X67660858Y-45460045D01*
X67660861Y-45460047D01*
X67847266Y-45590568D01*
X67905275Y-45617618D01*
X67957714Y-45663791D01*
X67976866Y-45730984D01*
X67956650Y-45797865D01*
X67905275Y-45842382D01*
X67847267Y-45869431D01*
X67847265Y-45869432D01*
X67660858Y-45999954D01*
X67499954Y-46160858D01*
X67369432Y-46347265D01*
X67369431Y-46347267D01*
X67273261Y-46553502D01*
X67273258Y-46553511D01*
X67214366Y-46773302D01*
X67214364Y-46773313D01*
X67194532Y-46999998D01*
X67194532Y-47000001D01*
X67214364Y-47226686D01*
X67214366Y-47226697D01*
X67273258Y-47446488D01*
X67273261Y-47446497D01*
X67369431Y-47652732D01*
X67369432Y-47652734D01*
X67499954Y-47839141D01*
X67660858Y-48000045D01*
X67660861Y-48000047D01*
X67847266Y-48130568D01*
X67875623Y-48143791D01*
X67905275Y-48157618D01*
X67957714Y-48203791D01*
X67976866Y-48270984D01*
X67956650Y-48337865D01*
X67905275Y-48382382D01*
X67847267Y-48409431D01*
X67847265Y-48409432D01*
X67660858Y-48539954D01*
X67499954Y-48700858D01*
X67369432Y-48887265D01*
X67369431Y-48887267D01*
X67273261Y-49093502D01*
X67273258Y-49093511D01*
X67214366Y-49313302D01*
X67214364Y-49313313D01*
X67194532Y-49539998D01*
X67194532Y-49540001D01*
X67214364Y-49766686D01*
X67214366Y-49766697D01*
X67273258Y-49986488D01*
X67273261Y-49986497D01*
X67369431Y-50192732D01*
X67369432Y-50192734D01*
X67499954Y-50379141D01*
X67660858Y-50540045D01*
X67660861Y-50540047D01*
X67847266Y-50670568D01*
X67905275Y-50697618D01*
X67957714Y-50743791D01*
X67976866Y-50810984D01*
X67956650Y-50877865D01*
X67905275Y-50922382D01*
X67847267Y-50949431D01*
X67847265Y-50949432D01*
X67660858Y-51079954D01*
X67499954Y-51240858D01*
X67369432Y-51427265D01*
X67369431Y-51427267D01*
X67273261Y-51633502D01*
X67273258Y-51633511D01*
X67214366Y-51853302D01*
X67214364Y-51853313D01*
X67194532Y-52079998D01*
X67194532Y-52080001D01*
X67214364Y-52306686D01*
X67214366Y-52306697D01*
X67273258Y-52526488D01*
X67273261Y-52526497D01*
X67369429Y-52732728D01*
X67369432Y-52732734D01*
X67499954Y-52919141D01*
X67660858Y-53080045D01*
X67660861Y-53080047D01*
X67847266Y-53210568D01*
X67905275Y-53237618D01*
X67957714Y-53283791D01*
X67976866Y-53350984D01*
X67956650Y-53417865D01*
X67905275Y-53462382D01*
X67847267Y-53489431D01*
X67847265Y-53489432D01*
X67660858Y-53619954D01*
X67499954Y-53780858D01*
X67369432Y-53967265D01*
X67369431Y-53967267D01*
X67273261Y-54173502D01*
X67273258Y-54173511D01*
X67214366Y-54393302D01*
X67214364Y-54393313D01*
X67194532Y-54619998D01*
X67194532Y-54620001D01*
X67214364Y-54846686D01*
X67214366Y-54846697D01*
X67273258Y-55066488D01*
X67273261Y-55066497D01*
X67369431Y-55272732D01*
X67369432Y-55272734D01*
X67499954Y-55459141D01*
X67660858Y-55620045D01*
X67660861Y-55620047D01*
X67847266Y-55750568D01*
X67890242Y-55770608D01*
X67905275Y-55777618D01*
X67957714Y-55823791D01*
X67976866Y-55890984D01*
X67956650Y-55957865D01*
X67905275Y-56002381D01*
X67888272Y-56010310D01*
X67847267Y-56029431D01*
X67847265Y-56029432D01*
X67660858Y-56159954D01*
X67499954Y-56320858D01*
X67369432Y-56507265D01*
X67369431Y-56507267D01*
X67273261Y-56713502D01*
X67273258Y-56713511D01*
X67214366Y-56933302D01*
X67214364Y-56933313D01*
X67194532Y-57159998D01*
X67194532Y-57160001D01*
X67214364Y-57386686D01*
X67214366Y-57386697D01*
X67273258Y-57606488D01*
X67273261Y-57606497D01*
X67369431Y-57812732D01*
X67369432Y-57812734D01*
X67499954Y-57999141D01*
X67660858Y-58160045D01*
X67660861Y-58160047D01*
X67847266Y-58290568D01*
X67905275Y-58317618D01*
X67957714Y-58363791D01*
X67976866Y-58430984D01*
X67956650Y-58497865D01*
X67905275Y-58542382D01*
X67847267Y-58569431D01*
X67847265Y-58569432D01*
X67660858Y-58699954D01*
X67499954Y-58860858D01*
X67422397Y-58971623D01*
X67367820Y-59015248D01*
X67320822Y-59024500D01*
X66731163Y-59024500D01*
X66664124Y-59004815D01*
X66643482Y-58988181D01*
X64711819Y-57056518D01*
X64678334Y-56995195D01*
X64675500Y-56968837D01*
X64675500Y-45724150D01*
X64675726Y-45716663D01*
X64679219Y-45658915D01*
X64676367Y-45643354D01*
X64668784Y-45601977D01*
X64667663Y-45594603D01*
X64667173Y-45590570D01*
X64660688Y-45537155D01*
X64657363Y-45528389D01*
X64651338Y-45506776D01*
X64649650Y-45497561D01*
X64625903Y-45444798D01*
X64623040Y-45437883D01*
X64602520Y-45383779D01*
X64602519Y-45383778D01*
X64602518Y-45383774D01*
X64597198Y-45376066D01*
X64586171Y-45356515D01*
X64582326Y-45347971D01*
X64546641Y-45302424D01*
X64542201Y-45296390D01*
X64509333Y-45248772D01*
X64509332Y-45248771D01*
X64466010Y-45210391D01*
X64460572Y-45205271D01*
X63254727Y-43999426D01*
X63249608Y-43993989D01*
X63211229Y-43950668D01*
X63163589Y-43917785D01*
X63157592Y-43913372D01*
X63112028Y-43877674D01*
X63112026Y-43877673D01*
X63112025Y-43877672D01*
X63112023Y-43877671D01*
X63103476Y-43873824D01*
X63083938Y-43862805D01*
X63076226Y-43857482D01*
X63076224Y-43857481D01*
X63022117Y-43836960D01*
X63015200Y-43834095D01*
X62962440Y-43810350D01*
X62962441Y-43810350D01*
X62955087Y-43809002D01*
X62953222Y-43808660D01*
X62931614Y-43802637D01*
X62922845Y-43799312D01*
X62865387Y-43792334D01*
X62857987Y-43791207D01*
X62801089Y-43780781D01*
X62801082Y-43780781D01*
X62752362Y-43783728D01*
X62743334Y-43784274D01*
X62735849Y-43784500D01*
X62304499Y-43784500D01*
X62237460Y-43764815D01*
X62191705Y-43712011D01*
X62180499Y-43660500D01*
X62180499Y-43612129D01*
X62180498Y-43612123D01*
X62180497Y-43612116D01*
X62174091Y-43552517D01*
X62173962Y-43552172D01*
X62123797Y-43417671D01*
X62123793Y-43417664D01*
X62037547Y-43302455D01*
X62037544Y-43302452D01*
X61922335Y-43216206D01*
X61922328Y-43216202D01*
X61787482Y-43165908D01*
X61787483Y-43165908D01*
X61727883Y-43159501D01*
X61727881Y-43159500D01*
X61727873Y-43159500D01*
X61727864Y-43159500D01*
X60032129Y-43159500D01*
X60032123Y-43159501D01*
X59972516Y-43165908D01*
X59837671Y-43216202D01*
X59837664Y-43216206D01*
X59722455Y-43302452D01*
X59722452Y-43302455D01*
X59636206Y-43417664D01*
X59636202Y-43417671D01*
X59585908Y-43552517D01*
X59579501Y-43612116D01*
X59579501Y-43612123D01*
X59579500Y-43612135D01*
X59579500Y-45307870D01*
X59579501Y-45307876D01*
X59585908Y-45367483D01*
X59636202Y-45502328D01*
X59636206Y-45502335D01*
X59722452Y-45617544D01*
X59722455Y-45617547D01*
X59837664Y-45703793D01*
X59837671Y-45703797D01*
X59863046Y-45713261D01*
X59972517Y-45754091D01*
X60007596Y-45757862D01*
X60072144Y-45784599D01*
X60111993Y-45841991D01*
X60114488Y-45911816D01*
X60078836Y-45971905D01*
X60065464Y-45982725D01*
X60040858Y-45999954D01*
X59879954Y-46160858D01*
X59749432Y-46347265D01*
X59749431Y-46347267D01*
X59653261Y-46553502D01*
X59653258Y-46553511D01*
X59594366Y-46773302D01*
X59594364Y-46773313D01*
X59574532Y-46999998D01*
X59574532Y-47000001D01*
X59594364Y-47226686D01*
X59594366Y-47226697D01*
X59653258Y-47446488D01*
X59653261Y-47446497D01*
X59749431Y-47652732D01*
X59749432Y-47652734D01*
X59879954Y-47839141D01*
X60040858Y-48000045D01*
X60040861Y-48000047D01*
X60227266Y-48130568D01*
X60255623Y-48143791D01*
X60285275Y-48157618D01*
X60337714Y-48203791D01*
X60356866Y-48270984D01*
X60336650Y-48337865D01*
X60285275Y-48382382D01*
X60227267Y-48409431D01*
X60227265Y-48409432D01*
X60040858Y-48539954D01*
X59879954Y-48700858D01*
X59749432Y-48887265D01*
X59749431Y-48887267D01*
X59653261Y-49093502D01*
X59653258Y-49093511D01*
X59594366Y-49313302D01*
X59594364Y-49313313D01*
X59574532Y-49539998D01*
X59574532Y-49540001D01*
X59594364Y-49766686D01*
X59594366Y-49766697D01*
X59653258Y-49986488D01*
X59653261Y-49986497D01*
X59749431Y-50192732D01*
X59749432Y-50192734D01*
X59879954Y-50379141D01*
X60040858Y-50540045D01*
X60040861Y-50540047D01*
X60227266Y-50670568D01*
X60285275Y-50697618D01*
X60337714Y-50743791D01*
X60356866Y-50810984D01*
X60336650Y-50877865D01*
X60285275Y-50922382D01*
X60227267Y-50949431D01*
X60227265Y-50949432D01*
X60040858Y-51079954D01*
X59879954Y-51240858D01*
X59802397Y-51351623D01*
X59747820Y-51395248D01*
X59700822Y-51404500D01*
X55211164Y-51404500D01*
X55144125Y-51384815D01*
X55123483Y-51368181D01*
X53594441Y-49839139D01*
X52050243Y-48294942D01*
X52016759Y-48233620D01*
X52021743Y-48163928D01*
X52063615Y-48107995D01*
X52066768Y-48105710D01*
X52089139Y-48090047D01*
X52250047Y-47929139D01*
X52380568Y-47742734D01*
X52476739Y-47536496D01*
X52535635Y-47316692D01*
X52546719Y-47190001D01*
X53694532Y-47190001D01*
X53714364Y-47416686D01*
X53714366Y-47416697D01*
X53773258Y-47636488D01*
X53773261Y-47636497D01*
X53869431Y-47842732D01*
X53869432Y-47842734D01*
X53999954Y-48029141D01*
X54160858Y-48190045D01*
X54160861Y-48190047D01*
X54347266Y-48320568D01*
X54553504Y-48416739D01*
X54553509Y-48416740D01*
X54553511Y-48416741D01*
X54587503Y-48425849D01*
X54773308Y-48475635D01*
X54935230Y-48489801D01*
X54999998Y-48495468D01*
X55000000Y-48495468D01*
X55000002Y-48495468D01*
X55056673Y-48490509D01*
X55226692Y-48475635D01*
X55446496Y-48416739D01*
X55652734Y-48320568D01*
X55839139Y-48190047D01*
X56000047Y-48029139D01*
X56130568Y-47842734D01*
X56226739Y-47636496D01*
X56285635Y-47416692D01*
X56305468Y-47190000D01*
X56301470Y-47144308D01*
X56296719Y-47089998D01*
X56285635Y-46963308D01*
X56226739Y-46743504D01*
X56130568Y-46537266D01*
X56014386Y-46371339D01*
X56000045Y-46350858D01*
X55839141Y-46189954D01*
X55652734Y-46059432D01*
X55652732Y-46059431D01*
X55446497Y-45963261D01*
X55446488Y-45963258D01*
X55226697Y-45904366D01*
X55226693Y-45904365D01*
X55226692Y-45904365D01*
X55226691Y-45904364D01*
X55226686Y-45904364D01*
X55000002Y-45884532D01*
X54999998Y-45884532D01*
X54773313Y-45904364D01*
X54773302Y-45904366D01*
X54553511Y-45963258D01*
X54553502Y-45963261D01*
X54347267Y-46059431D01*
X54347265Y-46059432D01*
X54160858Y-46189954D01*
X53999954Y-46350858D01*
X53869432Y-46537265D01*
X53869431Y-46537267D01*
X53773261Y-46743502D01*
X53773258Y-46743511D01*
X53714366Y-46963302D01*
X53714364Y-46963313D01*
X53694532Y-47189998D01*
X53694532Y-47190001D01*
X52546719Y-47190001D01*
X52555468Y-47090000D01*
X52535635Y-46863308D01*
X52490916Y-46696415D01*
X52476741Y-46643511D01*
X52476738Y-46643502D01*
X52453423Y-46593504D01*
X52380568Y-46437266D01*
X52250047Y-46250861D01*
X52250045Y-46250858D01*
X52089141Y-46089954D01*
X51902734Y-45959432D01*
X51902732Y-45959431D01*
X51696497Y-45863261D01*
X51696488Y-45863258D01*
X51476697Y-45804366D01*
X51476693Y-45804365D01*
X51476692Y-45804365D01*
X51476691Y-45804364D01*
X51476686Y-45804364D01*
X51250002Y-45784532D01*
X51249998Y-45784532D01*
X51023313Y-45804364D01*
X51023302Y-45804366D01*
X50803511Y-45863258D01*
X50803502Y-45863261D01*
X50597267Y-45959431D01*
X50597265Y-45959432D01*
X50410858Y-46089954D01*
X50249954Y-46250858D01*
X50119432Y-46437265D01*
X50119431Y-46437267D01*
X50023261Y-46643502D01*
X50023258Y-46643511D01*
X49964366Y-46863302D01*
X49964364Y-46863313D01*
X49944532Y-47089998D01*
X49944532Y-47090001D01*
X49964364Y-47316686D01*
X49964366Y-47316697D01*
X50023258Y-47536488D01*
X50023261Y-47536497D01*
X50119431Y-47742732D01*
X50119432Y-47742734D01*
X50249954Y-47929141D01*
X50410857Y-48090044D01*
X50410860Y-48090046D01*
X50410861Y-48090047D01*
X50521623Y-48167602D01*
X50565248Y-48222178D01*
X50574500Y-48269177D01*
X50574500Y-48425849D01*
X50574274Y-48433336D01*
X50570781Y-48491082D01*
X50570781Y-48491085D01*
X50581207Y-48547987D01*
X50582334Y-48555387D01*
X50589312Y-48612845D01*
X50592637Y-48621614D01*
X50598660Y-48643222D01*
X50599229Y-48646324D01*
X50600350Y-48652440D01*
X50618005Y-48691669D01*
X50618174Y-48692045D01*
X50624095Y-48705200D01*
X50626960Y-48712117D01*
X50647481Y-48766224D01*
X50647481Y-48766225D01*
X50647482Y-48766226D01*
X50652373Y-48773313D01*
X50652805Y-48773938D01*
X50663824Y-48793476D01*
X50667671Y-48802023D01*
X50667672Y-48802025D01*
X50667673Y-48802026D01*
X50667674Y-48802028D01*
X50703372Y-48847592D01*
X50707785Y-48853589D01*
X50740668Y-48901229D01*
X50783989Y-48939608D01*
X50789426Y-48944727D01*
X54385279Y-52540581D01*
X54390399Y-52546019D01*
X54428771Y-52589332D01*
X54476399Y-52622207D01*
X54482401Y-52626623D01*
X54527972Y-52662326D01*
X54527973Y-52662326D01*
X54527974Y-52662327D01*
X54536515Y-52666171D01*
X54556067Y-52677198D01*
X54563774Y-52682518D01*
X54563778Y-52682519D01*
X54563779Y-52682520D01*
X54617883Y-52703040D01*
X54624798Y-52705903D01*
X54677561Y-52729650D01*
X54686776Y-52731338D01*
X54708389Y-52737363D01*
X54717155Y-52740688D01*
X54774617Y-52747665D01*
X54781977Y-52748784D01*
X54838915Y-52759219D01*
X54838916Y-52759218D01*
X54838917Y-52759219D01*
X54884106Y-52756485D01*
X54896665Y-52755725D01*
X54904151Y-52755500D01*
X59700822Y-52755500D01*
X59767861Y-52775185D01*
X59802397Y-52808377D01*
X59879954Y-52919141D01*
X60040858Y-53080045D01*
X60040861Y-53080047D01*
X60227266Y-53210568D01*
X60285275Y-53237618D01*
X60337714Y-53283791D01*
X60356866Y-53350984D01*
X60336650Y-53417865D01*
X60285275Y-53462382D01*
X60227267Y-53489431D01*
X60227265Y-53489432D01*
X60040858Y-53619954D01*
X59879954Y-53780858D01*
X59749432Y-53967265D01*
X59749431Y-53967267D01*
X59653261Y-54173502D01*
X59653258Y-54173511D01*
X59594366Y-54393302D01*
X59594364Y-54393313D01*
X59574532Y-54619998D01*
X59574532Y-54620000D01*
X59588865Y-54783836D01*
X59594365Y-54846692D01*
X59595486Y-54850875D01*
X59597739Y-54859285D01*
X59596072Y-54929135D01*
X59565643Y-54979053D01*
X59227724Y-55316973D01*
X59222272Y-55322106D01*
X59178969Y-55360469D01*
X59178967Y-55360472D01*
X59146100Y-55408087D01*
X59141663Y-55414117D01*
X59105974Y-55459670D01*
X59102124Y-55468225D01*
X59091108Y-55487756D01*
X59085784Y-55495470D01*
X59085782Y-55495474D01*
X59065265Y-55549569D01*
X59062402Y-55556481D01*
X59038650Y-55609260D01*
X59036961Y-55618477D01*
X59030939Y-55640081D01*
X59027611Y-55648855D01*
X59020634Y-55706313D01*
X59019507Y-55713711D01*
X59009081Y-55770608D01*
X59009081Y-55770615D01*
X59012574Y-55828363D01*
X59012800Y-55835850D01*
X59012800Y-64059049D01*
X59012574Y-64066536D01*
X59009081Y-64124282D01*
X59009081Y-64124285D01*
X59019507Y-64181187D01*
X59020634Y-64188587D01*
X59027612Y-64246045D01*
X59030937Y-64254814D01*
X59036961Y-64276423D01*
X59038650Y-64285640D01*
X59056305Y-64324869D01*
X59060348Y-64333853D01*
X59062395Y-64338400D01*
X59065260Y-64345317D01*
X59085781Y-64399424D01*
X59085781Y-64399425D01*
X59091105Y-64407138D01*
X59102124Y-64426676D01*
X59105971Y-64435223D01*
X59105972Y-64435225D01*
X59105973Y-64435226D01*
X59105974Y-64435228D01*
X59141672Y-64480792D01*
X59146085Y-64486789D01*
X59178968Y-64534429D01*
X59222289Y-64572808D01*
X59227726Y-64577927D01*
X59416965Y-64767166D01*
X59450450Y-64828489D01*
X59445466Y-64898181D01*
X59403597Y-64954112D01*
X59392454Y-64962453D01*
X59392452Y-64962455D01*
X59306206Y-65077664D01*
X59306202Y-65077671D01*
X59255908Y-65212517D01*
X59249501Y-65272116D01*
X59249501Y-65272123D01*
X59249500Y-65272135D01*
X59249500Y-65320500D01*
X59229815Y-65387539D01*
X59177011Y-65433294D01*
X59125500Y-65444500D01*
X59104151Y-65444500D01*
X59096665Y-65444274D01*
X59087637Y-65443728D01*
X59038918Y-65440781D01*
X59038908Y-65440781D01*
X58982011Y-65451207D01*
X58974613Y-65452334D01*
X58917155Y-65459311D01*
X58908381Y-65462639D01*
X58886778Y-65468660D01*
X58882259Y-65469488D01*
X58877560Y-65470350D01*
X58824781Y-65494102D01*
X58817869Y-65496965D01*
X58763774Y-65517482D01*
X58763770Y-65517484D01*
X58756056Y-65522808D01*
X58736525Y-65533824D01*
X58727971Y-65537674D01*
X58727970Y-65537674D01*
X58682405Y-65573371D01*
X58676377Y-65577807D01*
X58628772Y-65610667D01*
X58628769Y-65610669D01*
X58590414Y-65653963D01*
X58585281Y-65659415D01*
X55939424Y-68305273D01*
X55933972Y-68310406D01*
X55890669Y-68348769D01*
X55890667Y-68348772D01*
X55857800Y-68396387D01*
X55853363Y-68402417D01*
X55817674Y-68447970D01*
X55813824Y-68456525D01*
X55802808Y-68476056D01*
X55797484Y-68483770D01*
X55797482Y-68483774D01*
X55776965Y-68537869D01*
X55774102Y-68544781D01*
X55750350Y-68597560D01*
X55748661Y-68606777D01*
X55742639Y-68628381D01*
X55739311Y-68637155D01*
X55732334Y-68694613D01*
X55731207Y-68702011D01*
X55720781Y-68758908D01*
X55720781Y-68758915D01*
X55724274Y-68816663D01*
X55724500Y-68824150D01*
X55724500Y-76775849D01*
X55724274Y-76783336D01*
X55720781Y-76841082D01*
X55720781Y-76841085D01*
X55731207Y-76897987D01*
X55732334Y-76905387D01*
X55739312Y-76962845D01*
X55742637Y-76971614D01*
X55748661Y-76993223D01*
X55750350Y-77002440D01*
X55774095Y-77055200D01*
X55776960Y-77062117D01*
X55797481Y-77116224D01*
X55797481Y-77116225D01*
X55802805Y-77123938D01*
X55813824Y-77143476D01*
X55817671Y-77152023D01*
X55817672Y-77152025D01*
X55817673Y-77152026D01*
X55817674Y-77152028D01*
X55853372Y-77197592D01*
X55857785Y-77203589D01*
X55890668Y-77251229D01*
X55933989Y-77289608D01*
X55939426Y-77294727D01*
X57925279Y-79280581D01*
X57930399Y-79286019D01*
X57968771Y-79329332D01*
X58016405Y-79362211D01*
X58022407Y-79366627D01*
X58067972Y-79402325D01*
X58076514Y-79406169D01*
X58096061Y-79417194D01*
X58103774Y-79422518D01*
X58157890Y-79443041D01*
X58164798Y-79445903D01*
X58217561Y-79469650D01*
X58226776Y-79471338D01*
X58248389Y-79477363D01*
X58257155Y-79480688D01*
X58314617Y-79487665D01*
X58321977Y-79488784D01*
X58378915Y-79499219D01*
X58436658Y-79495725D01*
X58444145Y-79495500D01*
X59370822Y-79495500D01*
X59437861Y-79515185D01*
X59472397Y-79548377D01*
X59549954Y-79659141D01*
X59710858Y-79820045D01*
X59710861Y-79820047D01*
X59897266Y-79950568D01*
X59955865Y-79977893D01*
X60008305Y-80024065D01*
X60027457Y-80091258D01*
X60007242Y-80158139D01*
X59955867Y-80202657D01*
X59897515Y-80229867D01*
X59711179Y-80360342D01*
X59550342Y-80521179D01*
X59419865Y-80707517D01*
X59323734Y-80913673D01*
X59323730Y-80913682D01*
X59271127Y-81109999D01*
X59271128Y-81110000D01*
X60234314Y-81110000D01*
X60222359Y-81121955D01*
X60164835Y-81234852D01*
X60145014Y-81360000D01*
X60164835Y-81485148D01*
X60222359Y-81598045D01*
X60234314Y-81610000D01*
X59271128Y-81610000D01*
X59323730Y-81806317D01*
X59323734Y-81806326D01*
X59419865Y-82012482D01*
X59550342Y-82198820D01*
X59711179Y-82359657D01*
X59897517Y-82490134D01*
X60103673Y-82586265D01*
X60103682Y-82586269D01*
X60299999Y-82638872D01*
X60300000Y-82638871D01*
X60300000Y-81675686D01*
X60311955Y-81687641D01*
X60424852Y-81745165D01*
X60518519Y-81760000D01*
X60581481Y-81760000D01*
X60675148Y-81745165D01*
X60788045Y-81687641D01*
X60800000Y-81675686D01*
X60800000Y-82638872D01*
X60996317Y-82586269D01*
X60996326Y-82586265D01*
X61202482Y-82490134D01*
X61388820Y-82359657D01*
X61549657Y-82198820D01*
X61680134Y-82012482D01*
X61776265Y-81806326D01*
X61776269Y-81806317D01*
X61828872Y-81610000D01*
X60865686Y-81610000D01*
X60877641Y-81598045D01*
X60935165Y-81485148D01*
X60954986Y-81360000D01*
X60935165Y-81234852D01*
X60877641Y-81121955D01*
X60865686Y-81110000D01*
X61828872Y-81110000D01*
X61828872Y-81109999D01*
X61776269Y-80913682D01*
X61776265Y-80913673D01*
X61680134Y-80707517D01*
X61549657Y-80521179D01*
X61388820Y-80360342D01*
X61202482Y-80229865D01*
X61144133Y-80202657D01*
X61091694Y-80156484D01*
X61072542Y-80089291D01*
X61092758Y-80022410D01*
X61144129Y-79977895D01*
X61202734Y-79950568D01*
X61389139Y-79820047D01*
X61550047Y-79659139D01*
X61680568Y-79472734D01*
X61776739Y-79266496D01*
X61835635Y-79046692D01*
X61855468Y-78820000D01*
X61835635Y-78593308D01*
X61776739Y-78373504D01*
X61680568Y-78167266D01*
X61550047Y-77980861D01*
X61550045Y-77980858D01*
X61389141Y-77819954D01*
X61202734Y-77689432D01*
X61202728Y-77689429D01*
X61144725Y-77662382D01*
X61092285Y-77616210D01*
X61073133Y-77549017D01*
X61093348Y-77482135D01*
X61144725Y-77437618D01*
X61202734Y-77410568D01*
X61389139Y-77280047D01*
X61550047Y-77119139D01*
X61680568Y-76932734D01*
X61776739Y-76726496D01*
X61835635Y-76506692D01*
X61855468Y-76280000D01*
X61835635Y-76053308D01*
X61781110Y-75849816D01*
X61776741Y-75833511D01*
X61776738Y-75833502D01*
X61741296Y-75757497D01*
X61680568Y-75627266D01*
X61582839Y-75487693D01*
X61550045Y-75440858D01*
X61389141Y-75279954D01*
X61202734Y-75149432D01*
X61202728Y-75149429D01*
X61144725Y-75122382D01*
X61092285Y-75076210D01*
X61073133Y-75009017D01*
X61093348Y-74942135D01*
X61144725Y-74897618D01*
X61163558Y-74888836D01*
X61202734Y-74870568D01*
X61389139Y-74740047D01*
X61550047Y-74579139D01*
X61680568Y-74392734D01*
X61776739Y-74186496D01*
X61835635Y-73966692D01*
X61855468Y-73740000D01*
X61835635Y-73513308D01*
X61776739Y-73293504D01*
X61680568Y-73087266D01*
X61550047Y-72900861D01*
X61550045Y-72900858D01*
X61389141Y-72739954D01*
X61202734Y-72609432D01*
X61202728Y-72609429D01*
X61144725Y-72582382D01*
X61092285Y-72536210D01*
X61073133Y-72469017D01*
X61093348Y-72402135D01*
X61144725Y-72357618D01*
X61202734Y-72330568D01*
X61389139Y-72200047D01*
X61550047Y-72039139D01*
X61680568Y-71852734D01*
X61776739Y-71646496D01*
X61835635Y-71426692D01*
X61855468Y-71200000D01*
X61853996Y-71183180D01*
X61844107Y-71070141D01*
X61835635Y-70973308D01*
X61803713Y-70854174D01*
X61778907Y-70761593D01*
X61780570Y-70691743D01*
X61819733Y-70633881D01*
X61883961Y-70606377D01*
X61898682Y-70605500D01*
X62366749Y-70605500D01*
X62374234Y-70605725D01*
X62383262Y-70606271D01*
X62431982Y-70609219D01*
X62431982Y-70609218D01*
X62431985Y-70609219D01*
X62488897Y-70598789D01*
X62496296Y-70597663D01*
X62553745Y-70590688D01*
X62562505Y-70587365D01*
X62584121Y-70581338D01*
X62593339Y-70579650D01*
X62624877Y-70565456D01*
X62646108Y-70555901D01*
X62653022Y-70553036D01*
X62707126Y-70532518D01*
X62714835Y-70527197D01*
X62734380Y-70516172D01*
X62742928Y-70512326D01*
X62788478Y-70476638D01*
X62794503Y-70472204D01*
X62842129Y-70439332D01*
X62880509Y-70396008D01*
X62885611Y-70390588D01*
X66743767Y-66532433D01*
X66805088Y-66498950D01*
X66874780Y-66503934D01*
X66930713Y-66545806D01*
X66943826Y-66567707D01*
X66973674Y-66631716D01*
X67039431Y-66772732D01*
X67039432Y-66772734D01*
X67169954Y-66959141D01*
X67330858Y-67120045D01*
X67330861Y-67120047D01*
X67517266Y-67250568D01*
X67575275Y-67277618D01*
X67627714Y-67323791D01*
X67646866Y-67390984D01*
X67626650Y-67457865D01*
X67575275Y-67502382D01*
X67517267Y-67529431D01*
X67517265Y-67529432D01*
X67330858Y-67659954D01*
X67169954Y-67820858D01*
X67039432Y-68007265D01*
X67039431Y-68007267D01*
X66943261Y-68213502D01*
X66943258Y-68213511D01*
X66884366Y-68433302D01*
X66884364Y-68433313D01*
X66864532Y-68659998D01*
X66864532Y-68660001D01*
X66884364Y-68886686D01*
X66884366Y-68886697D01*
X66943258Y-69106488D01*
X66943261Y-69106497D01*
X67039431Y-69312732D01*
X67039432Y-69312734D01*
X67169954Y-69499141D01*
X67330858Y-69660045D01*
X67330861Y-69660047D01*
X67517266Y-69790568D01*
X67568301Y-69814366D01*
X67575275Y-69817618D01*
X67627714Y-69863791D01*
X67646866Y-69930984D01*
X67626650Y-69997865D01*
X67575275Y-70042381D01*
X67558272Y-70050310D01*
X67517267Y-70069431D01*
X67517265Y-70069432D01*
X67330858Y-70199954D01*
X67169954Y-70360858D01*
X67039432Y-70547265D01*
X67039431Y-70547267D01*
X66943261Y-70753502D01*
X66943258Y-70753511D01*
X66884366Y-70973302D01*
X66884364Y-70973313D01*
X66864532Y-71199998D01*
X66864532Y-71200001D01*
X66884364Y-71426686D01*
X66884366Y-71426697D01*
X66943258Y-71646488D01*
X66943261Y-71646497D01*
X67039431Y-71852732D01*
X67039432Y-71852734D01*
X67169954Y-72039141D01*
X67330858Y-72200045D01*
X67330861Y-72200047D01*
X67517266Y-72330568D01*
X67575275Y-72357618D01*
X67627714Y-72403791D01*
X67646866Y-72470984D01*
X67626650Y-72537865D01*
X67575275Y-72582382D01*
X67517267Y-72609431D01*
X67517265Y-72609432D01*
X67330858Y-72739954D01*
X67169954Y-72900858D01*
X67039432Y-73087265D01*
X67039431Y-73087267D01*
X66943261Y-73293502D01*
X66943258Y-73293511D01*
X66884366Y-73513302D01*
X66884364Y-73513313D01*
X66864532Y-73739998D01*
X66864532Y-73740001D01*
X66884364Y-73966686D01*
X66884366Y-73966697D01*
X66943258Y-74186488D01*
X66943261Y-74186497D01*
X67039431Y-74392732D01*
X67039432Y-74392734D01*
X67169954Y-74579141D01*
X67330858Y-74740045D01*
X67330861Y-74740047D01*
X67517266Y-74870568D01*
X67556442Y-74888836D01*
X67575275Y-74897618D01*
X67627714Y-74943791D01*
X67646866Y-75010984D01*
X67626650Y-75077865D01*
X67575275Y-75122382D01*
X67517267Y-75149431D01*
X67517265Y-75149432D01*
X67330858Y-75279954D01*
X67169954Y-75440858D01*
X67039432Y-75627265D01*
X67039431Y-75627267D01*
X66943261Y-75833502D01*
X66943258Y-75833511D01*
X66884366Y-76053302D01*
X66884364Y-76053313D01*
X66864532Y-76279998D01*
X66864532Y-76280001D01*
X66884364Y-76506686D01*
X66884366Y-76506697D01*
X66943258Y-76726488D01*
X66943261Y-76726497D01*
X67039431Y-76932732D01*
X67039432Y-76932734D01*
X67169954Y-77119141D01*
X67330858Y-77280045D01*
X67330861Y-77280047D01*
X67517266Y-77410568D01*
X67575275Y-77437618D01*
X67627714Y-77483791D01*
X67646866Y-77550984D01*
X67626650Y-77617865D01*
X67575275Y-77662382D01*
X67517267Y-77689431D01*
X67517265Y-77689432D01*
X67330858Y-77819954D01*
X67169954Y-77980858D01*
X67039432Y-78167265D01*
X67039431Y-78167267D01*
X66943261Y-78373502D01*
X66943258Y-78373511D01*
X66884366Y-78593302D01*
X66884364Y-78593313D01*
X66864532Y-78819998D01*
X66864532Y-78820001D01*
X66884364Y-79046686D01*
X66884366Y-79046697D01*
X66943258Y-79266488D01*
X66943261Y-79266497D01*
X67039430Y-79472729D01*
X67039432Y-79472734D01*
X67169954Y-79659141D01*
X67330858Y-79820045D01*
X67330861Y-79820047D01*
X67517266Y-79950568D01*
X67568301Y-79974366D01*
X67575275Y-79977618D01*
X67627714Y-80023791D01*
X67646866Y-80090984D01*
X67626650Y-80157865D01*
X67575275Y-80202382D01*
X67517267Y-80229431D01*
X67517265Y-80229432D01*
X67330858Y-80359954D01*
X67169954Y-80520858D01*
X67039432Y-80707265D01*
X67039431Y-80707267D01*
X66943261Y-80913502D01*
X66943258Y-80913511D01*
X66884366Y-81133302D01*
X66884364Y-81133313D01*
X66864532Y-81359998D01*
X66864532Y-81360001D01*
X66884364Y-81586686D01*
X66884366Y-81586697D01*
X66943258Y-81806488D01*
X66943261Y-81806497D01*
X67039431Y-82012732D01*
X67039432Y-82012734D01*
X67169954Y-82199141D01*
X67330858Y-82360045D01*
X67330861Y-82360047D01*
X67517266Y-82490568D01*
X67723504Y-82586739D01*
X67943308Y-82645635D01*
X68105230Y-82659801D01*
X68169998Y-82665468D01*
X68170000Y-82665468D01*
X68170002Y-82665468D01*
X68226673Y-82660509D01*
X68396692Y-82645635D01*
X68616496Y-82586739D01*
X68822734Y-82490568D01*
X69009139Y-82360047D01*
X69038031Y-82331155D01*
X69070619Y-82298568D01*
X69131942Y-82265083D01*
X69201634Y-82270067D01*
X69257567Y-82311939D01*
X69281984Y-82377403D01*
X69282300Y-82386249D01*
X69282300Y-86891073D01*
X69280773Y-86910472D01*
X69278581Y-86924311D01*
X69282130Y-86992035D01*
X69282300Y-86998524D01*
X69282300Y-87018892D01*
X69283459Y-87029928D01*
X69284428Y-87039148D01*
X69284936Y-87045609D01*
X69288486Y-87113343D01*
X69288488Y-87113353D01*
X69292115Y-87126889D01*
X69295660Y-87146014D01*
X69297039Y-87159128D01*
X69297126Y-87159956D01*
X69297128Y-87159962D01*
X69318082Y-87224455D01*
X69319925Y-87230676D01*
X69337479Y-87296186D01*
X69337484Y-87296198D01*
X69343843Y-87308678D01*
X69351288Y-87326649D01*
X69355620Y-87339982D01*
X69389526Y-87398709D01*
X69392622Y-87404412D01*
X69423416Y-87464847D01*
X69423420Y-87464853D01*
X69432238Y-87475743D01*
X69443254Y-87491770D01*
X69450265Y-87503913D01*
X69450270Y-87503920D01*
X69495655Y-87554327D01*
X69499863Y-87559254D01*
X69512683Y-87575083D01*
X69527075Y-87589475D01*
X69531543Y-87594183D01*
X69576928Y-87644587D01*
X69588268Y-87652826D01*
X69603065Y-87665464D01*
X73431548Y-91493948D01*
X73465033Y-91555271D01*
X73460049Y-91624963D01*
X73418177Y-91680896D01*
X73394304Y-91694908D01*
X73347267Y-91715850D01*
X73347265Y-91715851D01*
X73194129Y-91827111D01*
X73067466Y-91967785D01*
X72972821Y-92131715D01*
X72972818Y-92131722D01*
X72919705Y-92295189D01*
X72914326Y-92311744D01*
X72894540Y-92500000D01*
X72907816Y-92626319D01*
X72908416Y-92632020D01*
X72895846Y-92700749D01*
X72848114Y-92751773D01*
X72828428Y-92761163D01*
X72707671Y-92806202D01*
X72707669Y-92806203D01*
X72649311Y-92849891D01*
X72583847Y-92874308D01*
X72515574Y-92859457D01*
X72500689Y-92849891D01*
X72442330Y-92806203D01*
X72442328Y-92806202D01*
X72307482Y-92755908D01*
X72307483Y-92755908D01*
X72247883Y-92749501D01*
X72247881Y-92749500D01*
X72247873Y-92749500D01*
X72247864Y-92749500D01*
X70352129Y-92749500D01*
X70352123Y-92749501D01*
X70292516Y-92755908D01*
X70157671Y-92806202D01*
X70157669Y-92806203D01*
X70099311Y-92849891D01*
X70033847Y-92874308D01*
X69965574Y-92859457D01*
X69950689Y-92849891D01*
X69892330Y-92806203D01*
X69892328Y-92806202D01*
X69757482Y-92755908D01*
X69757483Y-92755908D01*
X69697883Y-92749501D01*
X69697881Y-92749500D01*
X69697873Y-92749500D01*
X69697864Y-92749500D01*
X67802129Y-92749500D01*
X67802123Y-92749501D01*
X67742516Y-92755908D01*
X67607671Y-92806202D01*
X67607669Y-92806203D01*
X67549311Y-92849891D01*
X67483847Y-92874308D01*
X67415574Y-92859457D01*
X67400689Y-92849891D01*
X67342330Y-92806203D01*
X67342328Y-92806202D01*
X67207482Y-92755908D01*
X67199938Y-92754126D01*
X67200509Y-92751709D01*
X67147202Y-92729619D01*
X67107363Y-92672220D01*
X67101194Y-92639565D01*
X67100670Y-92629559D01*
X67100500Y-92623074D01*
X67100500Y-92602709D01*
X67100499Y-92602700D01*
X67098371Y-92582452D01*
X67097862Y-92575998D01*
X67094313Y-92508255D01*
X67090685Y-92494714D01*
X67087139Y-92475588D01*
X67085674Y-92461644D01*
X67064710Y-92397127D01*
X67062871Y-92390915D01*
X67062515Y-92389588D01*
X67049909Y-92342539D01*
X67045321Y-92325415D01*
X67045320Y-92325414D01*
X67045320Y-92325412D01*
X67038956Y-92312922D01*
X67031511Y-92294950D01*
X67027179Y-92281616D01*
X67023648Y-92275500D01*
X66993265Y-92222875D01*
X66990178Y-92217192D01*
X66959383Y-92156751D01*
X66950557Y-92145852D01*
X66939540Y-92129820D01*
X66932533Y-92117684D01*
X66887145Y-92067275D01*
X66882943Y-92062356D01*
X66870120Y-92046520D01*
X66855697Y-92032097D01*
X66851244Y-92027404D01*
X66805875Y-91977015D01*
X66805869Y-91977010D01*
X66794529Y-91968771D01*
X66779736Y-91956136D01*
X62008864Y-87185265D01*
X61996226Y-87170468D01*
X61988589Y-87159956D01*
X61987988Y-87159129D01*
X61987987Y-87159128D01*
X61937583Y-87113743D01*
X61932875Y-87109275D01*
X61918483Y-87094883D01*
X61902654Y-87082063D01*
X61897727Y-87077855D01*
X61847320Y-87032470D01*
X61847313Y-87032465D01*
X61835170Y-87025454D01*
X61819143Y-87014438D01*
X61808253Y-87005620D01*
X61808247Y-87005616D01*
X61747812Y-86974822D01*
X61742109Y-86971726D01*
X61683382Y-86937820D01*
X61670049Y-86933488D01*
X61652078Y-86926043D01*
X61639598Y-86919684D01*
X61639586Y-86919679D01*
X61574076Y-86902125D01*
X61567855Y-86900282D01*
X61503362Y-86879328D01*
X61503356Y-86879326D01*
X61503351Y-86879325D01*
X61503349Y-86879325D01*
X61489414Y-86877860D01*
X61470289Y-86874315D01*
X61456753Y-86870688D01*
X61456743Y-86870686D01*
X61389009Y-86867136D01*
X61382548Y-86866628D01*
X61373328Y-86865659D01*
X61362292Y-86864500D01*
X61362288Y-86864500D01*
X61341926Y-86864500D01*
X61335437Y-86864330D01*
X61267710Y-86860780D01*
X61253872Y-86862973D01*
X61234473Y-86864500D01*
X55828991Y-86864500D01*
X55761952Y-86844815D01*
X55737762Y-86824483D01*
X55714199Y-86798887D01*
X55683276Y-86736233D01*
X55691136Y-86666807D01*
X55735283Y-86612651D01*
X55762096Y-86598722D01*
X55842326Y-86568798D01*
X55842326Y-86568797D01*
X55842331Y-86568796D01*
X55957546Y-86482546D01*
X56043796Y-86367331D01*
X56094091Y-86232483D01*
X56100500Y-86172873D01*
X56100499Y-84277128D01*
X56094091Y-84217517D01*
X56043796Y-84082669D01*
X56043795Y-84082668D01*
X56043793Y-84082664D01*
X55957547Y-83967455D01*
X55957544Y-83967452D01*
X55842335Y-83881206D01*
X55842328Y-83881202D01*
X55707482Y-83830908D01*
X55707483Y-83830908D01*
X55647883Y-83824501D01*
X55647881Y-83824500D01*
X55647873Y-83824500D01*
X55647865Y-83824500D01*
X55499500Y-83824500D01*
X55432461Y-83804815D01*
X55386706Y-83752011D01*
X55375500Y-83700500D01*
X55375500Y-82524145D01*
X55375726Y-82516657D01*
X55379219Y-82458915D01*
X55378118Y-82452908D01*
X55368784Y-82401977D01*
X55367663Y-82394603D01*
X55365700Y-82378438D01*
X55360688Y-82337155D01*
X55357363Y-82328389D01*
X55351338Y-82306776D01*
X55349650Y-82297561D01*
X55325899Y-82244788D01*
X55323035Y-82237873D01*
X55302517Y-82183772D01*
X55297197Y-82176065D01*
X55286166Y-82156506D01*
X55282325Y-82147972D01*
X55282325Y-82147971D01*
X55277625Y-82141972D01*
X55246639Y-82102421D01*
X55242199Y-82096387D01*
X55221787Y-82066816D01*
X55209332Y-82048771D01*
X55177961Y-82020979D01*
X55140837Y-81961794D01*
X55141603Y-81891928D01*
X55147803Y-81875772D01*
X55226739Y-81706496D01*
X55285635Y-81486692D01*
X55305468Y-81260000D01*
X55285635Y-81033308D01*
X55226739Y-80813504D01*
X55130568Y-80607266D01*
X55018031Y-80446545D01*
X55000045Y-80420858D01*
X54839141Y-80259954D01*
X54652734Y-80129432D01*
X54652732Y-80129431D01*
X54446497Y-80033261D01*
X54446488Y-80033258D01*
X54226697Y-79974366D01*
X54226693Y-79974365D01*
X54226692Y-79974365D01*
X54226691Y-79974364D01*
X54226686Y-79974364D01*
X54000002Y-79954532D01*
X53999998Y-79954532D01*
X53773313Y-79974364D01*
X53773302Y-79974366D01*
X53553511Y-80033258D01*
X53553502Y-80033261D01*
X53347267Y-80129431D01*
X53347265Y-80129432D01*
X53160858Y-80259954D01*
X52999954Y-80420858D01*
X52869432Y-80607265D01*
X52869431Y-80607267D01*
X52773261Y-80813502D01*
X52773258Y-80813511D01*
X52714366Y-81033302D01*
X52714364Y-81033313D01*
X52694532Y-81259998D01*
X52694532Y-81260001D01*
X52714364Y-81486686D01*
X52714366Y-81486697D01*
X52773258Y-81706488D01*
X52773261Y-81706497D01*
X52869431Y-81912732D01*
X52869432Y-81912734D01*
X52999954Y-82099141D01*
X53160858Y-82260045D01*
X53160861Y-82260047D01*
X53347266Y-82390568D01*
X53553504Y-82486739D01*
X53764471Y-82543267D01*
X53820056Y-82575358D01*
X53988182Y-82743483D01*
X54021666Y-82804805D01*
X54024500Y-82831163D01*
X54024500Y-83700500D01*
X54004815Y-83767539D01*
X53952011Y-83813294D01*
X53900501Y-83824500D01*
X53752130Y-83824500D01*
X53752123Y-83824501D01*
X53692516Y-83830908D01*
X53557671Y-83881202D01*
X53557664Y-83881206D01*
X53442455Y-83967452D01*
X53442452Y-83967455D01*
X53356206Y-84082664D01*
X53356202Y-84082671D01*
X53305908Y-84217517D01*
X53299501Y-84277116D01*
X53299501Y-84277123D01*
X53299500Y-84277135D01*
X53299500Y-86172870D01*
X53299501Y-86172876D01*
X53305908Y-86232483D01*
X53356202Y-86367328D01*
X53356206Y-86367335D01*
X53442452Y-86482544D01*
X53442455Y-86482547D01*
X53557664Y-86568793D01*
X53557673Y-86568798D01*
X53637904Y-86598722D01*
X53693838Y-86640593D01*
X53718256Y-86706057D01*
X53703405Y-86774330D01*
X53685802Y-86798886D01*
X53591019Y-86901849D01*
X53464075Y-87096151D01*
X53370842Y-87308699D01*
X53313866Y-87533691D01*
X53313864Y-87533702D01*
X53294700Y-87764993D01*
X53294700Y-87765006D01*
X53313864Y-87996297D01*
X53313866Y-87996308D01*
X53370842Y-88221300D01*
X53464075Y-88433848D01*
X53591016Y-88628147D01*
X53591019Y-88628151D01*
X53591021Y-88628153D01*
X53748216Y-88798913D01*
X53748219Y-88798915D01*
X53748222Y-88798918D01*
X53931365Y-88941464D01*
X53931371Y-88941468D01*
X53931374Y-88941470D01*
X54135497Y-89051936D01*
X54207536Y-89076667D01*
X54355015Y-89127297D01*
X54355017Y-89127297D01*
X54355019Y-89127298D01*
X54583951Y-89165500D01*
X54583952Y-89165500D01*
X54816048Y-89165500D01*
X54816049Y-89165500D01*
X55044981Y-89127298D01*
X55264503Y-89051936D01*
X55468626Y-88941470D01*
X55516226Y-88904422D01*
X55588150Y-88848441D01*
X55651784Y-88798913D01*
X55695524Y-88751399D01*
X55737762Y-88705517D01*
X55797649Y-88669526D01*
X55828991Y-88665500D01*
X60890739Y-88665500D01*
X60957778Y-88685185D01*
X60978420Y-88701819D01*
X64464420Y-92187819D01*
X64497905Y-92249142D01*
X64492921Y-92318834D01*
X64451049Y-92374767D01*
X64385585Y-92399184D01*
X64376739Y-92399500D01*
X42174500Y-92399500D01*
X42107461Y-92379815D01*
X42061706Y-92327011D01*
X42050500Y-92275500D01*
X42050500Y-81250001D01*
X46244532Y-81250001D01*
X46264364Y-81476686D01*
X46264366Y-81476697D01*
X46323258Y-81696488D01*
X46323261Y-81696497D01*
X46419431Y-81902732D01*
X46419432Y-81902734D01*
X46549954Y-82089141D01*
X46710858Y-82250045D01*
X46710861Y-82250047D01*
X46897266Y-82380568D01*
X47103504Y-82476739D01*
X47103507Y-82476739D01*
X47103516Y-82476743D01*
X47132591Y-82484533D01*
X47192252Y-82520896D01*
X47222783Y-82583743D01*
X47224500Y-82604308D01*
X47224500Y-83500500D01*
X47204815Y-83567539D01*
X47152011Y-83613294D01*
X47100501Y-83624500D01*
X46952130Y-83624500D01*
X46952123Y-83624501D01*
X46892516Y-83630908D01*
X46757671Y-83681202D01*
X46757664Y-83681206D01*
X46642455Y-83767452D01*
X46642452Y-83767455D01*
X46556206Y-83882664D01*
X46556202Y-83882671D01*
X46505908Y-84017517D01*
X46499501Y-84077116D01*
X46499501Y-84077123D01*
X46499500Y-84077135D01*
X46499500Y-85972870D01*
X46499501Y-85972876D01*
X46505908Y-86032483D01*
X46556202Y-86167328D01*
X46556206Y-86167335D01*
X46642452Y-86282544D01*
X46642455Y-86282547D01*
X46757664Y-86368793D01*
X46757673Y-86368798D01*
X46837904Y-86398722D01*
X46893838Y-86440593D01*
X46918256Y-86506057D01*
X46903405Y-86574330D01*
X46885802Y-86598886D01*
X46791019Y-86701849D01*
X46664075Y-86896151D01*
X46570842Y-87108699D01*
X46513866Y-87333691D01*
X46513864Y-87333702D01*
X46494700Y-87564993D01*
X46494700Y-87565006D01*
X46513864Y-87796297D01*
X46513866Y-87796308D01*
X46570842Y-88021300D01*
X46664075Y-88233848D01*
X46791016Y-88428147D01*
X46791019Y-88428151D01*
X46791021Y-88428153D01*
X46948216Y-88598913D01*
X46948219Y-88598915D01*
X46948222Y-88598918D01*
X47131365Y-88741464D01*
X47131371Y-88741468D01*
X47131374Y-88741470D01*
X47335497Y-88851936D01*
X47449487Y-88891068D01*
X47555015Y-88927297D01*
X47555017Y-88927297D01*
X47555019Y-88927298D01*
X47783951Y-88965500D01*
X47783952Y-88965500D01*
X48016048Y-88965500D01*
X48016049Y-88965500D01*
X48244981Y-88927298D01*
X48464503Y-88851936D01*
X48668626Y-88741470D01*
X48851784Y-88598913D01*
X49008979Y-88428153D01*
X49135924Y-88233849D01*
X49229157Y-88021300D01*
X49286134Y-87796305D01*
X49288419Y-87768731D01*
X49305300Y-87565006D01*
X49305300Y-87564993D01*
X49286135Y-87333702D01*
X49286133Y-87333691D01*
X49229157Y-87108699D01*
X49135924Y-86896151D01*
X49008983Y-86701852D01*
X49008980Y-86701849D01*
X49008979Y-86701847D01*
X48914195Y-86598884D01*
X48883275Y-86536232D01*
X48891135Y-86466806D01*
X48935283Y-86412651D01*
X48962095Y-86398722D01*
X49042326Y-86368798D01*
X49042326Y-86368797D01*
X49042331Y-86368796D01*
X49157546Y-86282546D01*
X49243796Y-86167331D01*
X49294091Y-86032483D01*
X49300500Y-85972873D01*
X49300499Y-84077128D01*
X49294091Y-84017517D01*
X49283683Y-83989613D01*
X49243797Y-83882671D01*
X49243793Y-83882664D01*
X49157547Y-83767455D01*
X49157544Y-83767452D01*
X49042335Y-83681206D01*
X49042328Y-83681202D01*
X48907482Y-83630908D01*
X48907483Y-83630908D01*
X48847883Y-83624501D01*
X48847881Y-83624500D01*
X48847873Y-83624500D01*
X48847865Y-83624500D01*
X48699500Y-83624500D01*
X48632461Y-83604815D01*
X48586706Y-83552011D01*
X48575500Y-83500500D01*
X48575500Y-82091884D01*
X48595185Y-82024845D01*
X48597925Y-82020761D01*
X48680568Y-81902734D01*
X48776739Y-81696496D01*
X48835635Y-81476692D01*
X48855468Y-81250000D01*
X48835635Y-81023308D01*
X48779420Y-80813511D01*
X48776741Y-80803511D01*
X48776738Y-80803502D01*
X48731979Y-80707517D01*
X48680568Y-80597266D01*
X48575033Y-80446545D01*
X48550045Y-80410858D01*
X48389141Y-80249954D01*
X48202734Y-80119432D01*
X48202732Y-80119431D01*
X47996497Y-80023261D01*
X47996488Y-80023258D01*
X47776697Y-79964366D01*
X47776693Y-79964365D01*
X47776692Y-79964365D01*
X47776691Y-79964364D01*
X47776686Y-79964364D01*
X47550002Y-79944532D01*
X47549998Y-79944532D01*
X47323313Y-79964364D01*
X47323302Y-79964366D01*
X47103511Y-80023258D01*
X47103502Y-80023261D01*
X46897267Y-80119431D01*
X46897265Y-80119432D01*
X46710858Y-80249954D01*
X46549954Y-80410858D01*
X46419432Y-80597265D01*
X46419431Y-80597267D01*
X46323261Y-80803502D01*
X46323258Y-80803511D01*
X46264366Y-81023302D01*
X46264364Y-81023313D01*
X46244532Y-81249998D01*
X46244532Y-81250001D01*
X42050500Y-81250001D01*
X42050500Y-63400000D01*
X44344571Y-63400000D01*
X44364244Y-63612310D01*
X44418614Y-63803399D01*
X44422596Y-63817392D01*
X44422596Y-63817394D01*
X44517632Y-64008253D01*
X44646127Y-64178406D01*
X44646128Y-64178407D01*
X44803698Y-64322052D01*
X44984981Y-64434298D01*
X45183802Y-64511321D01*
X45393390Y-64550500D01*
X45393392Y-64550500D01*
X45495500Y-64550500D01*
X45562539Y-64570185D01*
X45608294Y-64622989D01*
X45619500Y-64674500D01*
X45619500Y-65367870D01*
X45619501Y-65367876D01*
X45625908Y-65427483D01*
X45676202Y-65562328D01*
X45676206Y-65562335D01*
X45762452Y-65677544D01*
X45762455Y-65677547D01*
X45877664Y-65763793D01*
X45877671Y-65763797D01*
X45903156Y-65773302D01*
X46012517Y-65814091D01*
X46016265Y-65814494D01*
X46018979Y-65815618D01*
X46020062Y-65815874D01*
X46020020Y-65816049D01*
X46080815Y-65841231D01*
X46115664Y-65891423D01*
X46117272Y-65890700D01*
X46144095Y-65950300D01*
X46146960Y-65957217D01*
X46167481Y-66011324D01*
X46167481Y-66011325D01*
X46172805Y-66019038D01*
X46183824Y-66038576D01*
X46187671Y-66047123D01*
X46187672Y-66047125D01*
X46187673Y-66047126D01*
X46187674Y-66047128D01*
X46223372Y-66092692D01*
X46227785Y-66098689D01*
X46260668Y-66146329D01*
X46303989Y-66184708D01*
X46309426Y-66189827D01*
X46838181Y-66718582D01*
X46871666Y-66779905D01*
X46874500Y-66806263D01*
X46874500Y-69910821D01*
X46854815Y-69977860D01*
X46821624Y-70012396D01*
X46710856Y-70089956D01*
X46549954Y-70250858D01*
X46419432Y-70437265D01*
X46419431Y-70437267D01*
X46323261Y-70643502D01*
X46323258Y-70643511D01*
X46264366Y-70863302D01*
X46264364Y-70863313D01*
X46244532Y-71089998D01*
X46244532Y-71090001D01*
X46264364Y-71316686D01*
X46264366Y-71316697D01*
X46323258Y-71536488D01*
X46323261Y-71536497D01*
X46419431Y-71742732D01*
X46419432Y-71742734D01*
X46549954Y-71929141D01*
X46710858Y-72090045D01*
X46710861Y-72090047D01*
X46897266Y-72220568D01*
X47103504Y-72316739D01*
X47103509Y-72316740D01*
X47103511Y-72316741D01*
X47140821Y-72326738D01*
X47323308Y-72375635D01*
X47485230Y-72389801D01*
X47549998Y-72395468D01*
X47550000Y-72395468D01*
X47550002Y-72395468D01*
X47606673Y-72390509D01*
X47776692Y-72375635D01*
X47996496Y-72316739D01*
X48202734Y-72220568D01*
X48389139Y-72090047D01*
X48550047Y-71929139D01*
X48680568Y-71742734D01*
X48776739Y-71536496D01*
X48835635Y-71316692D01*
X48855468Y-71090000D01*
X48853730Y-71070139D01*
X48837422Y-70883734D01*
X48835635Y-70863308D01*
X48783783Y-70669794D01*
X48776741Y-70643511D01*
X48776738Y-70643502D01*
X48763370Y-70614835D01*
X48680568Y-70437266D01*
X48566617Y-70274526D01*
X48550045Y-70250858D01*
X48389143Y-70089956D01*
X48359827Y-70069429D01*
X48278376Y-70012396D01*
X48234752Y-69957819D01*
X48225500Y-69910821D01*
X48225500Y-66499250D01*
X48225726Y-66491763D01*
X48229219Y-66434015D01*
X48222977Y-66399954D01*
X48218784Y-66377077D01*
X48217663Y-66369703D01*
X48210688Y-66312257D01*
X48210688Y-66312255D01*
X48207363Y-66303489D01*
X48201338Y-66281876D01*
X48199650Y-66272661D01*
X48175903Y-66219898D01*
X48173040Y-66212983D01*
X48152520Y-66158879D01*
X48152519Y-66158878D01*
X48152518Y-66158874D01*
X48147198Y-66151166D01*
X48136171Y-66131615D01*
X48132326Y-66123071D01*
X48096641Y-66077524D01*
X48092201Y-66071490D01*
X48059333Y-66023872D01*
X48059332Y-66023871D01*
X48016010Y-65985491D01*
X48010572Y-65980371D01*
X47823640Y-65793439D01*
X47790155Y-65732116D01*
X47795139Y-65662424D01*
X47812051Y-65631453D01*
X47863796Y-65562331D01*
X47914091Y-65427483D01*
X47920500Y-65367873D01*
X47920499Y-63972128D01*
X47914091Y-63912517D01*
X47906384Y-63891854D01*
X47863797Y-63777671D01*
X47863796Y-63777669D01*
X47796385Y-63687620D01*
X47771968Y-63622156D01*
X47786819Y-63553883D01*
X47807968Y-63525631D01*
X48163599Y-63170000D01*
X51874571Y-63170000D01*
X51894244Y-63382310D01*
X51944881Y-63560279D01*
X51952596Y-63587392D01*
X51952596Y-63587394D01*
X52047632Y-63778253D01*
X52164228Y-63932649D01*
X52176128Y-63948407D01*
X52333698Y-64092052D01*
X52514981Y-64204298D01*
X52713802Y-64281321D01*
X52923390Y-64320500D01*
X52923392Y-64320500D01*
X53025500Y-64320500D01*
X53092539Y-64340185D01*
X53138294Y-64392989D01*
X53149500Y-64444500D01*
X53149500Y-65137870D01*
X53149501Y-65137876D01*
X53155908Y-65197483D01*
X53206202Y-65332328D01*
X53206203Y-65332329D01*
X53206204Y-65332331D01*
X53240165Y-65377697D01*
X53297769Y-65454646D01*
X53295370Y-65456441D01*
X53321666Y-65504597D01*
X53324500Y-65530955D01*
X53324500Y-69920821D01*
X53304815Y-69987860D01*
X53271624Y-70022396D01*
X53160856Y-70099956D01*
X52999954Y-70260858D01*
X52869432Y-70447265D01*
X52869431Y-70447267D01*
X52773261Y-70653502D01*
X52773258Y-70653511D01*
X52714366Y-70873302D01*
X52714364Y-70873313D01*
X52694532Y-71099998D01*
X52694532Y-71100001D01*
X52714364Y-71326686D01*
X52714366Y-71326697D01*
X52773258Y-71546488D01*
X52773261Y-71546497D01*
X52869431Y-71752732D01*
X52869432Y-71752734D01*
X52999954Y-71939141D01*
X53160858Y-72100045D01*
X53160861Y-72100047D01*
X53347266Y-72230568D01*
X53553504Y-72326739D01*
X53553509Y-72326740D01*
X53553511Y-72326741D01*
X53606415Y-72340916D01*
X53773308Y-72385635D01*
X53935230Y-72399801D01*
X53999998Y-72405468D01*
X54000000Y-72405468D01*
X54000002Y-72405468D01*
X54056673Y-72400509D01*
X54226692Y-72385635D01*
X54446496Y-72326739D01*
X54652734Y-72230568D01*
X54839139Y-72100047D01*
X55000047Y-71939139D01*
X55130568Y-71752734D01*
X55226739Y-71546496D01*
X55285635Y-71326692D01*
X55305468Y-71100000D01*
X55302855Y-71070139D01*
X55285635Y-70873313D01*
X55285635Y-70873308D01*
X55235841Y-70687473D01*
X55226741Y-70653511D01*
X55226738Y-70653502D01*
X55222075Y-70643502D01*
X55130568Y-70447266D01*
X55009615Y-70274526D01*
X55000045Y-70260858D01*
X54839143Y-70099956D01*
X54728376Y-70022396D01*
X54684752Y-69967819D01*
X54675500Y-69920821D01*
X54675500Y-65714499D01*
X54695185Y-65647460D01*
X54747989Y-65601705D01*
X54799500Y-65590499D01*
X54997871Y-65590499D01*
X54997872Y-65590499D01*
X55057483Y-65584091D01*
X55192331Y-65533796D01*
X55307546Y-65447546D01*
X55393796Y-65332331D01*
X55444091Y-65197483D01*
X55450500Y-65137873D01*
X55450499Y-63742128D01*
X55444091Y-63682517D01*
X55434221Y-63656055D01*
X55393797Y-63547671D01*
X55393793Y-63547664D01*
X55307547Y-63432455D01*
X55307544Y-63432452D01*
X55192335Y-63346206D01*
X55192328Y-63346202D01*
X55057482Y-63295908D01*
X55057483Y-63295908D01*
X54997883Y-63289501D01*
X54997881Y-63289500D01*
X54997873Y-63289500D01*
X54997865Y-63289500D01*
X54463524Y-63289500D01*
X54396485Y-63269815D01*
X54350730Y-63217011D01*
X54340786Y-63147853D01*
X54369811Y-63084297D01*
X54428589Y-63046523D01*
X54440739Y-63043611D01*
X54616058Y-63010837D01*
X54616063Y-63010836D01*
X54814791Y-62933849D01*
X54814798Y-62933846D01*
X54917006Y-62870560D01*
X54917006Y-62870559D01*
X54321447Y-62275000D01*
X54331073Y-62275000D01*
X54423446Y-62259586D01*
X54533514Y-62200019D01*
X54618278Y-62107941D01*
X54668551Y-61993330D01*
X54674545Y-61920992D01*
X55273162Y-62519609D01*
X55273163Y-62519609D01*
X55281940Y-62507988D01*
X55281942Y-62507985D01*
X55376933Y-62317216D01*
X55376941Y-62317196D01*
X55435261Y-62112219D01*
X55435262Y-62112216D01*
X55454927Y-61900000D01*
X55454927Y-61899999D01*
X55435262Y-61687783D01*
X55435261Y-61687780D01*
X55376941Y-61482803D01*
X55376933Y-61482783D01*
X55281942Y-61292014D01*
X55281937Y-61292006D01*
X55273163Y-61280389D01*
X55273162Y-61280389D01*
X54678338Y-61875213D01*
X54678886Y-61868605D01*
X54648163Y-61747281D01*
X54579711Y-61642508D01*
X54480948Y-61565637D01*
X54362576Y-61525000D01*
X54321447Y-61525000D01*
X54917007Y-60929439D01*
X54814793Y-60866151D01*
X54814789Y-60866149D01*
X54616063Y-60789163D01*
X54616058Y-60789162D01*
X54406561Y-60750000D01*
X54193439Y-60750000D01*
X53983941Y-60789162D01*
X53983936Y-60789163D01*
X53874293Y-60831639D01*
X53804670Y-60837501D01*
X53742930Y-60804791D01*
X53708675Y-60743894D01*
X53705500Y-60716012D01*
X53705500Y-59651162D01*
X53725185Y-59584123D01*
X53741815Y-59563485D01*
X54640946Y-58664353D01*
X54702267Y-58630870D01*
X54760720Y-58632261D01*
X54773308Y-58635635D01*
X54848872Y-58642246D01*
X54999998Y-58655468D01*
X55000000Y-58655468D01*
X55000002Y-58655468D01*
X55056673Y-58650509D01*
X55226692Y-58635635D01*
X55446496Y-58576739D01*
X55652734Y-58480568D01*
X55839139Y-58350047D01*
X56000047Y-58189139D01*
X56130568Y-58002734D01*
X56226739Y-57796496D01*
X56285635Y-57576692D01*
X56305468Y-57350000D01*
X56302144Y-57312012D01*
X56292821Y-57205447D01*
X56285635Y-57123308D01*
X56226739Y-56903504D01*
X56130568Y-56697266D01*
X56000047Y-56510861D01*
X56000045Y-56510858D01*
X55839141Y-56349954D01*
X55652734Y-56219432D01*
X55652732Y-56219431D01*
X55446497Y-56123261D01*
X55446488Y-56123258D01*
X55226697Y-56064366D01*
X55226693Y-56064365D01*
X55226692Y-56064365D01*
X55226691Y-56064364D01*
X55226686Y-56064364D01*
X55000002Y-56044532D01*
X54999998Y-56044532D01*
X54773313Y-56064364D01*
X54773302Y-56064366D01*
X54553511Y-56123258D01*
X54553502Y-56123261D01*
X54347267Y-56219431D01*
X54347265Y-56219432D01*
X54160858Y-56349954D01*
X53999954Y-56510858D01*
X53869432Y-56697265D01*
X53869431Y-56697267D01*
X53773261Y-56903502D01*
X53773258Y-56903511D01*
X53714366Y-57123302D01*
X53714364Y-57123313D01*
X53694532Y-57349998D01*
X53694532Y-57350001D01*
X53714364Y-57576686D01*
X53714366Y-57576696D01*
X53717739Y-57589286D01*
X53716072Y-57659136D01*
X53685643Y-57709054D01*
X52569424Y-58825273D01*
X52563972Y-58830406D01*
X52520669Y-58868769D01*
X52520667Y-58868772D01*
X52487800Y-58916387D01*
X52483363Y-58922417D01*
X52447674Y-58967970D01*
X52443824Y-58976525D01*
X52432808Y-58996056D01*
X52427484Y-59003770D01*
X52427482Y-59003774D01*
X52406965Y-59057869D01*
X52404102Y-59064781D01*
X52380350Y-59117560D01*
X52378661Y-59126777D01*
X52372639Y-59148381D01*
X52369311Y-59157155D01*
X52362334Y-59214613D01*
X52361207Y-59222011D01*
X52350781Y-59278908D01*
X52350781Y-59278915D01*
X52354274Y-59336663D01*
X52354500Y-59344150D01*
X52354500Y-62174233D01*
X52334815Y-62241272D01*
X52314040Y-62265868D01*
X52287380Y-62290173D01*
X52176127Y-62391593D01*
X52047632Y-62561746D01*
X51952596Y-62752605D01*
X51952596Y-62752607D01*
X51894244Y-62957689D01*
X51884997Y-63057488D01*
X51874571Y-63170000D01*
X48163599Y-63170000D01*
X51710588Y-59623011D01*
X51716008Y-59617909D01*
X51759332Y-59579529D01*
X51792204Y-59531903D01*
X51796639Y-59525877D01*
X51832322Y-59480333D01*
X51832321Y-59480333D01*
X51832326Y-59480328D01*
X51836172Y-59471780D01*
X51847197Y-59452235D01*
X51852517Y-59444527D01*
X51852516Y-59444527D01*
X51852518Y-59444526D01*
X51873036Y-59390422D01*
X51875901Y-59383508D01*
X51887544Y-59357635D01*
X51899650Y-59330739D01*
X51901338Y-59321521D01*
X51907366Y-59299903D01*
X51910688Y-59291145D01*
X51917663Y-59233696D01*
X51918790Y-59226293D01*
X51920251Y-59218322D01*
X51929219Y-59169385D01*
X51925725Y-59111634D01*
X51925500Y-59104149D01*
X51925500Y-58429177D01*
X51945185Y-58362138D01*
X51978375Y-58327603D01*
X52089139Y-58250047D01*
X52250047Y-58089139D01*
X52380568Y-57902734D01*
X52476739Y-57696496D01*
X52535635Y-57476692D01*
X52555468Y-57250000D01*
X52535635Y-57023308D01*
X52476739Y-56803504D01*
X52380568Y-56597266D01*
X52250047Y-56410861D01*
X52250045Y-56410858D01*
X52089141Y-56249954D01*
X51902734Y-56119432D01*
X51902732Y-56119431D01*
X51696497Y-56023261D01*
X51696488Y-56023258D01*
X51476697Y-55964366D01*
X51476693Y-55964365D01*
X51476692Y-55964365D01*
X51476691Y-55964364D01*
X51476686Y-55964364D01*
X51250002Y-55944532D01*
X51249998Y-55944532D01*
X51023313Y-55964364D01*
X51023302Y-55964366D01*
X50803511Y-56023258D01*
X50803502Y-56023261D01*
X50597267Y-56119431D01*
X50597265Y-56119432D01*
X50410858Y-56249954D01*
X50249954Y-56410858D01*
X50119432Y-56597265D01*
X50119431Y-56597267D01*
X50023261Y-56803502D01*
X50023258Y-56803511D01*
X49964366Y-57023302D01*
X49964364Y-57023313D01*
X49944532Y-57249998D01*
X49944532Y-57250001D01*
X49964364Y-57476686D01*
X49964366Y-57476697D01*
X50023258Y-57696488D01*
X50023261Y-57696497D01*
X50119431Y-57902732D01*
X50119432Y-57902734D01*
X50249954Y-58089141D01*
X50410857Y-58250044D01*
X50410860Y-58250046D01*
X50410861Y-58250047D01*
X50521623Y-58327602D01*
X50565248Y-58382178D01*
X50574500Y-58429177D01*
X50574500Y-58797136D01*
X50554815Y-58864175D01*
X50538181Y-58884817D01*
X47916827Y-61506170D01*
X47855504Y-61539655D01*
X47785812Y-61534671D01*
X47754266Y-61511159D01*
X47743162Y-61510389D01*
X47148338Y-62105212D01*
X47148886Y-62098605D01*
X47118163Y-61977281D01*
X47049711Y-61872508D01*
X46950948Y-61795637D01*
X46832576Y-61755000D01*
X46791448Y-61755000D01*
X47387007Y-61159439D01*
X47284793Y-61096151D01*
X47284789Y-61096149D01*
X47086063Y-61019163D01*
X47086058Y-61019162D01*
X46876561Y-60980000D01*
X46663439Y-60980000D01*
X46453941Y-61019162D01*
X46453936Y-61019163D01*
X46255210Y-61096149D01*
X46255201Y-61096154D01*
X46152992Y-61159438D01*
X46152991Y-61159439D01*
X46748553Y-61755000D01*
X46738927Y-61755000D01*
X46646554Y-61770414D01*
X46536486Y-61829981D01*
X46451722Y-61922059D01*
X46401449Y-62036670D01*
X46395454Y-62109007D01*
X45796836Y-61510388D01*
X45788059Y-61522010D01*
X45693066Y-61712783D01*
X45693058Y-61712803D01*
X45634738Y-61917780D01*
X45634737Y-61917783D01*
X45614544Y-62135708D01*
X45612140Y-62135485D01*
X45595388Y-62192539D01*
X45542584Y-62238294D01*
X45491073Y-62249500D01*
X45393390Y-62249500D01*
X45183802Y-62288679D01*
X45183799Y-62288679D01*
X45183799Y-62288680D01*
X44984982Y-62365701D01*
X44984980Y-62365702D01*
X44803699Y-62477947D01*
X44646127Y-62621593D01*
X44517632Y-62791746D01*
X44422596Y-62982605D01*
X44422596Y-62982607D01*
X44364244Y-63187689D01*
X44347567Y-63367672D01*
X44344571Y-63400000D01*
X42050500Y-63400000D01*
X42050500Y-40436221D01*
X42070185Y-40369182D01*
X42085205Y-40350184D01*
X45613635Y-36688459D01*
X45674327Y-36653843D01*
X45702926Y-36650500D01*
X134398430Y-36650500D01*
X134465469Y-36670185D01*
G37*
G04 #@! TD.AperFunction*
G04 #@! TA.AperFunction,Conductor*
G36*
X117140734Y-74476580D02*
G01*
X117196667Y-74518452D01*
X117221084Y-74583916D01*
X117221400Y-74592762D01*
X117221400Y-77605936D01*
X117201715Y-77672975D01*
X117185081Y-77693617D01*
X109089424Y-85789273D01*
X109083972Y-85794406D01*
X109040669Y-85832769D01*
X109040667Y-85832772D01*
X109007800Y-85880387D01*
X109003363Y-85886417D01*
X108967674Y-85931970D01*
X108963824Y-85940525D01*
X108952808Y-85960056D01*
X108947484Y-85967770D01*
X108947482Y-85967774D01*
X108926965Y-86021869D01*
X108924102Y-86028781D01*
X108900350Y-86081560D01*
X108898661Y-86090777D01*
X108892639Y-86112381D01*
X108889311Y-86121155D01*
X108882334Y-86178613D01*
X108881207Y-86186011D01*
X108870781Y-86242908D01*
X108870781Y-86242915D01*
X108874274Y-86300663D01*
X108874500Y-86308150D01*
X108874500Y-92625500D01*
X108854815Y-92692539D01*
X108802011Y-92738294D01*
X108750501Y-92749500D01*
X108602130Y-92749500D01*
X108602123Y-92749501D01*
X108542516Y-92755908D01*
X108407671Y-92806202D01*
X108407665Y-92806205D01*
X108348891Y-92850203D01*
X108283427Y-92874619D01*
X108215154Y-92859767D01*
X108200271Y-92850202D01*
X108142088Y-92806647D01*
X108142086Y-92806645D01*
X108007379Y-92756403D01*
X108007372Y-92756401D01*
X107947844Y-92750000D01*
X106052155Y-92750000D01*
X105992627Y-92756401D01*
X105992620Y-92756403D01*
X105857913Y-92806645D01*
X105857907Y-92806649D01*
X105799726Y-92850203D01*
X105734262Y-92874620D01*
X105665989Y-92859768D01*
X105651106Y-92850203D01*
X105592331Y-92806204D01*
X105592328Y-92806202D01*
X105457482Y-92755908D01*
X105457483Y-92755908D01*
X105397883Y-92749501D01*
X105397881Y-92749500D01*
X105397873Y-92749500D01*
X105397865Y-92749500D01*
X105249500Y-92749500D01*
X105182461Y-92729815D01*
X105136706Y-92677011D01*
X105125500Y-92625500D01*
X105125500Y-91702500D01*
X105145185Y-91635461D01*
X105197989Y-91589706D01*
X105249500Y-91578500D01*
X105377644Y-91578500D01*
X105377646Y-91578500D01*
X105562803Y-91539144D01*
X105735730Y-91462151D01*
X105888871Y-91350888D01*
X106015533Y-91210216D01*
X106110179Y-91046284D01*
X106168674Y-90866256D01*
X106188460Y-90678000D01*
X106168674Y-90489744D01*
X106110179Y-90309716D01*
X106015533Y-90145784D01*
X105985950Y-90112929D01*
X105977050Y-90103044D01*
X105946820Y-90040052D01*
X105945200Y-90020072D01*
X105945200Y-84760862D01*
X105964885Y-84693823D01*
X105981514Y-84673186D01*
X112201030Y-78453670D01*
X112262349Y-78420188D01*
X112332041Y-78425172D01*
X112387974Y-78467044D01*
X112401089Y-78488949D01*
X112407866Y-78503482D01*
X112538342Y-78689820D01*
X112699179Y-78850657D01*
X112885517Y-78981134D01*
X113091673Y-79077265D01*
X113091682Y-79077269D01*
X113287999Y-79129872D01*
X113288000Y-79129871D01*
X113288000Y-78166686D01*
X113299955Y-78178641D01*
X113412852Y-78236165D01*
X113506519Y-78251000D01*
X113569481Y-78251000D01*
X113663148Y-78236165D01*
X113776045Y-78178641D01*
X113788000Y-78166686D01*
X113788000Y-79129872D01*
X113984317Y-79077269D01*
X113984326Y-79077265D01*
X114190482Y-78981134D01*
X114376820Y-78850657D01*
X114537657Y-78689820D01*
X114668134Y-78503482D01*
X114764265Y-78297326D01*
X114764269Y-78297317D01*
X114816872Y-78101000D01*
X113853686Y-78101000D01*
X113865641Y-78089045D01*
X113923165Y-77976148D01*
X113942986Y-77851000D01*
X113923165Y-77725852D01*
X113865641Y-77612955D01*
X113853686Y-77601000D01*
X114816872Y-77601000D01*
X114816872Y-77600999D01*
X114764269Y-77404682D01*
X114764265Y-77404673D01*
X114668133Y-77198516D01*
X114668130Y-77198510D01*
X114582908Y-77076803D01*
X114560580Y-77010597D01*
X114577590Y-76942830D01*
X114596797Y-76918002D01*
X117009721Y-74505079D01*
X117071042Y-74471596D01*
X117140734Y-74476580D01*
G37*
G04 #@! TD.AperFunction*
G04 #@! TA.AperFunction,Conductor*
G36*
X91243834Y-48602178D02*
G01*
X91299767Y-48644050D01*
X91324184Y-48709514D01*
X91324500Y-48718360D01*
X91324500Y-53668837D01*
X91304815Y-53735876D01*
X91288181Y-53756518D01*
X91255468Y-53789231D01*
X91194145Y-53822716D01*
X91167787Y-53825550D01*
X85725201Y-53825550D01*
X85717715Y-53825324D01*
X85708687Y-53824778D01*
X85659968Y-53821831D01*
X85659958Y-53821831D01*
X85603061Y-53832257D01*
X85595663Y-53833384D01*
X85538205Y-53840361D01*
X85529431Y-53843689D01*
X85507828Y-53849710D01*
X85503309Y-53850538D01*
X85498610Y-53851400D01*
X85445831Y-53875152D01*
X85438919Y-53878015D01*
X85384824Y-53898532D01*
X85384820Y-53898534D01*
X85377106Y-53903858D01*
X85357575Y-53914874D01*
X85349020Y-53918724D01*
X85303467Y-53954413D01*
X85297437Y-53958850D01*
X85249822Y-53991717D01*
X85249819Y-53991719D01*
X85211456Y-54035022D01*
X85206323Y-54040474D01*
X82758618Y-56488181D01*
X82697295Y-56521666D01*
X82670937Y-56524500D01*
X81579178Y-56524500D01*
X81512139Y-56504815D01*
X81477603Y-56471623D01*
X81400045Y-56360858D01*
X81239141Y-56199954D01*
X81052734Y-56069432D01*
X81052732Y-56069431D01*
X80846497Y-55973261D01*
X80846488Y-55973258D01*
X80626697Y-55914366D01*
X80626693Y-55914365D01*
X80626692Y-55914365D01*
X80626691Y-55914364D01*
X80626686Y-55914364D01*
X80400002Y-55894532D01*
X80399998Y-55894532D01*
X80173313Y-55914364D01*
X80173302Y-55914366D01*
X79953511Y-55973258D01*
X79953502Y-55973261D01*
X79747267Y-56069431D01*
X79747265Y-56069432D01*
X79560858Y-56199954D01*
X79399954Y-56360858D01*
X79269432Y-56547265D01*
X79269431Y-56547267D01*
X79173261Y-56753502D01*
X79173258Y-56753511D01*
X79114366Y-56973302D01*
X79114364Y-56973313D01*
X79094532Y-57199998D01*
X79094532Y-57200001D01*
X79114364Y-57426686D01*
X79114366Y-57426697D01*
X79173258Y-57646488D01*
X79173261Y-57646497D01*
X79214527Y-57734990D01*
X79264422Y-57841991D01*
X79269430Y-57852729D01*
X79269432Y-57852734D01*
X79399954Y-58039141D01*
X79560858Y-58200045D01*
X79560861Y-58200047D01*
X79747266Y-58330568D01*
X79953504Y-58426739D01*
X79953509Y-58426740D01*
X79953511Y-58426741D01*
X80006415Y-58440916D01*
X80173308Y-58485635D01*
X80335230Y-58499801D01*
X80399998Y-58505468D01*
X80400000Y-58505468D01*
X80400002Y-58505468D01*
X80456673Y-58500509D01*
X80626692Y-58485635D01*
X80846496Y-58426739D01*
X81052734Y-58330568D01*
X81239139Y-58200047D01*
X81400047Y-58039139D01*
X81477603Y-57928377D01*
X81532180Y-57884752D01*
X81579178Y-57875500D01*
X82977949Y-57875500D01*
X82985434Y-57875725D01*
X82994462Y-57876271D01*
X83043182Y-57879219D01*
X83043182Y-57879218D01*
X83043185Y-57879219D01*
X83100097Y-57868789D01*
X83107496Y-57867663D01*
X83164945Y-57860688D01*
X83173705Y-57857365D01*
X83195321Y-57851338D01*
X83204539Y-57849650D01*
X83244400Y-57831710D01*
X83257308Y-57825901D01*
X83264222Y-57823036D01*
X83318326Y-57802518D01*
X83326035Y-57797197D01*
X83345580Y-57786172D01*
X83354128Y-57782326D01*
X83399678Y-57746638D01*
X83405703Y-57742204D01*
X83453329Y-57709332D01*
X83491709Y-57666008D01*
X83496811Y-57660588D01*
X83811904Y-57345495D01*
X83873225Y-57312012D01*
X83942917Y-57316996D01*
X83998850Y-57358868D01*
X84023267Y-57424332D01*
X84020924Y-57458719D01*
X83976241Y-57670999D01*
X83976241Y-57671004D01*
X83945673Y-58013884D01*
X83945673Y-58013893D01*
X83945673Y-58013897D01*
X83950779Y-58186115D01*
X83955875Y-58358008D01*
X84006703Y-58698491D01*
X84006704Y-58698496D01*
X84053231Y-58868769D01*
X84097446Y-59030577D01*
X84109938Y-59061379D01*
X84226829Y-59349602D01*
X84226830Y-59349604D01*
X84393031Y-59651075D01*
X84393032Y-59651077D01*
X84472531Y-59761873D01*
X84593730Y-59930785D01*
X84633048Y-59973764D01*
X84826097Y-60184789D01*
X84826101Y-60184793D01*
X84854577Y-60209333D01*
X85086880Y-60409531D01*
X85086885Y-60409534D01*
X85086887Y-60409536D01*
X85086891Y-60409539D01*
X85372405Y-60601848D01*
X85372407Y-60601849D01*
X85372410Y-60601851D01*
X85678683Y-60759050D01*
X86001399Y-60878922D01*
X86336027Y-60959783D01*
X86677870Y-61000500D01*
X86677877Y-61000500D01*
X86935992Y-61000500D01*
X86960706Y-60999033D01*
X87193655Y-60985209D01*
X87532486Y-60924313D01*
X87861736Y-60823769D01*
X88176783Y-60684990D01*
X88473206Y-60509924D01*
X88746842Y-60301027D01*
X88993851Y-60061233D01*
X89210764Y-59793907D01*
X89394538Y-59502802D01*
X89542592Y-59192006D01*
X89646446Y-58884817D01*
X89652848Y-58865881D01*
X89697138Y-58655468D01*
X89723758Y-58529002D01*
X89754327Y-58186103D01*
X89744125Y-57841994D01*
X89693297Y-57501508D01*
X89602554Y-57169423D01*
X89473172Y-56850401D01*
X89397700Y-56713502D01*
X89306968Y-56548924D01*
X89306967Y-56548922D01*
X89251503Y-56471623D01*
X89106270Y-56269215D01*
X88897688Y-56041211D01*
X88873902Y-56015210D01*
X88873898Y-56015206D01*
X88729754Y-55890984D01*
X88613120Y-55790469D01*
X88613115Y-55790465D01*
X88613112Y-55790463D01*
X88613108Y-55790460D01*
X88327594Y-55598151D01*
X88327590Y-55598149D01*
X88265394Y-55566226D01*
X88021317Y-55440950D01*
X87956273Y-55416789D01*
X87900284Y-55374994D01*
X87875779Y-55309563D01*
X87890539Y-55241270D01*
X87939878Y-55191798D01*
X87999451Y-55176550D01*
X91474799Y-55176550D01*
X91482284Y-55176775D01*
X91491312Y-55177321D01*
X91540032Y-55180269D01*
X91540032Y-55180268D01*
X91540035Y-55180269D01*
X91596947Y-55169839D01*
X91604346Y-55168713D01*
X91661795Y-55161738D01*
X91670555Y-55158415D01*
X91692171Y-55152388D01*
X91701389Y-55150700D01*
X91728285Y-55138594D01*
X91754158Y-55126951D01*
X91761072Y-55124086D01*
X91815176Y-55103568D01*
X91822885Y-55098247D01*
X91842430Y-55087222D01*
X91850978Y-55083376D01*
X91896528Y-55047688D01*
X91902553Y-55043254D01*
X91950179Y-55010382D01*
X91988559Y-54967058D01*
X91993661Y-54961638D01*
X92460588Y-54494711D01*
X92466008Y-54489609D01*
X92509332Y-54451229D01*
X92542204Y-54403603D01*
X92546639Y-54397577D01*
X92582322Y-54352033D01*
X92582321Y-54352033D01*
X92582326Y-54352028D01*
X92586172Y-54343480D01*
X92597197Y-54323935D01*
X92602517Y-54316227D01*
X92602516Y-54316227D01*
X92602518Y-54316226D01*
X92623036Y-54262122D01*
X92625901Y-54255208D01*
X92649646Y-54202447D01*
X92649650Y-54202439D01*
X92651338Y-54193221D01*
X92657366Y-54171603D01*
X92660688Y-54162845D01*
X92667663Y-54105396D01*
X92668790Y-54097993D01*
X92679219Y-54041085D01*
X92675725Y-53983334D01*
X92675500Y-53975849D01*
X92675500Y-52666057D01*
X92695185Y-52599018D01*
X92747989Y-52553263D01*
X92817147Y-52543319D01*
X92880703Y-52572344D01*
X92911880Y-52613650D01*
X92916858Y-52624324D01*
X92939431Y-52672732D01*
X92939432Y-52672734D01*
X93069954Y-52859141D01*
X93230858Y-53020045D01*
X93230861Y-53020047D01*
X93417266Y-53150568D01*
X93623504Y-53246739D01*
X93843308Y-53305635D01*
X94005230Y-53319801D01*
X94069998Y-53325468D01*
X94070000Y-53325468D01*
X94070002Y-53325468D01*
X94126673Y-53320509D01*
X94296692Y-53305635D01*
X94516496Y-53246739D01*
X94722734Y-53150568D01*
X94909139Y-53020047D01*
X94918983Y-53010203D01*
X94997819Y-52931368D01*
X95059142Y-52897883D01*
X95128834Y-52902867D01*
X95184767Y-52944739D01*
X95209184Y-53010203D01*
X95209500Y-53019049D01*
X95209500Y-54783836D01*
X95189815Y-54850875D01*
X95173181Y-54871517D01*
X87754524Y-62290173D01*
X87749072Y-62295306D01*
X87705769Y-62333669D01*
X87705767Y-62333672D01*
X87672900Y-62381287D01*
X87668463Y-62387317D01*
X87632774Y-62432870D01*
X87628924Y-62441425D01*
X87617908Y-62460956D01*
X87612584Y-62468670D01*
X87612582Y-62468674D01*
X87592065Y-62522769D01*
X87589202Y-62529681D01*
X87565450Y-62582460D01*
X87563761Y-62591677D01*
X87557739Y-62613281D01*
X87554411Y-62622055D01*
X87547434Y-62679513D01*
X87546307Y-62686911D01*
X87535881Y-62743808D01*
X87535881Y-62743815D01*
X87539374Y-62801563D01*
X87539600Y-62809050D01*
X87539600Y-82311399D01*
X87519915Y-82378438D01*
X87467111Y-82424193D01*
X87441382Y-82432689D01*
X87337096Y-82454856D01*
X87337092Y-82454857D01*
X87164170Y-82531848D01*
X87164165Y-82531851D01*
X87011029Y-82643111D01*
X86884366Y-82783785D01*
X86789721Y-82947715D01*
X86789718Y-82947722D01*
X86731227Y-83127739D01*
X86731227Y-83127740D01*
X86731226Y-83127744D01*
X86722115Y-83214431D01*
X86721883Y-83216637D01*
X86695298Y-83281251D01*
X86686243Y-83291355D01*
X86685081Y-83292517D01*
X86623758Y-83326002D01*
X86554066Y-83321018D01*
X86498133Y-83279146D01*
X86473716Y-83213682D01*
X86473400Y-83204836D01*
X86473400Y-69139156D01*
X86493085Y-69072117D01*
X86505251Y-69056183D01*
X86505469Y-69055941D01*
X86530433Y-69028216D01*
X86625079Y-68864284D01*
X86683574Y-68684256D01*
X86703360Y-68496000D01*
X86683574Y-68307744D01*
X86625079Y-68127716D01*
X86530433Y-67963784D01*
X86403771Y-67823112D01*
X86395759Y-67817291D01*
X86250634Y-67711851D01*
X86250629Y-67711848D01*
X86077707Y-67634857D01*
X86077702Y-67634855D01*
X85931901Y-67603865D01*
X85892546Y-67595500D01*
X85703254Y-67595500D01*
X85670797Y-67602398D01*
X85518097Y-67634855D01*
X85518092Y-67634857D01*
X85345170Y-67711848D01*
X85345165Y-67711851D01*
X85192029Y-67823111D01*
X85065366Y-67963785D01*
X84970721Y-68127715D01*
X84970718Y-68127722D01*
X84913029Y-68305273D01*
X84912226Y-68307744D01*
X84892440Y-68496000D01*
X84912226Y-68684256D01*
X84912227Y-68684259D01*
X84970718Y-68864277D01*
X84970721Y-68864284D01*
X85065366Y-69028215D01*
X85090549Y-69056183D01*
X85120779Y-69119174D01*
X85122400Y-69139156D01*
X85122400Y-83672436D01*
X85102715Y-83739475D01*
X85086081Y-83760117D01*
X81480928Y-87365270D01*
X81419605Y-87398755D01*
X81406224Y-87400908D01*
X81405359Y-87400998D01*
X81220197Y-87440355D01*
X81220192Y-87440357D01*
X81047270Y-87517348D01*
X81047265Y-87517351D01*
X80894129Y-87628611D01*
X80767466Y-87769285D01*
X80672821Y-87933215D01*
X80672818Y-87933222D01*
X80614327Y-88113240D01*
X80614326Y-88113244D01*
X80594540Y-88301500D01*
X80614326Y-88489756D01*
X80614327Y-88489759D01*
X80672818Y-88669777D01*
X80672821Y-88669784D01*
X80767467Y-88833716D01*
X80790362Y-88859143D01*
X80867073Y-88944340D01*
X80897303Y-89007332D01*
X80888678Y-89076667D01*
X80862604Y-89114993D01*
X78489424Y-91488173D01*
X78483972Y-91493306D01*
X78440669Y-91531669D01*
X78440667Y-91531672D01*
X78407800Y-91579287D01*
X78403363Y-91585317D01*
X78367674Y-91630870D01*
X78363824Y-91639425D01*
X78352808Y-91658956D01*
X78347484Y-91666670D01*
X78347482Y-91666674D01*
X78326965Y-91720769D01*
X78324102Y-91727681D01*
X78300350Y-91780460D01*
X78298661Y-91789677D01*
X78292639Y-91811281D01*
X78289311Y-91820055D01*
X78282334Y-91877513D01*
X78281207Y-91884911D01*
X78270781Y-91941808D01*
X78270781Y-91941815D01*
X78274274Y-91999563D01*
X78274500Y-92007050D01*
X78274500Y-92625500D01*
X78254815Y-92692539D01*
X78202011Y-92738294D01*
X78150501Y-92749500D01*
X78002130Y-92749500D01*
X78002123Y-92749501D01*
X77942516Y-92755908D01*
X77807671Y-92806202D01*
X77807669Y-92806203D01*
X77749311Y-92849891D01*
X77683847Y-92874308D01*
X77615574Y-92859457D01*
X77600689Y-92849891D01*
X77542330Y-92806203D01*
X77542328Y-92806202D01*
X77407482Y-92755908D01*
X77407483Y-92755908D01*
X77347883Y-92749501D01*
X77347881Y-92749500D01*
X77347873Y-92749500D01*
X77347865Y-92749500D01*
X76724500Y-92749500D01*
X76657461Y-92729815D01*
X76611706Y-92677011D01*
X76600500Y-92625500D01*
X76600500Y-84426163D01*
X76620185Y-84359124D01*
X76636819Y-84338482D01*
X80378036Y-80597265D01*
X84126897Y-76848403D01*
X84132317Y-76843301D01*
X84175632Y-76804929D01*
X84208511Y-76757293D01*
X84212928Y-76751290D01*
X84248625Y-76705728D01*
X84252469Y-76697185D01*
X84263497Y-76677632D01*
X84268818Y-76669926D01*
X84289349Y-76615787D01*
X84292188Y-76608933D01*
X84315950Y-76556139D01*
X84317638Y-76546921D01*
X84323666Y-76525303D01*
X84326988Y-76516545D01*
X84333963Y-76459096D01*
X84335090Y-76451693D01*
X84336945Y-76441570D01*
X84345519Y-76394785D01*
X84342026Y-76337040D01*
X84341800Y-76329553D01*
X84341800Y-70874156D01*
X84361485Y-70807117D01*
X84373651Y-70791183D01*
X84389663Y-70773400D01*
X84398833Y-70763216D01*
X84493479Y-70599284D01*
X84551974Y-70419256D01*
X84571760Y-70231000D01*
X84551974Y-70042744D01*
X84493479Y-69862716D01*
X84398833Y-69698784D01*
X84272171Y-69558112D01*
X84266542Y-69554022D01*
X84119034Y-69446851D01*
X84119029Y-69446848D01*
X83946107Y-69369857D01*
X83946102Y-69369855D01*
X83771804Y-69332808D01*
X83760946Y-69330500D01*
X83571654Y-69330500D01*
X83560796Y-69332808D01*
X83386497Y-69369855D01*
X83386492Y-69369857D01*
X83213570Y-69446848D01*
X83213565Y-69446851D01*
X83060429Y-69558111D01*
X82933766Y-69698785D01*
X82839121Y-69862715D01*
X82839118Y-69862722D01*
X82780627Y-70042740D01*
X82780626Y-70042744D01*
X82760840Y-70231000D01*
X82780626Y-70419256D01*
X82780627Y-70419259D01*
X82839118Y-70599277D01*
X82839121Y-70599284D01*
X82933766Y-70763215D01*
X82958949Y-70791183D01*
X82989179Y-70854174D01*
X82990800Y-70874156D01*
X82990800Y-76022536D01*
X82971115Y-76089575D01*
X82954481Y-76110217D01*
X75464424Y-83600273D01*
X75458972Y-83605406D01*
X75415669Y-83643769D01*
X75415667Y-83643772D01*
X75382800Y-83691387D01*
X75378363Y-83697417D01*
X75342674Y-83742970D01*
X75338824Y-83751525D01*
X75327808Y-83771056D01*
X75322484Y-83778770D01*
X75322482Y-83778774D01*
X75301965Y-83832869D01*
X75299102Y-83839781D01*
X75275350Y-83892560D01*
X75273661Y-83901777D01*
X75267639Y-83923381D01*
X75264311Y-83932155D01*
X75257334Y-83989613D01*
X75256207Y-83997011D01*
X75245781Y-84053908D01*
X75245781Y-84053915D01*
X75247185Y-84077135D01*
X75249274Y-84111663D01*
X75249500Y-84119150D01*
X75249500Y-90465538D01*
X75229815Y-90532577D01*
X75177011Y-90578332D01*
X75107853Y-90588276D01*
X75044297Y-90559251D01*
X75037819Y-90553219D01*
X71119619Y-86635019D01*
X71086134Y-86573696D01*
X71083300Y-86547338D01*
X71083300Y-77560001D01*
X73394532Y-77560001D01*
X73414364Y-77786686D01*
X73414366Y-77786697D01*
X73473258Y-78006488D01*
X73473261Y-78006497D01*
X73569431Y-78212732D01*
X73569432Y-78212734D01*
X73699954Y-78399141D01*
X73860858Y-78560045D01*
X73860861Y-78560047D01*
X74047266Y-78690568D01*
X74253504Y-78786739D01*
X74473308Y-78845635D01*
X74635230Y-78859801D01*
X74699998Y-78865468D01*
X74700000Y-78865468D01*
X74700002Y-78865468D01*
X74756673Y-78860509D01*
X74926692Y-78845635D01*
X75146496Y-78786739D01*
X75352734Y-78690568D01*
X75539139Y-78560047D01*
X75700047Y-78399139D01*
X75830568Y-78212734D01*
X75926739Y-78006496D01*
X75985635Y-77786692D01*
X76005468Y-77560001D01*
X77094532Y-77560001D01*
X77114364Y-77786686D01*
X77114366Y-77786697D01*
X77173258Y-78006488D01*
X77173261Y-78006497D01*
X77269431Y-78212732D01*
X77269432Y-78212734D01*
X77399954Y-78399141D01*
X77560858Y-78560045D01*
X77560861Y-78560047D01*
X77747266Y-78690568D01*
X77953504Y-78786739D01*
X78173308Y-78845635D01*
X78335230Y-78859801D01*
X78399998Y-78865468D01*
X78400000Y-78865468D01*
X78400002Y-78865468D01*
X78456673Y-78860509D01*
X78626692Y-78845635D01*
X78846496Y-78786739D01*
X79052734Y-78690568D01*
X79239139Y-78560047D01*
X79400047Y-78399139D01*
X79530568Y-78212734D01*
X79626739Y-78006496D01*
X79685635Y-77786692D01*
X79705468Y-77560000D01*
X79685635Y-77333308D01*
X79629535Y-77123938D01*
X79626741Y-77113511D01*
X79626738Y-77113502D01*
X79578752Y-77010597D01*
X79530568Y-76907266D01*
X79400047Y-76720861D01*
X79400045Y-76720858D01*
X79239141Y-76559954D01*
X79052734Y-76429432D01*
X79052732Y-76429431D01*
X78846497Y-76333261D01*
X78846488Y-76333258D01*
X78626697Y-76274366D01*
X78626693Y-76274365D01*
X78626692Y-76274365D01*
X78626691Y-76274364D01*
X78626686Y-76274364D01*
X78400002Y-76254532D01*
X78399998Y-76254532D01*
X78173313Y-76274364D01*
X78173302Y-76274366D01*
X77953511Y-76333258D01*
X77953502Y-76333261D01*
X77747267Y-76429431D01*
X77747265Y-76429432D01*
X77560858Y-76559954D01*
X77399954Y-76720858D01*
X77269432Y-76907265D01*
X77269431Y-76907267D01*
X77173261Y-77113502D01*
X77173258Y-77113511D01*
X77114366Y-77333302D01*
X77114364Y-77333313D01*
X77094532Y-77559998D01*
X77094532Y-77560001D01*
X76005468Y-77560001D01*
X76005468Y-77560000D01*
X75985635Y-77333308D01*
X75929535Y-77123938D01*
X75926741Y-77113511D01*
X75926738Y-77113502D01*
X75878752Y-77010597D01*
X75830568Y-76907266D01*
X75700047Y-76720861D01*
X75700045Y-76720858D01*
X75539141Y-76559954D01*
X75352734Y-76429432D01*
X75352732Y-76429431D01*
X75146497Y-76333261D01*
X75146488Y-76333258D01*
X74926697Y-76274366D01*
X74926693Y-76274365D01*
X74926692Y-76274365D01*
X74926691Y-76274364D01*
X74926686Y-76274364D01*
X74700002Y-76254532D01*
X74699998Y-76254532D01*
X74473313Y-76274364D01*
X74473302Y-76274366D01*
X74253511Y-76333258D01*
X74253502Y-76333261D01*
X74047267Y-76429431D01*
X74047265Y-76429432D01*
X73860858Y-76559954D01*
X73699954Y-76720858D01*
X73569432Y-76907265D01*
X73569431Y-76907267D01*
X73473261Y-77113502D01*
X73473258Y-77113511D01*
X73414366Y-77333302D01*
X73414364Y-77333313D01*
X73394532Y-77559998D01*
X73394532Y-77560001D01*
X71083300Y-77560001D01*
X71083300Y-72369009D01*
X71102985Y-72301970D01*
X71155789Y-72256215D01*
X71224947Y-72246271D01*
X71239394Y-72249234D01*
X71373393Y-72285140D01*
X71373400Y-72285141D01*
X71599998Y-72304966D01*
X71600002Y-72304966D01*
X71826599Y-72285141D01*
X71826610Y-72285139D01*
X72046317Y-72226269D01*
X72046331Y-72226264D01*
X72252478Y-72130136D01*
X72325471Y-72079024D01*
X71644400Y-71397953D01*
X71725148Y-71385165D01*
X71838045Y-71327641D01*
X71927641Y-71238045D01*
X71985165Y-71125148D01*
X71997953Y-71044400D01*
X72679024Y-71725471D01*
X72730136Y-71652478D01*
X72826264Y-71446331D01*
X72826269Y-71446317D01*
X72885139Y-71226610D01*
X72885141Y-71226599D01*
X72904966Y-71000002D01*
X72904966Y-70999997D01*
X72885141Y-70773400D01*
X72885139Y-70773389D01*
X72826269Y-70553682D01*
X72826264Y-70553668D01*
X72730136Y-70347521D01*
X72730132Y-70347513D01*
X72679025Y-70274526D01*
X71997953Y-70955598D01*
X71985165Y-70874852D01*
X71927641Y-70761955D01*
X71838045Y-70672359D01*
X71725148Y-70614835D01*
X71644400Y-70602046D01*
X72325472Y-69920974D01*
X72252478Y-69869863D01*
X72046331Y-69773735D01*
X72046317Y-69773730D01*
X71826610Y-69714860D01*
X71826599Y-69714858D01*
X71600002Y-69695034D01*
X71599998Y-69695034D01*
X71373400Y-69714858D01*
X71373389Y-69714860D01*
X71239393Y-69750764D01*
X71169543Y-69749101D01*
X71111681Y-69709938D01*
X71084177Y-69645709D01*
X71083300Y-69630989D01*
X71083300Y-67400001D01*
X73394532Y-67400001D01*
X73414364Y-67626686D01*
X73414366Y-67626697D01*
X73473258Y-67846488D01*
X73473261Y-67846497D01*
X73569431Y-68052732D01*
X73569432Y-68052734D01*
X73699954Y-68239141D01*
X73860858Y-68400045D01*
X73860861Y-68400047D01*
X74047266Y-68530568D01*
X74253504Y-68626739D01*
X74473308Y-68685635D01*
X74618321Y-68698322D01*
X74699998Y-68705468D01*
X74700000Y-68705468D01*
X74700002Y-68705468D01*
X74756673Y-68700509D01*
X74926692Y-68685635D01*
X75146496Y-68626739D01*
X75352734Y-68530568D01*
X75539139Y-68400047D01*
X75700047Y-68239139D01*
X75830568Y-68052734D01*
X75926739Y-67846496D01*
X75985635Y-67626692D01*
X76003641Y-67420882D01*
X76005468Y-67400001D01*
X77094532Y-67400001D01*
X77114364Y-67626686D01*
X77114366Y-67626697D01*
X77173258Y-67846488D01*
X77173261Y-67846497D01*
X77269431Y-68052732D01*
X77269432Y-68052734D01*
X77399954Y-68239141D01*
X77560858Y-68400045D01*
X77560861Y-68400047D01*
X77747266Y-68530568D01*
X77953504Y-68626739D01*
X78173308Y-68685635D01*
X78318321Y-68698322D01*
X78399998Y-68705468D01*
X78400000Y-68705468D01*
X78400002Y-68705468D01*
X78456673Y-68700509D01*
X78626692Y-68685635D01*
X78846496Y-68626739D01*
X79052734Y-68530568D01*
X79239139Y-68400047D01*
X79400047Y-68239139D01*
X79530568Y-68052734D01*
X79626739Y-67846496D01*
X79685635Y-67626692D01*
X79703641Y-67420882D01*
X79705468Y-67400001D01*
X79705468Y-67399998D01*
X79698656Y-67322135D01*
X79685635Y-67173308D01*
X79629886Y-66965250D01*
X79626741Y-66953511D01*
X79626738Y-66953502D01*
X79569151Y-66830007D01*
X79530568Y-66747266D01*
X79400047Y-66560861D01*
X79400045Y-66560858D01*
X79239141Y-66399954D01*
X79052734Y-66269432D01*
X79052732Y-66269431D01*
X78846497Y-66173261D01*
X78846488Y-66173258D01*
X78626697Y-66114366D01*
X78626693Y-66114365D01*
X78626692Y-66114365D01*
X78626691Y-66114364D01*
X78626686Y-66114364D01*
X78400002Y-66094532D01*
X78399998Y-66094532D01*
X78173313Y-66114364D01*
X78173302Y-66114366D01*
X77953511Y-66173258D01*
X77953502Y-66173261D01*
X77747267Y-66269431D01*
X77747265Y-66269432D01*
X77560858Y-66399954D01*
X77399954Y-66560858D01*
X77269432Y-66747265D01*
X77269431Y-66747267D01*
X77173261Y-66953502D01*
X77173258Y-66953511D01*
X77114366Y-67173302D01*
X77114364Y-67173313D01*
X77094532Y-67399998D01*
X77094532Y-67400001D01*
X76005468Y-67400001D01*
X76005468Y-67399998D01*
X75998656Y-67322135D01*
X75985635Y-67173308D01*
X75929886Y-66965250D01*
X75926741Y-66953511D01*
X75926738Y-66953502D01*
X75869151Y-66830007D01*
X75830568Y-66747266D01*
X75700047Y-66560861D01*
X75700045Y-66560858D01*
X75539141Y-66399954D01*
X75352734Y-66269432D01*
X75352732Y-66269431D01*
X75146497Y-66173261D01*
X75146488Y-66173258D01*
X74926697Y-66114366D01*
X74926693Y-66114365D01*
X74926692Y-66114365D01*
X74926691Y-66114364D01*
X74926686Y-66114364D01*
X74700002Y-66094532D01*
X74699998Y-66094532D01*
X74473313Y-66114364D01*
X74473302Y-66114366D01*
X74253511Y-66173258D01*
X74253502Y-66173261D01*
X74047267Y-66269431D01*
X74047265Y-66269432D01*
X73860858Y-66399954D01*
X73699954Y-66560858D01*
X73569432Y-66747265D01*
X73569431Y-66747267D01*
X73473261Y-66953502D01*
X73473258Y-66953511D01*
X73414366Y-67173302D01*
X73414364Y-67173313D01*
X73394532Y-67399998D01*
X73394532Y-67400001D01*
X71083300Y-67400001D01*
X71083300Y-67369527D01*
X71102985Y-67302488D01*
X71155789Y-67256733D01*
X71224947Y-67246789D01*
X71239377Y-67249748D01*
X71373308Y-67285635D01*
X71535230Y-67299801D01*
X71599998Y-67305468D01*
X71600000Y-67305468D01*
X71600002Y-67305468D01*
X71656673Y-67300509D01*
X71826692Y-67285635D01*
X72046496Y-67226739D01*
X72252734Y-67130568D01*
X72439139Y-67000047D01*
X72600047Y-66839139D01*
X72730568Y-66652734D01*
X72826739Y-66446496D01*
X72885635Y-66226692D01*
X72905468Y-66000000D01*
X72905208Y-65997033D01*
X72892121Y-65847441D01*
X72885635Y-65773308D01*
X72826739Y-65553504D01*
X72730568Y-65347266D01*
X72625689Y-65197482D01*
X72600045Y-65160858D01*
X72439141Y-64999954D01*
X72252734Y-64869432D01*
X72252732Y-64869431D01*
X72046497Y-64773261D01*
X72046488Y-64773258D01*
X71826697Y-64714366D01*
X71826693Y-64714365D01*
X71826692Y-64714365D01*
X71826691Y-64714364D01*
X71826686Y-64714364D01*
X71600002Y-64694532D01*
X71599998Y-64694532D01*
X71373313Y-64714364D01*
X71373302Y-64714366D01*
X71153511Y-64773258D01*
X71153502Y-64773261D01*
X70947267Y-64869431D01*
X70947265Y-64869432D01*
X70760862Y-64999951D01*
X70729248Y-65031566D01*
X70697631Y-65063182D01*
X70636311Y-65096666D01*
X70609952Y-65099500D01*
X70383427Y-65099500D01*
X70364028Y-65097973D01*
X70350188Y-65095781D01*
X70282464Y-65099330D01*
X70275975Y-65099500D01*
X70255608Y-65099500D01*
X70244515Y-65100665D01*
X70235352Y-65101628D01*
X70228891Y-65102136D01*
X70161158Y-65105686D01*
X70161153Y-65105687D01*
X70147603Y-65109317D01*
X70128491Y-65112859D01*
X70114549Y-65114325D01*
X70114536Y-65114327D01*
X70050042Y-65135283D01*
X70043833Y-65137122D01*
X69999776Y-65148928D01*
X69978315Y-65154679D01*
X69978314Y-65154679D01*
X69978312Y-65154680D01*
X69966187Y-65160858D01*
X69965820Y-65161045D01*
X69947853Y-65168487D01*
X69934515Y-65172821D01*
X69916572Y-65183181D01*
X69882438Y-65202887D01*
X69820440Y-65219500D01*
X69160048Y-65219500D01*
X69093009Y-65199815D01*
X69072371Y-65183185D01*
X69009139Y-65119953D01*
X69009138Y-65119952D01*
X69009137Y-65119951D01*
X68822734Y-64989432D01*
X68822732Y-64989431D01*
X68764878Y-64962453D01*
X68617709Y-64893827D01*
X68565272Y-64847656D01*
X68546120Y-64780462D01*
X68566336Y-64713581D01*
X68582430Y-64693770D01*
X75415991Y-57860209D01*
X75477312Y-57826726D01*
X75547004Y-57831710D01*
X75602937Y-57873582D01*
X75616050Y-57895484D01*
X75619426Y-57902724D01*
X75619430Y-57902731D01*
X75749954Y-58089141D01*
X75910858Y-58250045D01*
X75910861Y-58250047D01*
X76097266Y-58380568D01*
X76303504Y-58476739D01*
X76523308Y-58535635D01*
X76685230Y-58549801D01*
X76749998Y-58555468D01*
X76750000Y-58555468D01*
X76750002Y-58555468D01*
X76806673Y-58550509D01*
X76976692Y-58535635D01*
X77196496Y-58476739D01*
X77402734Y-58380568D01*
X77589139Y-58250047D01*
X77750047Y-58089139D01*
X77880568Y-57902734D01*
X77976739Y-57696496D01*
X78035635Y-57476692D01*
X78055468Y-57250000D01*
X78035635Y-57023308D01*
X77976739Y-56803504D01*
X77880568Y-56597266D01*
X77750047Y-56410861D01*
X77750045Y-56410858D01*
X77589141Y-56249954D01*
X77408198Y-56123258D01*
X77402734Y-56119432D01*
X77402733Y-56119431D01*
X77402731Y-56119430D01*
X77402724Y-56119426D01*
X77395484Y-56116050D01*
X77343046Y-56069876D01*
X77323896Y-56002682D01*
X77344114Y-55935802D01*
X77360206Y-55915994D01*
X83084383Y-50191819D01*
X83145706Y-50158334D01*
X83172064Y-50155500D01*
X85270822Y-50155500D01*
X85337861Y-50175185D01*
X85372397Y-50208377D01*
X85449954Y-50319141D01*
X85610858Y-50480045D01*
X85610861Y-50480047D01*
X85797266Y-50610568D01*
X85830937Y-50626269D01*
X85855275Y-50637618D01*
X85907714Y-50683791D01*
X85926866Y-50750984D01*
X85906650Y-50817865D01*
X85855275Y-50862381D01*
X85838272Y-50870310D01*
X85797267Y-50889431D01*
X85797265Y-50889432D01*
X85610858Y-51019954D01*
X85449954Y-51180858D01*
X85319432Y-51367265D01*
X85319431Y-51367267D01*
X85223261Y-51573502D01*
X85223258Y-51573511D01*
X85164366Y-51793302D01*
X85164364Y-51793313D01*
X85144532Y-52019998D01*
X85144532Y-52020001D01*
X85164364Y-52246686D01*
X85164366Y-52246697D01*
X85223258Y-52466488D01*
X85223261Y-52466497D01*
X85319431Y-52672732D01*
X85319432Y-52672734D01*
X85449954Y-52859141D01*
X85610858Y-53020045D01*
X85610861Y-53020047D01*
X85797266Y-53150568D01*
X86003504Y-53246739D01*
X86223308Y-53305635D01*
X86385230Y-53319801D01*
X86449998Y-53325468D01*
X86450000Y-53325468D01*
X86450002Y-53325468D01*
X86506673Y-53320509D01*
X86676692Y-53305635D01*
X86896496Y-53246739D01*
X87102734Y-53150568D01*
X87289139Y-53020047D01*
X87450047Y-52859139D01*
X87580568Y-52672734D01*
X87676739Y-52466496D01*
X87735635Y-52246692D01*
X87754599Y-52029922D01*
X87780051Y-51964856D01*
X87790438Y-51953059D01*
X91112819Y-48630679D01*
X91174142Y-48597194D01*
X91243834Y-48602178D01*
G37*
G04 #@! TD.AperFunction*
G04 #@! TA.AperFunction,Conductor*
G36*
X105815016Y-43211185D02*
G01*
X105860771Y-43263989D01*
X105870715Y-43333147D01*
X105860359Y-43367905D01*
X105773734Y-43553673D01*
X105773730Y-43553682D01*
X105714860Y-43773389D01*
X105714858Y-43773400D01*
X105695034Y-43999997D01*
X105695034Y-44000002D01*
X105714858Y-44226599D01*
X105714860Y-44226610D01*
X105773730Y-44446317D01*
X105773735Y-44446331D01*
X105869863Y-44652478D01*
X105920974Y-44725472D01*
X106602046Y-44044400D01*
X106614835Y-44125148D01*
X106672359Y-44238045D01*
X106761955Y-44327641D01*
X106874852Y-44385165D01*
X106955599Y-44397953D01*
X106274526Y-45079025D01*
X106347513Y-45130132D01*
X106347521Y-45130136D01*
X106553668Y-45226264D01*
X106553682Y-45226269D01*
X106773389Y-45285139D01*
X106773400Y-45285141D01*
X106999998Y-45304966D01*
X107000002Y-45304966D01*
X107226599Y-45285141D01*
X107226610Y-45285139D01*
X107446317Y-45226269D01*
X107446331Y-45226264D01*
X107652478Y-45130136D01*
X107725471Y-45079024D01*
X107044400Y-44397953D01*
X107125148Y-44385165D01*
X107238045Y-44327641D01*
X107327641Y-44238045D01*
X107385165Y-44125148D01*
X107397953Y-44044400D01*
X108079024Y-44725471D01*
X108130136Y-44652478D01*
X108226264Y-44446331D01*
X108226269Y-44446317D01*
X108285139Y-44226610D01*
X108285141Y-44226599D01*
X108304966Y-44000002D01*
X108304966Y-43999997D01*
X108285141Y-43773400D01*
X108285139Y-43773389D01*
X108226269Y-43553682D01*
X108226265Y-43553673D01*
X108139641Y-43367905D01*
X108129149Y-43298827D01*
X108157669Y-43235043D01*
X108216145Y-43196804D01*
X108252023Y-43191500D01*
X109684639Y-43191500D01*
X109751678Y-43211185D01*
X109772320Y-43227819D01*
X111955235Y-45410734D01*
X111967872Y-45425529D01*
X111976113Y-45436872D01*
X112026515Y-45482254D01*
X112031207Y-45486706D01*
X112042060Y-45497559D01*
X112045620Y-45501119D01*
X112061441Y-45513931D01*
X112066376Y-45518146D01*
X112116781Y-45563531D01*
X112116782Y-45563531D01*
X112116784Y-45563533D01*
X112128918Y-45570538D01*
X112144955Y-45581560D01*
X112155851Y-45590383D01*
X112172348Y-45598789D01*
X112223144Y-45646762D01*
X112239344Y-45696020D01*
X112243908Y-45738483D01*
X112294202Y-45873328D01*
X112294206Y-45873335D01*
X112380452Y-45988544D01*
X112380455Y-45988547D01*
X112495664Y-46074793D01*
X112495671Y-46074797D01*
X112630513Y-46125090D01*
X112630514Y-46125090D01*
X112630517Y-46125091D01*
X112666353Y-46128944D01*
X112730901Y-46155679D01*
X112770751Y-46213070D01*
X112773246Y-46282896D01*
X112737595Y-46342985D01*
X112724223Y-46353805D01*
X112699182Y-46371339D01*
X112538342Y-46532179D01*
X112407865Y-46718517D01*
X112311734Y-46924673D01*
X112311730Y-46924682D01*
X112259127Y-47120999D01*
X112259128Y-47121000D01*
X113222314Y-47121000D01*
X113210359Y-47132955D01*
X113152835Y-47245852D01*
X113133014Y-47371000D01*
X113152835Y-47496148D01*
X113210359Y-47609045D01*
X113222314Y-47621000D01*
X112259128Y-47621000D01*
X112311730Y-47817317D01*
X112311734Y-47817326D01*
X112407865Y-48023482D01*
X112538342Y-48209820D01*
X112699179Y-48370657D01*
X112885518Y-48501134D01*
X112885520Y-48501135D01*
X112943865Y-48528342D01*
X112996305Y-48574514D01*
X113015457Y-48641707D01*
X112995242Y-48708589D01*
X112943867Y-48753105D01*
X112885268Y-48780431D01*
X112885264Y-48780433D01*
X112698858Y-48910954D01*
X112537954Y-49071858D01*
X112407432Y-49258265D01*
X112407431Y-49258267D01*
X112311261Y-49464502D01*
X112311258Y-49464511D01*
X112252366Y-49684302D01*
X112252364Y-49684313D01*
X112232532Y-49910998D01*
X112232532Y-49911001D01*
X112252364Y-50137686D01*
X112252366Y-50137697D01*
X112311258Y-50357488D01*
X112311261Y-50357497D01*
X112407431Y-50563732D01*
X112407432Y-50563734D01*
X112537954Y-50750141D01*
X112698858Y-50911045D01*
X112698861Y-50911047D01*
X112885266Y-51041568D01*
X112943275Y-51068618D01*
X112995714Y-51114791D01*
X113014866Y-51181984D01*
X112994650Y-51248865D01*
X112943275Y-51293382D01*
X112885267Y-51320431D01*
X112885265Y-51320432D01*
X112698858Y-51450954D01*
X112537954Y-51611858D01*
X112407431Y-51798266D01*
X112332983Y-51957919D01*
X112286810Y-52010358D01*
X112264579Y-52021452D01*
X112255274Y-52024982D01*
X112255273Y-52024982D01*
X112255272Y-52024983D01*
X112255270Y-52024984D01*
X112247556Y-52030308D01*
X112228025Y-52041324D01*
X112219470Y-52045174D01*
X112173917Y-52080863D01*
X112167887Y-52085300D01*
X112120272Y-52118167D01*
X112120269Y-52118169D01*
X112081906Y-52161472D01*
X112076773Y-52166924D01*
X90824424Y-73419273D01*
X90818972Y-73424406D01*
X90775669Y-73462769D01*
X90775668Y-73462771D01*
X90751048Y-73498438D01*
X90696767Y-73542427D01*
X90627318Y-73550086D01*
X90564753Y-73518982D01*
X90528936Y-73458991D01*
X90525000Y-73427996D01*
X90525000Y-68481663D01*
X90544685Y-68414624D01*
X90561319Y-68393982D01*
X90788138Y-68167163D01*
X91019073Y-67936227D01*
X91080394Y-67902744D01*
X91093793Y-67900589D01*
X91094631Y-67900500D01*
X91094646Y-67900500D01*
X91279803Y-67861144D01*
X91452730Y-67784151D01*
X91605871Y-67672888D01*
X91732533Y-67532216D01*
X91827179Y-67368284D01*
X91885674Y-67188256D01*
X91905460Y-67000000D01*
X91885674Y-66811744D01*
X91827179Y-66631716D01*
X91732533Y-66467784D01*
X91605871Y-66327112D01*
X91585425Y-66312257D01*
X91452734Y-66215851D01*
X91452729Y-66215848D01*
X91279807Y-66138857D01*
X91279802Y-66138855D01*
X91134001Y-66107865D01*
X91094646Y-66099500D01*
X90905354Y-66099500D01*
X90872897Y-66106398D01*
X90720197Y-66138855D01*
X90720192Y-66138857D01*
X90547270Y-66215848D01*
X90547265Y-66215851D01*
X90394129Y-66327111D01*
X90267466Y-66467785D01*
X90172821Y-66631715D01*
X90172818Y-66631722D01*
X90114327Y-66811739D01*
X90114327Y-66811740D01*
X90114326Y-66811744D01*
X90109069Y-66861763D01*
X90104983Y-66900636D01*
X90078398Y-66965250D01*
X90069343Y-66975354D01*
X89388924Y-67655773D01*
X89383472Y-67660906D01*
X89340169Y-67699269D01*
X89340167Y-67699272D01*
X89307300Y-67746887D01*
X89302863Y-67752917D01*
X89267174Y-67798470D01*
X89263324Y-67807025D01*
X89252308Y-67826556D01*
X89246984Y-67834270D01*
X89246982Y-67834274D01*
X89226465Y-67888369D01*
X89223602Y-67895281D01*
X89199850Y-67948060D01*
X89198161Y-67957277D01*
X89192139Y-67978881D01*
X89188811Y-67987655D01*
X89181834Y-68045113D01*
X89180707Y-68052511D01*
X89170281Y-68109408D01*
X89170281Y-68109415D01*
X89173774Y-68167163D01*
X89174000Y-68174650D01*
X89174000Y-70557000D01*
X89154315Y-70624039D01*
X89101511Y-70669794D01*
X89050000Y-70681000D01*
X89014600Y-70681000D01*
X88947561Y-70661315D01*
X88901806Y-70608511D01*
X88890600Y-70557000D01*
X88890600Y-63116062D01*
X88910285Y-63049023D01*
X88926914Y-63028386D01*
X96345588Y-55609711D01*
X96351008Y-55604609D01*
X96394332Y-55566229D01*
X96427204Y-55518603D01*
X96431639Y-55512577D01*
X96467322Y-55467033D01*
X96467321Y-55467033D01*
X96467326Y-55467028D01*
X96471172Y-55458480D01*
X96482197Y-55438935D01*
X96487517Y-55431227D01*
X96487516Y-55431227D01*
X96487518Y-55431226D01*
X96508036Y-55377122D01*
X96510901Y-55370208D01*
X96522544Y-55344335D01*
X96534650Y-55317439D01*
X96536338Y-55308221D01*
X96542366Y-55286603D01*
X96545688Y-55277845D01*
X96552663Y-55220396D01*
X96553790Y-55212993D01*
X96564219Y-55156085D01*
X96560725Y-55098334D01*
X96560500Y-55090849D01*
X96560500Y-51230828D01*
X96580185Y-51163789D01*
X96632989Y-51118034D01*
X96702147Y-51108090D01*
X96736908Y-51118448D01*
X96753669Y-51126264D01*
X96753682Y-51126269D01*
X96973389Y-51185139D01*
X96973400Y-51185141D01*
X97199998Y-51204966D01*
X97200002Y-51204966D01*
X97426599Y-51185141D01*
X97426610Y-51185139D01*
X97646317Y-51126269D01*
X97646331Y-51126264D01*
X97852478Y-51030136D01*
X97925471Y-50979024D01*
X97244400Y-50297953D01*
X97325148Y-50285165D01*
X97438045Y-50227641D01*
X97527641Y-50138045D01*
X97585165Y-50025148D01*
X97597953Y-49944400D01*
X98279024Y-50625471D01*
X98330136Y-50552478D01*
X98426264Y-50346331D01*
X98426269Y-50346317D01*
X98485139Y-50126610D01*
X98485141Y-50126599D01*
X98504966Y-49900002D01*
X98504966Y-49899997D01*
X98485141Y-49673400D01*
X98485139Y-49673389D01*
X98426269Y-49453682D01*
X98426264Y-49453668D01*
X98330136Y-49247521D01*
X98330132Y-49247513D01*
X98279025Y-49174526D01*
X97597953Y-49855598D01*
X97585165Y-49774852D01*
X97527641Y-49661955D01*
X97438045Y-49572359D01*
X97325148Y-49514835D01*
X97244400Y-49502046D01*
X97925472Y-48820974D01*
X97852478Y-48769863D01*
X97646331Y-48673735D01*
X97646317Y-48673730D01*
X97426610Y-48614860D01*
X97426599Y-48614858D01*
X97200002Y-48595034D01*
X97199998Y-48595034D01*
X96973400Y-48614858D01*
X96973389Y-48614860D01*
X96753682Y-48673730D01*
X96753668Y-48673735D01*
X96736904Y-48681553D01*
X96667827Y-48692045D01*
X96604043Y-48663525D01*
X96565804Y-48605048D01*
X96560500Y-48569171D01*
X96560500Y-46231380D01*
X96580185Y-46164341D01*
X96632989Y-46118586D01*
X96702147Y-46108642D01*
X96736903Y-46118997D01*
X96753504Y-46126739D01*
X96753509Y-46126740D01*
X96753511Y-46126741D01*
X96771272Y-46131500D01*
X96973308Y-46185635D01*
X97135230Y-46199801D01*
X97199998Y-46205468D01*
X97200000Y-46205468D01*
X97200002Y-46205468D01*
X97256673Y-46200509D01*
X97426692Y-46185635D01*
X97646496Y-46126739D01*
X97852734Y-46030568D01*
X98039139Y-45900047D01*
X98200047Y-45739139D01*
X98330568Y-45552734D01*
X98426739Y-45346496D01*
X98437830Y-45305102D01*
X101095034Y-45305102D01*
X101114858Y-45531699D01*
X101114860Y-45531710D01*
X101173730Y-45751417D01*
X101173735Y-45751431D01*
X101269863Y-45957578D01*
X101320974Y-46030572D01*
X102002046Y-45349500D01*
X102014835Y-45430248D01*
X102072359Y-45543145D01*
X102161955Y-45632741D01*
X102274852Y-45690265D01*
X102355599Y-45703053D01*
X101669352Y-46389299D01*
X101659506Y-46438294D01*
X101610890Y-46488477D01*
X101555367Y-46503149D01*
X101555423Y-46504199D01*
X101555429Y-46504246D01*
X101555426Y-46504246D01*
X101555436Y-46504424D01*
X101552123Y-46504601D01*
X101492516Y-46511008D01*
X101357671Y-46561302D01*
X101357664Y-46561306D01*
X101242455Y-46647552D01*
X101242452Y-46647555D01*
X101156206Y-46762764D01*
X101156202Y-46762771D01*
X101105908Y-46897617D01*
X101101352Y-46939998D01*
X101099501Y-46957223D01*
X101099500Y-46957235D01*
X101099500Y-48652970D01*
X101099501Y-48652976D01*
X101105908Y-48712583D01*
X101156202Y-48847428D01*
X101156206Y-48847435D01*
X101242452Y-48962644D01*
X101242455Y-48962647D01*
X101357664Y-49048893D01*
X101357671Y-49048897D01*
X101492517Y-49099191D01*
X101492516Y-49099191D01*
X101499444Y-49099935D01*
X101552127Y-49105600D01*
X103247872Y-49105599D01*
X103307483Y-49099191D01*
X103442331Y-49048896D01*
X103507646Y-49000001D01*
X105694532Y-49000001D01*
X105714364Y-49226686D01*
X105714366Y-49226697D01*
X105773258Y-49446488D01*
X105773261Y-49446497D01*
X105869431Y-49652732D01*
X105869432Y-49652734D01*
X105999954Y-49839141D01*
X106160858Y-50000045D01*
X106196709Y-50025148D01*
X106347266Y-50130568D01*
X106553504Y-50226739D01*
X106773308Y-50285635D01*
X106935230Y-50299801D01*
X106999998Y-50305468D01*
X107000000Y-50305468D01*
X107000002Y-50305468D01*
X107062499Y-50300000D01*
X107226692Y-50285635D01*
X107446496Y-50226739D01*
X107652734Y-50130568D01*
X107839139Y-50000047D01*
X108000047Y-49839139D01*
X108130568Y-49652734D01*
X108226739Y-49446496D01*
X108285635Y-49226692D01*
X108305468Y-49000000D01*
X108285635Y-48773308D01*
X108237867Y-48595034D01*
X108226741Y-48553511D01*
X108226738Y-48553502D01*
X108208718Y-48514858D01*
X108130568Y-48347266D01*
X108000047Y-48160861D01*
X108000045Y-48160858D01*
X107839141Y-47999954D01*
X107652734Y-47869432D01*
X107652732Y-47869431D01*
X107446497Y-47773261D01*
X107446488Y-47773258D01*
X107226697Y-47714366D01*
X107226693Y-47714365D01*
X107226692Y-47714365D01*
X107226691Y-47714364D01*
X107226686Y-47714364D01*
X107000002Y-47694532D01*
X106999998Y-47694532D01*
X106773313Y-47714364D01*
X106773302Y-47714366D01*
X106553511Y-47773258D01*
X106553502Y-47773261D01*
X106347267Y-47869431D01*
X106347265Y-47869432D01*
X106160858Y-47999954D01*
X105999954Y-48160858D01*
X105869432Y-48347265D01*
X105869431Y-48347267D01*
X105773261Y-48553502D01*
X105773258Y-48553511D01*
X105714366Y-48773302D01*
X105714364Y-48773313D01*
X105694532Y-48999998D01*
X105694532Y-49000001D01*
X103507646Y-49000001D01*
X103557546Y-48962646D01*
X103643796Y-48847431D01*
X103694091Y-48712583D01*
X103700500Y-48652973D01*
X103700499Y-46957228D01*
X103694091Y-46897617D01*
X103681296Y-46863313D01*
X103643797Y-46762771D01*
X103643793Y-46762764D01*
X103557547Y-46647555D01*
X103557544Y-46647552D01*
X103442335Y-46561306D01*
X103442328Y-46561302D01*
X103307482Y-46511008D01*
X103307483Y-46511008D01*
X103247883Y-46504601D01*
X103247881Y-46504600D01*
X103247873Y-46504600D01*
X103247864Y-46504600D01*
X103244548Y-46504422D01*
X103244627Y-46502947D01*
X103183215Y-46484915D01*
X103137460Y-46432111D01*
X103129969Y-46388622D01*
X102444400Y-45703053D01*
X102525148Y-45690265D01*
X102638045Y-45632741D01*
X102727641Y-45543145D01*
X102785165Y-45430248D01*
X102797953Y-45349500D01*
X103479024Y-46030571D01*
X103530136Y-45957578D01*
X103626264Y-45751431D01*
X103626269Y-45751417D01*
X103685139Y-45531710D01*
X103685141Y-45531699D01*
X103704966Y-45305102D01*
X103704966Y-45305097D01*
X103685141Y-45078500D01*
X103685139Y-45078489D01*
X103626269Y-44858782D01*
X103626264Y-44858768D01*
X103530136Y-44652621D01*
X103530132Y-44652613D01*
X103479025Y-44579626D01*
X102797953Y-45260698D01*
X102785165Y-45179952D01*
X102727641Y-45067055D01*
X102638045Y-44977459D01*
X102525148Y-44919935D01*
X102444401Y-44907146D01*
X103125472Y-44226074D01*
X103052478Y-44174963D01*
X102846331Y-44078835D01*
X102846317Y-44078830D01*
X102626610Y-44019960D01*
X102626599Y-44019958D01*
X102400002Y-44000134D01*
X102399998Y-44000134D01*
X102173400Y-44019958D01*
X102173389Y-44019960D01*
X101953682Y-44078830D01*
X101953673Y-44078834D01*
X101747516Y-44174966D01*
X101747512Y-44174968D01*
X101674526Y-44226073D01*
X101674526Y-44226074D01*
X102355599Y-44907146D01*
X102274852Y-44919935D01*
X102161955Y-44977459D01*
X102072359Y-45067055D01*
X102014835Y-45179952D01*
X102002046Y-45260698D01*
X101320974Y-44579626D01*
X101320973Y-44579626D01*
X101269868Y-44652612D01*
X101269866Y-44652616D01*
X101173734Y-44858773D01*
X101173730Y-44858782D01*
X101114860Y-45078489D01*
X101114858Y-45078500D01*
X101095034Y-45305097D01*
X101095034Y-45305102D01*
X98437830Y-45305102D01*
X98485635Y-45126692D01*
X98504599Y-44909922D01*
X98530051Y-44844856D01*
X98540438Y-44833059D01*
X100145680Y-43227819D01*
X100207003Y-43194334D01*
X100233361Y-43191500D01*
X105747977Y-43191500D01*
X105815016Y-43211185D01*
G37*
G04 #@! TD.AperFunction*
G04 #@! TA.AperFunction,Conductor*
G36*
X130276659Y-44960060D02*
G01*
X133385254Y-48068655D01*
X133418739Y-48129978D01*
X133413755Y-48199670D01*
X133371883Y-48255603D01*
X133349987Y-48268714D01*
X133347519Y-48269864D01*
X133347512Y-48269868D01*
X133274526Y-48320973D01*
X133274526Y-48320974D01*
X133955599Y-49002046D01*
X133874852Y-49014835D01*
X133761955Y-49072359D01*
X133672359Y-49161955D01*
X133614835Y-49274852D01*
X133602046Y-49355598D01*
X132920974Y-48674526D01*
X132920973Y-48674526D01*
X132869868Y-48747512D01*
X132869866Y-48747516D01*
X132773734Y-48953673D01*
X132773730Y-48953682D01*
X132714860Y-49173389D01*
X132714858Y-49173400D01*
X132695034Y-49399997D01*
X132695034Y-49400002D01*
X132714858Y-49626599D01*
X132714860Y-49626610D01*
X132773730Y-49846317D01*
X132773735Y-49846331D01*
X132869863Y-50052478D01*
X132920974Y-50125472D01*
X133602046Y-49444400D01*
X133614835Y-49525148D01*
X133672359Y-49638045D01*
X133761955Y-49727641D01*
X133874852Y-49785165D01*
X133955597Y-49797953D01*
X133274526Y-50479025D01*
X133347513Y-50530132D01*
X133347521Y-50530136D01*
X133553668Y-50626264D01*
X133553682Y-50626269D01*
X133773389Y-50685139D01*
X133773400Y-50685141D01*
X133999998Y-50704966D01*
X134000002Y-50704966D01*
X134226599Y-50685141D01*
X134226606Y-50685140D01*
X134383606Y-50643072D01*
X134453456Y-50644735D01*
X134511319Y-50683897D01*
X134538823Y-50748126D01*
X134539700Y-50762847D01*
X134539700Y-68542636D01*
X134520015Y-68609675D01*
X134503381Y-68630317D01*
X130293964Y-72839733D01*
X130232641Y-72873218D01*
X130162949Y-72868234D01*
X130107016Y-72826362D01*
X130082755Y-72762861D01*
X130063635Y-72544308D01*
X130006364Y-72330567D01*
X130004741Y-72324511D01*
X130004738Y-72324502D01*
X129994231Y-72301970D01*
X129908568Y-72118266D01*
X129803293Y-71967916D01*
X129778045Y-71931858D01*
X129617141Y-71770954D01*
X129430734Y-71640432D01*
X129430728Y-71640429D01*
X129372725Y-71613382D01*
X129320285Y-71567210D01*
X129301133Y-71500017D01*
X129321348Y-71433135D01*
X129372725Y-71388618D01*
X129380130Y-71385165D01*
X129430734Y-71361568D01*
X129617139Y-71231047D01*
X129778047Y-71070139D01*
X129908568Y-70883734D01*
X130004739Y-70677496D01*
X130063635Y-70457692D01*
X130080806Y-70261432D01*
X130083468Y-70231001D01*
X130083468Y-70230998D01*
X130072931Y-70110559D01*
X130063635Y-70004308D01*
X130013612Y-69817618D01*
X130004741Y-69784511D01*
X130004738Y-69784502D01*
X129963018Y-69695034D01*
X129908568Y-69578266D01*
X129778047Y-69391861D01*
X129778045Y-69391858D01*
X129617141Y-69230954D01*
X129430734Y-69100432D01*
X129430728Y-69100429D01*
X129378850Y-69076238D01*
X129372724Y-69073381D01*
X129320285Y-69027210D01*
X129301133Y-68960017D01*
X129321348Y-68893135D01*
X129372725Y-68848618D01*
X129430734Y-68821568D01*
X129617139Y-68691047D01*
X129778047Y-68530139D01*
X129908568Y-68343734D01*
X130004739Y-68137496D01*
X130063635Y-67917692D01*
X130081644Y-67711848D01*
X130083468Y-67691001D01*
X130083468Y-67690998D01*
X130069576Y-67532214D01*
X130063635Y-67464308D01*
X130008016Y-67256733D01*
X130004741Y-67244511D01*
X130004738Y-67244502D01*
X129996455Y-67226739D01*
X129908568Y-67038266D01*
X129819724Y-66911383D01*
X129797398Y-66845178D01*
X129814408Y-66777410D01*
X129833615Y-66752584D01*
X130446488Y-66139711D01*
X130451908Y-66134609D01*
X130495232Y-66096229D01*
X130528104Y-66048603D01*
X130532539Y-66042577D01*
X130547195Y-66023871D01*
X130568226Y-65997028D01*
X130572072Y-65988480D01*
X130583097Y-65968935D01*
X130588417Y-65961227D01*
X130588416Y-65961227D01*
X130588418Y-65961226D01*
X130608936Y-65907122D01*
X130611801Y-65900208D01*
X130623444Y-65874335D01*
X130635550Y-65847439D01*
X130637238Y-65838221D01*
X130643266Y-65816603D01*
X130643476Y-65816049D01*
X130646588Y-65807845D01*
X130653563Y-65750396D01*
X130654690Y-65742993D01*
X130656683Y-65732116D01*
X130665119Y-65686085D01*
X130664602Y-65677544D01*
X130661626Y-65628336D01*
X130661400Y-65620849D01*
X130661400Y-63843061D01*
X130661626Y-63835573D01*
X130665120Y-63777815D01*
X130654684Y-63720876D01*
X130653560Y-63713481D01*
X130646588Y-63656056D01*
X130646588Y-63656055D01*
X130643267Y-63647300D01*
X130637236Y-63625665D01*
X130635550Y-63616461D01*
X130611803Y-63563698D01*
X130608940Y-63556783D01*
X130588420Y-63502679D01*
X130588419Y-63502678D01*
X130588418Y-63502674D01*
X130583098Y-63494966D01*
X130572071Y-63475415D01*
X130568226Y-63466871D01*
X130532541Y-63421324D01*
X130528101Y-63415290D01*
X130495233Y-63367672D01*
X130495232Y-63367671D01*
X130451910Y-63329291D01*
X130446472Y-63324171D01*
X130092355Y-62970054D01*
X130058870Y-62908731D01*
X130060262Y-62850276D01*
X130063635Y-62837692D01*
X130082541Y-62621593D01*
X130083468Y-62611001D01*
X130083468Y-62610998D01*
X130077801Y-62546230D01*
X130063635Y-62384308D01*
X130004739Y-62164504D01*
X129908568Y-61958266D01*
X129778047Y-61771861D01*
X129778045Y-61771858D01*
X129617141Y-61610954D01*
X129430734Y-61480432D01*
X129430728Y-61480429D01*
X129372725Y-61453382D01*
X129320285Y-61407210D01*
X129301133Y-61340017D01*
X129321348Y-61273135D01*
X129372725Y-61228618D01*
X129430734Y-61201568D01*
X129617139Y-61071047D01*
X129778047Y-60910139D01*
X129908568Y-60723734D01*
X130004739Y-60517496D01*
X130063635Y-60297692D01*
X130083468Y-60071000D01*
X130082613Y-60061233D01*
X130070843Y-59926697D01*
X130063635Y-59844308D01*
X130009119Y-59640852D01*
X130004741Y-59624511D01*
X130004738Y-59624502D01*
X129947988Y-59502802D01*
X129908568Y-59418266D01*
X129793206Y-59253511D01*
X129778045Y-59231858D01*
X129617141Y-59070954D01*
X129430734Y-58940432D01*
X129430732Y-58940431D01*
X129385783Y-58919471D01*
X129372132Y-58913105D01*
X129319694Y-58866934D01*
X129300542Y-58799740D01*
X129320758Y-58732859D01*
X129372134Y-58688341D01*
X129430484Y-58661132D01*
X129616820Y-58530657D01*
X129777657Y-58369820D01*
X129908134Y-58183482D01*
X130004265Y-57977326D01*
X130004269Y-57977317D01*
X130056872Y-57781000D01*
X129093686Y-57781000D01*
X129105641Y-57769045D01*
X129163165Y-57656148D01*
X129182986Y-57531000D01*
X129163165Y-57405852D01*
X129105641Y-57292955D01*
X129093686Y-57281000D01*
X130056872Y-57281000D01*
X130056872Y-57280999D01*
X130004269Y-57084682D01*
X130004265Y-57084673D01*
X129908134Y-56878517D01*
X129777657Y-56692179D01*
X129616820Y-56531342D01*
X129430482Y-56400865D01*
X129372133Y-56373657D01*
X129319694Y-56327484D01*
X129300542Y-56260291D01*
X129320758Y-56193410D01*
X129372129Y-56148895D01*
X129430734Y-56121568D01*
X129617139Y-55991047D01*
X129778047Y-55830139D01*
X129908568Y-55643734D01*
X130004739Y-55437496D01*
X130063635Y-55217692D01*
X130083468Y-54991000D01*
X130063635Y-54764308D01*
X130004739Y-54544504D01*
X129908568Y-54338266D01*
X129793206Y-54173511D01*
X129778045Y-54151858D01*
X129617141Y-53990954D01*
X129430734Y-53860432D01*
X129430728Y-53860429D01*
X129387692Y-53840361D01*
X129372724Y-53833381D01*
X129320285Y-53787210D01*
X129301133Y-53720017D01*
X129321348Y-53653135D01*
X129372725Y-53608618D01*
X129430734Y-53581568D01*
X129617139Y-53451047D01*
X129778047Y-53290139D01*
X129908568Y-53103734D01*
X130004739Y-52897496D01*
X130063635Y-52677692D01*
X130083468Y-52451000D01*
X130063635Y-52224308D01*
X130010226Y-52024982D01*
X130004741Y-52004511D01*
X130004738Y-52004502D01*
X129959118Y-51906671D01*
X129908568Y-51798266D01*
X129793206Y-51633511D01*
X129778045Y-51611858D01*
X129617141Y-51450954D01*
X129430734Y-51320432D01*
X129430728Y-51320429D01*
X129372725Y-51293382D01*
X129320285Y-51247210D01*
X129301133Y-51180017D01*
X129321348Y-51113135D01*
X129372725Y-51068618D01*
X129430734Y-51041568D01*
X129617139Y-50911047D01*
X129778047Y-50750139D01*
X129908568Y-50563734D01*
X130004739Y-50357496D01*
X130063635Y-50137692D01*
X130083468Y-49911000D01*
X130082505Y-49899997D01*
X130077181Y-49839139D01*
X130063635Y-49684308D01*
X130004739Y-49464504D01*
X129908568Y-49258266D01*
X129801670Y-49105598D01*
X129778045Y-49071858D01*
X129617141Y-48910954D01*
X129430734Y-48780432D01*
X129430728Y-48780429D01*
X129372725Y-48753382D01*
X129320285Y-48707210D01*
X129301133Y-48640017D01*
X129321348Y-48573135D01*
X129372725Y-48528618D01*
X129373319Y-48528341D01*
X129430734Y-48501568D01*
X129617139Y-48371047D01*
X129778047Y-48210139D01*
X129908568Y-48023734D01*
X130004739Y-47817496D01*
X130063635Y-47597692D01*
X130083468Y-47371000D01*
X130063635Y-47144308D01*
X130004739Y-46924504D01*
X129908568Y-46718266D01*
X129793206Y-46553511D01*
X129778045Y-46531858D01*
X129714819Y-46468632D01*
X129681334Y-46407309D01*
X129678500Y-46380951D01*
X129678500Y-45821048D01*
X129698185Y-45754009D01*
X129714814Y-45733371D01*
X129778047Y-45670139D01*
X129908568Y-45483734D01*
X130004739Y-45277496D01*
X130063635Y-45057692D01*
X130065451Y-45036932D01*
X130090899Y-44971869D01*
X130147489Y-44930888D01*
X130217251Y-44927007D01*
X130276659Y-44960060D01*
G37*
G04 #@! TD.AperFunction*
G04 #@! TA.AperFunction,Conductor*
G36*
X126848776Y-41536185D02*
G01*
X126869418Y-41552819D01*
X128648939Y-43332340D01*
X128682424Y-43393663D01*
X128677440Y-43463355D01*
X128635568Y-43519288D01*
X128572066Y-43543548D01*
X128569505Y-43543772D01*
X128551312Y-43545364D01*
X128551302Y-43545366D01*
X128331511Y-43604258D01*
X128331502Y-43604261D01*
X128125267Y-43700431D01*
X128125265Y-43700432D01*
X127938858Y-43830954D01*
X127777954Y-43991858D01*
X127647432Y-44178265D01*
X127647431Y-44178267D01*
X127551261Y-44384502D01*
X127551258Y-44384511D01*
X127492366Y-44604302D01*
X127492364Y-44604313D01*
X127472532Y-44830998D01*
X127472532Y-44831001D01*
X127492364Y-45057686D01*
X127492366Y-45057697D01*
X127551258Y-45277488D01*
X127551261Y-45277497D01*
X127647431Y-45483732D01*
X127647432Y-45483734D01*
X127777951Y-45670137D01*
X127777952Y-45670138D01*
X127777953Y-45670139D01*
X127841182Y-45733368D01*
X127874666Y-45794689D01*
X127877500Y-45821048D01*
X127877500Y-46380951D01*
X127857815Y-46447990D01*
X127841181Y-46468632D01*
X127777954Y-46531858D01*
X127647432Y-46718265D01*
X127647431Y-46718267D01*
X127551261Y-46924502D01*
X127551258Y-46924511D01*
X127492366Y-47144302D01*
X127492364Y-47144313D01*
X127472532Y-47370998D01*
X127472532Y-47371001D01*
X127492364Y-47597686D01*
X127492366Y-47597697D01*
X127551258Y-47817488D01*
X127551261Y-47817497D01*
X127647431Y-48023732D01*
X127647432Y-48023734D01*
X127777954Y-48210141D01*
X127938858Y-48371045D01*
X127945413Y-48375635D01*
X128125266Y-48501568D01*
X128153771Y-48514860D01*
X128183275Y-48528618D01*
X128235714Y-48574791D01*
X128254866Y-48641984D01*
X128234650Y-48708865D01*
X128183275Y-48753382D01*
X128125267Y-48780431D01*
X128125265Y-48780432D01*
X127938858Y-48910954D01*
X127777954Y-49071858D01*
X127647432Y-49258265D01*
X127647431Y-49258267D01*
X127551261Y-49464502D01*
X127551258Y-49464511D01*
X127492366Y-49684302D01*
X127492364Y-49684313D01*
X127472532Y-49910998D01*
X127472532Y-49911001D01*
X127492364Y-50137686D01*
X127492366Y-50137697D01*
X127551258Y-50357488D01*
X127551261Y-50357497D01*
X127647431Y-50563732D01*
X127647432Y-50563734D01*
X127777954Y-50750141D01*
X127938858Y-50911045D01*
X127938861Y-50911047D01*
X128125266Y-51041568D01*
X128183275Y-51068618D01*
X128235714Y-51114791D01*
X128254866Y-51181984D01*
X128234650Y-51248865D01*
X128183275Y-51293382D01*
X128125267Y-51320431D01*
X128125265Y-51320432D01*
X127938858Y-51450954D01*
X127777954Y-51611858D01*
X127647433Y-51798264D01*
X127626295Y-51843592D01*
X127590387Y-51888796D01*
X127570516Y-51904364D01*
X127564484Y-51908802D01*
X127516875Y-51941664D01*
X127516869Y-51941669D01*
X127478514Y-51984963D01*
X127473381Y-51990415D01*
X114888228Y-64575569D01*
X114826905Y-64609054D01*
X114757213Y-64604070D01*
X114701280Y-64562198D01*
X114688165Y-64540292D01*
X114685431Y-64534428D01*
X114668568Y-64498266D01*
X114559024Y-64341820D01*
X114538045Y-64311858D01*
X114377141Y-64150954D01*
X114190734Y-64020432D01*
X114190728Y-64020429D01*
X114142382Y-63997885D01*
X114132724Y-63993381D01*
X114080285Y-63947210D01*
X114061133Y-63880017D01*
X114081348Y-63813135D01*
X114132725Y-63768618D01*
X114190734Y-63741568D01*
X114377139Y-63611047D01*
X114538047Y-63450139D01*
X114668568Y-63263734D01*
X114764739Y-63057496D01*
X114823635Y-62837692D01*
X114842541Y-62621593D01*
X114843468Y-62611001D01*
X114843468Y-62610998D01*
X114837801Y-62546230D01*
X114823635Y-62384308D01*
X114764739Y-62164504D01*
X114733682Y-62097904D01*
X114723191Y-62028828D01*
X114751711Y-61965043D01*
X114810187Y-61926804D01*
X114846065Y-61921500D01*
X114878849Y-61921500D01*
X114886334Y-61921725D01*
X114891841Y-61922059D01*
X114944082Y-61925219D01*
X114944082Y-61925218D01*
X114944085Y-61925219D01*
X115000997Y-61914789D01*
X115008396Y-61913663D01*
X115065845Y-61906688D01*
X115074605Y-61903365D01*
X115096221Y-61897338D01*
X115105439Y-61895650D01*
X115132335Y-61883544D01*
X115158208Y-61871901D01*
X115165122Y-61869036D01*
X115219226Y-61848518D01*
X115226935Y-61843197D01*
X115246480Y-61832172D01*
X115255028Y-61828326D01*
X115300578Y-61792638D01*
X115306603Y-61788204D01*
X115354229Y-61755332D01*
X115392609Y-61712008D01*
X115397711Y-61706588D01*
X116284588Y-60819711D01*
X116290008Y-60814609D01*
X116333332Y-60776229D01*
X116366204Y-60728603D01*
X116370639Y-60722577D01*
X116388291Y-60700047D01*
X116406326Y-60677028D01*
X116410172Y-60668480D01*
X116421197Y-60648935D01*
X116426517Y-60641227D01*
X116426516Y-60641227D01*
X116426518Y-60641226D01*
X116447036Y-60587122D01*
X116449901Y-60580208D01*
X116473646Y-60527447D01*
X116473650Y-60527439D01*
X116475338Y-60518221D01*
X116481366Y-60496603D01*
X116484688Y-60487845D01*
X116491663Y-60430396D01*
X116492790Y-60422993D01*
X116503219Y-60366085D01*
X116502411Y-60352734D01*
X116499726Y-60308336D01*
X116499500Y-60300849D01*
X116499500Y-51205150D01*
X116499726Y-51197663D01*
X116500743Y-51180858D01*
X116503219Y-51139915D01*
X116492784Y-51082977D01*
X116491663Y-51075603D01*
X116487530Y-51041567D01*
X116484688Y-51018155D01*
X116481363Y-51009389D01*
X116475338Y-50987776D01*
X116473650Y-50978561D01*
X116449903Y-50925798D01*
X116447040Y-50918883D01*
X116426520Y-50864779D01*
X116426519Y-50864778D01*
X116426518Y-50864774D01*
X116421198Y-50857066D01*
X116410171Y-50837515D01*
X116406327Y-50828974D01*
X116406326Y-50828973D01*
X116406326Y-50828972D01*
X116370623Y-50783401D01*
X116366207Y-50777399D01*
X116333332Y-50729771D01*
X116290019Y-50691399D01*
X116284581Y-50686279D01*
X115048727Y-49450426D01*
X115043608Y-49444989D01*
X115005229Y-49401668D01*
X114957589Y-49368785D01*
X114951592Y-49364372D01*
X114906028Y-49328674D01*
X114906026Y-49328673D01*
X114906025Y-49328672D01*
X114906023Y-49328671D01*
X114897476Y-49324824D01*
X114877938Y-49313805D01*
X114877209Y-49313302D01*
X114870226Y-49308482D01*
X114870224Y-49308481D01*
X114816117Y-49287960D01*
X114809200Y-49285095D01*
X114756440Y-49261350D01*
X114750324Y-49260229D01*
X114747222Y-49259660D01*
X114725613Y-49253637D01*
X114716842Y-49250311D01*
X114712890Y-49249831D01*
X114710204Y-49248674D01*
X114709560Y-49248516D01*
X114709586Y-49248408D01*
X114648714Y-49222204D01*
X114626271Y-49197859D01*
X114538045Y-49071858D01*
X114377141Y-48910954D01*
X114190734Y-48780432D01*
X114190732Y-48780431D01*
X114132725Y-48753382D01*
X114132132Y-48753105D01*
X114079694Y-48706934D01*
X114060542Y-48639740D01*
X114080758Y-48572859D01*
X114132134Y-48528341D01*
X114190484Y-48501132D01*
X114376820Y-48370657D01*
X114537657Y-48209820D01*
X114668134Y-48023482D01*
X114764265Y-47817326D01*
X114764269Y-47817317D01*
X114816872Y-47621000D01*
X113853686Y-47621000D01*
X113865641Y-47609045D01*
X113923165Y-47496148D01*
X113942986Y-47371000D01*
X113923165Y-47245852D01*
X113865641Y-47132955D01*
X113853686Y-47121000D01*
X114816872Y-47121000D01*
X114816872Y-47120999D01*
X114764269Y-46924682D01*
X114764265Y-46924673D01*
X114668134Y-46718517D01*
X114537657Y-46532179D01*
X114376820Y-46371342D01*
X114351779Y-46353808D01*
X114308154Y-46299230D01*
X114300962Y-46229732D01*
X114332484Y-46167377D01*
X114392714Y-46131964D01*
X114409650Y-46128943D01*
X114445483Y-46125091D01*
X114445486Y-46125090D01*
X114580331Y-46074796D01*
X114695546Y-45988546D01*
X114781796Y-45873331D01*
X114832091Y-45738483D01*
X114838500Y-45678873D01*
X114838499Y-43983128D01*
X114832091Y-43923517D01*
X114811833Y-43869203D01*
X114781797Y-43788671D01*
X114781793Y-43788664D01*
X114695547Y-43673455D01*
X114695544Y-43673452D01*
X114580335Y-43587206D01*
X114580328Y-43587202D01*
X114445482Y-43536908D01*
X114445483Y-43536908D01*
X114385883Y-43530501D01*
X114385881Y-43530500D01*
X114385873Y-43530500D01*
X114385864Y-43530500D01*
X112690129Y-43530500D01*
X112690107Y-43530502D01*
X112687575Y-43530774D01*
X112686993Y-43530668D01*
X112686805Y-43530679D01*
X112686802Y-43530634D01*
X112618818Y-43518355D01*
X112586662Y-43495163D01*
X110819680Y-41728181D01*
X110786195Y-41666858D01*
X110791179Y-41597166D01*
X110833051Y-41541233D01*
X110898515Y-41516816D01*
X110907361Y-41516500D01*
X126781737Y-41516500D01*
X126848776Y-41536185D01*
G37*
G04 #@! TD.AperFunction*
G04 #@! TA.AperFunction,Conductor*
G36*
X128450359Y-57292955D02*
G01*
X128392835Y-57405852D01*
X128373014Y-57531000D01*
X128392835Y-57656148D01*
X128450359Y-57769045D01*
X128462314Y-57781000D01*
X127499128Y-57781000D01*
X127551730Y-57977317D01*
X127551734Y-57977326D01*
X127647865Y-58183482D01*
X127778342Y-58369820D01*
X127939179Y-58530657D01*
X128125518Y-58661134D01*
X128125520Y-58661135D01*
X128183865Y-58688342D01*
X128236305Y-58734514D01*
X128255457Y-58801707D01*
X128235242Y-58868589D01*
X128183867Y-58913105D01*
X128170217Y-58919471D01*
X128125264Y-58940433D01*
X127938858Y-59070954D01*
X127777954Y-59231858D01*
X127647432Y-59418265D01*
X127647431Y-59418267D01*
X127551261Y-59624502D01*
X127551258Y-59624511D01*
X127492366Y-59844302D01*
X127492364Y-59844313D01*
X127472532Y-60070998D01*
X127472532Y-60071001D01*
X127492364Y-60297686D01*
X127492366Y-60297696D01*
X127495739Y-60310286D01*
X127494072Y-60380136D01*
X127463643Y-60430054D01*
X127123224Y-60770473D01*
X127117772Y-60775606D01*
X127074469Y-60813969D01*
X127074467Y-60813972D01*
X127041600Y-60861587D01*
X127037163Y-60867617D01*
X127001474Y-60913170D01*
X126997624Y-60921725D01*
X126986608Y-60941256D01*
X126981284Y-60948970D01*
X126981282Y-60948974D01*
X126960765Y-61003069D01*
X126957902Y-61009981D01*
X126934150Y-61062760D01*
X126932461Y-61071977D01*
X126926439Y-61093581D01*
X126923111Y-61102355D01*
X126916134Y-61159813D01*
X126915007Y-61167211D01*
X126904581Y-61224108D01*
X126904581Y-61224115D01*
X126908074Y-61281863D01*
X126908300Y-61289350D01*
X126908300Y-63932649D01*
X126908074Y-63940136D01*
X126904581Y-63997882D01*
X126904581Y-63997885D01*
X126915007Y-64054787D01*
X126916134Y-64062187D01*
X126923112Y-64119645D01*
X126926437Y-64128414D01*
X126932461Y-64150023D01*
X126934150Y-64159240D01*
X126957895Y-64212000D01*
X126960760Y-64218917D01*
X126981281Y-64273024D01*
X126981281Y-64273025D01*
X126986605Y-64280738D01*
X126997519Y-64300044D01*
X126997667Y-64300371D01*
X127007376Y-64369562D01*
X126978136Y-64433020D01*
X126919231Y-64470595D01*
X126884699Y-64475500D01*
X120548162Y-64475500D01*
X120481123Y-64455815D01*
X120435368Y-64403011D01*
X120425424Y-64333853D01*
X120454449Y-64270297D01*
X120460481Y-64263819D01*
X123919509Y-60804791D01*
X127406982Y-57317317D01*
X127468303Y-57283834D01*
X127494661Y-57281000D01*
X128462314Y-57281000D01*
X128450359Y-57292955D01*
G37*
G04 #@! TD.AperFunction*
G04 #@! TD*
M02*
